<?xml version="1.0" encoding="UTF-8" standalone="no"?>
<!DOCTYPE svg PUBLIC "-//W3C//DTD SVG 1.1//EN" "http://www.w3.org/Graphics/SVG/1.1/DTD/svg11.dtd">
<!-- Generated by Microsoft Visio, SVG Export classes.svg Page-1 -->
<svg xmlns="http://www.w3.org/2000/svg" xmlns:xlink="http://www.w3.org/1999/xlink" xmlns:ev="http://www.w3.org/2001/xml-events"
		xmlns:v="http://schemas.microsoft.com/visio/2003/SVGExtensions/" width="4.05512in" height="4.33071in"
		viewBox="0 0 291.969 311.811" xml:space="preserve" color-interpolation-filters="sRGB" class="st7">
	<v:documentProperties v:langID="1033" v:metric="true" v:viewMarkup="false">
		<v:userDefs>
			<v:ud v:nameU="msvSubprocessMaster" v:prompt="" v:val="VT4(Rectangle)"/>
			<v:ud v:nameU="msvNoAutoConnect" v:val="VT0(1):26"/>
		</v:userDefs>
	</v:documentProperties>

	<style type="text/css">
	<![CDATA[
		.st1 {fill:#ffffff;stroke:#000000;stroke-linecap:round;stroke-linejoin:round;stroke-width:0.75}
		.st2 {fill:#000000;font-family:Calibri;font-size:0.833336em}
		.st3 {fill:none;stroke:none;stroke-linecap:round;stroke-linejoin:round;stroke-width:0.75}
		.st4 {fill:#000000;font-family:Calibri;font-size:1.00001em}
		.st5 {marker-end:url(#mrkr4-39);stroke:#000000;stroke-linecap:round;stroke-linejoin:round;stroke-width:0.237638}
		.st6 {fill:#000000;fill-opacity:1;stroke:#000000;stroke-opacity:1;stroke-width:0.086174404659928}
		.st7 {fill:none;fill-rule:evenodd;font-size:12px;overflow:visible;stroke-linecap:square;stroke-miterlimit:3}
	]]>
	</style>

	<defs id="Markers">
		<g id="lend4">
			<path d="M 2 1 L 0 0 L 2 -1 L 2 1 " style="stroke:none"/>
		</g>
		<marker id="mrkr4-39" class="st6" v:arrowType="4" v:arrowSize="2" v:setback="23.2087" refX="-23.208747514911" orient="auto"
				markerUnits="strokeWidth" overflow="visible">
			<use xlink:href="#lend4" transform="scale(-11.604373757455,-11.604373757455) "/>
		</marker>
	</defs>
	<g v:mID="0" v:index="1" v:groupContext="foregroundPage">
		<v:userDefs>
			<v:ud v:nameU="msvThemeOrder" v:val="VT0(0):26"/>
		</v:userDefs>
		<title>Page-1</title>
		<v:pageProperties v:drawingScale="0.0393701" v:pageScale="0.0393701" v:drawingUnits="24" v:shadowOffsetX="8.50394"
				v:shadowOffsetY="-8.50394"/>
		<v:layer v:name="Connector" v:index="0"/>
		<g id="shape1-1" v:mID="1" v:groupContext="shape" transform="translate(121.89,-240.945)">
			<title>Circle</title>
			<desc>1:0</desc>
			<v:userDefs>
				<v:ud v:nameU="visVersion" v:val="VT0(15):26"/>
			</v:userDefs>
			<v:textBlock v:margins="rect(4,4,4,4)" v:tabSpace="42.5197"/>
			<v:textRect cx="21.2598" cy="290.551" width="37.21" height="31.8898"/>
			<path d="M0 290.55 A21.2598 21.2598 0 0 1 42.52 290.55 A21.2598 21.2598 0 1 1 0 290.55 Z" class="st1"/>
			<text x="14.85" y="293.55" class="st2" v:langID="1030"><v:paragraph v:horizAlign="1"/><v:tabList/>1:0</text>		</g>
		<g id="shape3-4" v:mID="3" v:groupContext="shape" transform="translate(166.835,-255.118)">
			<title>Sheet.3</title>
			<desc>root qdisc</desc>
			<v:textBlock v:margins="rect(4,4,4,4)" v:tabSpace="42.5197"/>
			<v:textRect cx="41.3071" cy="301.811" width="82.62" height="20"/>
			<rect x="0" y="291.811" width="82.6142" height="20" class="st3"/>
			<text x="16.96" y="305.41" class="st4" v:langID="1030"><v:paragraph v:horizAlign="1"/><v:tabList/>root qdisc</text>		</g>
		<g id="shape10-7" v:mID="10" v:groupContext="shape" transform="translate(164.409,-184.252)">
			<title>Sheet.10</title>
			<desc>child class</desc>
			<v:textBlock v:margins="rect(4,4,4,4)" v:tabSpace="42.5197"/>
			<v:textRect cx="41.3071" cy="301.811" width="82.62" height="20"/>
			<rect x="0" y="291.811" width="82.6142" height="20" class="st3"/>
			<text x="16.87" y="305.41" class="st4" v:langID="1030"><v:paragraph v:horizAlign="1"/><v:tabList/>child class</text>		</g>
		<g id="shape18-10" v:mID="18" v:groupContext="shape" transform="translate(121.89,-170.079)">
			<title>Circle.18</title>
			<desc>1:1</desc>
			<v:userDefs>
				<v:ud v:nameU="visVersion" v:val="VT0(15):26"/>
			</v:userDefs>
			<v:textBlock v:margins="rect(4,4,4,4)" v:tabSpace="42.5197"/>
			<v:textRect cx="21.2598" cy="290.551" width="37.21" height="31.8898"/>
			<path d="M0 290.55 A21.2598 21.2598 0 0 1 42.52 290.55 A21.2598 21.2598 0 1 1 0 290.55 Z" class="st1"/>
			<text x="14.85" y="293.55" class="st2" v:langID="1030"><v:paragraph v:horizAlign="1"/><v:tabList/>1:1</text>		</g>
		<g id="shape19-13" v:mID="19" v:groupContext="shape" transform="translate(164.409,-99.2126)">
			<title>Circle.19</title>
			<desc>1:11</desc>
			<v:userDefs>
				<v:ud v:nameU="visVersion" v:val="VT0(15):26"/>
			</v:userDefs>
			<v:textBlock v:margins="rect(4,4,4,4)" v:tabSpace="42.5197"/>
			<v:textRect cx="21.2598" cy="290.551" width="37.21" height="31.8898"/>
			<path d="M0 290.55 A21.2598 21.2598 0 0 1 42.52 290.55 A21.2598 21.2598 0 1 1 0 290.55 Z" class="st1"/>
			<text x="12.32" y="293.55" class="st2" v:langID="1030"><v:paragraph v:horizAlign="1"/><v:tabList/>1:11</text>		</g>
		<g id="shape20-16" v:mID="20" v:groupContext="shape" transform="translate(206.929,-28.3465)">
			<title>Circle.20</title>
			<desc>1:21</desc>
			<v:userDefs>
				<v:ud v:nameU="visVersion" v:val="VT0(15):26"/>
			</v:userDefs>
			<v:textBlock v:margins="rect(4,4,4,4)" v:tabSpace="42.5197"/>
			<v:textRect cx="21.2598" cy="290.551" width="37.21" height="31.8898"/>
			<path d="M0 290.55 A21.2598 21.2598 0 0 1 42.52 290.55 A21.2598 21.2598 0 1 1 0 290.55 Z" class="st1"/>
			<text x="12.32" y="293.55" class="st2" v:langID="1030"><v:paragraph v:horizAlign="1"/><v:tabList/>1:21</text>		</g>
		<g id="shape21-19" v:mID="21" v:groupContext="shape" transform="translate(79.3701,-99.2126)">
			<title>Circle.21</title>
			<desc>1:10</desc>
			<v:userDefs>
				<v:ud v:nameU="visVersion" v:val="VT0(15):26"/>
			</v:userDefs>
			<v:textBlock v:margins="rect(4,4,4,4)" v:tabSpace="42.5197"/>
			<v:textRect cx="21.2598" cy="290.551" width="37.21" height="31.8898"/>
			<path d="M0 290.55 A21.2598 21.2598 0 0 1 42.52 290.55 A21.2598 21.2598 0 1 1 0 290.55 Z" class="st1"/>
			<text x="12.32" y="293.55" class="st2" v:langID="1030"><v:paragraph v:horizAlign="1"/><v:tabList/>1:10</text>		</g>
		<g id="shape23-22" v:mID="23" v:groupContext="shape" transform="translate(121.89,-28.3465)">
			<title>Circle.23</title>
			<desc>1:20</desc>
			<v:userDefs>
				<v:ud v:nameU="visVersion" v:val="VT0(15):26"/>
			</v:userDefs>
			<v:textBlock v:margins="rect(4,4,4,4)" v:tabSpace="42.5197"/>
			<v:textRect cx="21.2598" cy="290.551" width="37.21" height="31.8898"/>
			<path d="M0 290.55 A21.2598 21.2598 0 0 1 42.52 290.55 A21.2598 21.2598 0 1 1 0 290.55 Z" class="st1"/>
			<text x="12.32" y="293.55" class="st2" v:langID="1030"><v:paragraph v:horizAlign="1"/><v:tabList/>1:20</text>		</g>
		<g id="shape24-25" v:mID="24" v:groupContext="shape" transform="translate(209.354,-113.386)">
			<title>Sheet.24</title>
			<desc>child class</desc>
			<v:textBlock v:margins="rect(4,4,4,4)" v:tabSpace="42.5197"/>
			<v:textRect cx="41.3071" cy="301.811" width="82.62" height="20"/>
			<rect x="0" y="291.811" width="82.6142" height="20" class="st3"/>
			<text x="16.87" y="305.41" class="st4" v:langID="1030"><v:paragraph v:horizAlign="1"/><v:tabList/>child class</text>		</g>
		<g id="shape25-28" v:mID="25" v:groupContext="shape" transform="translate(-3.24409,-113.386)">
			<title>Sheet.25</title>
			<desc>leaf class</desc>
			<v:textBlock v:margins="rect(4,4,4,4)" v:tabSpace="42.5197"/>
			<v:textRect cx="41.3071" cy="301.811" width="82.62" height="20"/>
			<rect x="0" y="291.811" width="82.6142" height="20" class="st3"/>
			<text x="19.4" y="305.41" class="st4" v:langID="1030"><v:paragraph v:horizAlign="1"/><v:tabList/>leaf class</text>		</g>
		<g id="shape26-31" v:mID="26" v:groupContext="shape" transform="translate(39.2756,-42.5197)">
			<title>Sheet.26</title>
			<desc>leaf classes</desc>
			<v:textBlock v:margins="rect(4,4,4,4)" v:tabSpace="42.5197"/>
			<v:textRect cx="41.3071" cy="301.811" width="82.62" height="20"/>
			<rect x="0" y="291.811" width="82.6142" height="20" class="st3"/>
			<text x="14.07" y="305.41" class="st4" v:langID="1030"><v:paragraph v:horizAlign="1"/><v:tabList/>leaf classes</text>		</g>
		<g id="shape28-34" v:mID="28" v:groupContext="shape" v:layerMember="0" transform="translate(136.063,-240.945)">
			<title>Dynamic connector</title>
			<path d="M7.09 311.81 L7.09 334.64" class="st5"/>
		</g>
		<g id="shape32-40" v:mID="32" v:groupContext="shape" v:layerMember="0" transform="translate(143.15,-170.079)">
			<title>Dynamic connector.32</title>
			<path d="M0 311.81 L0 329.53 L-42.52 329.53 L-42.52 334.64" class="st5"/>
		</g>
		<g id="shape33-45" v:mID="33" v:groupContext="shape" v:layerMember="0" transform="translate(143.15,-170.079)">
			<title>Dynamic connector.33</title>
			<path d="M0 311.81 L0 329.53 L42.52 329.53 L42.52 334.64" class="st5"/>
		</g>
		<g id="shape34-50" v:mID="34" v:groupContext="shape" v:layerMember="0" transform="translate(185.669,-99.2126)">
			<title>Dynamic connector.34</title>
			<path d="M0 311.81 L0 329.53 L-42.52 329.53 L-42.52 334.64" class="st5"/>
		</g>
		<g id="shape35-55" v:mID="35" v:groupContext="shape" v:layerMember="0" transform="translate(185.669,-99.2126)">
			<title>Dynamic connector.35</title>
			<path d="M0 311.81 L0 329.53 L42.52 329.53 L42.52 334.64" class="st5"/>
		</g>
	</g>
</svg>
