<?xml version="1.0" encoding="UTF-8"?><svg xmlns="http://www.w3.org/2000/svg" xmlns:xlink="http://www.w3.org/1999/xlink" fill-opacity="1" color-rendering="auto" color-interpolation="auto" text-rendering="auto" stroke="black" stroke-linecap="square" width="274" stroke-miterlimit="10" shape-rendering="auto" stroke-opacity="1" fill="black" stroke-dasharray="none" font-weight="normal" stroke-width="1" height="154" font-family="'Dialog'" font-style="normal" stroke-linejoin="miter" font-size="12px" stroke-dashoffset="0" image-rendering="auto">
  <!--Generated by ySVG 2.5-->
  <defs id="genericDefs"/>
  <g>
    <defs id="defs1">
      <clipPath clipPathUnits="userSpaceOnUse" id="clipPath1">
        <path d="M0 0 L274 0 L274 154 L0 154 L0 0 Z"/>
      </clipPath>
      <clipPath clipPathUnits="userSpaceOnUse" id="clipPath2">
        <path d="M197 73 L471 73 L471 227 L197 227 L197 73 Z"/>
      </clipPath>
    </defs>
    <g fill="white" text-rendering="geometricPrecision" shape-rendering="geometricPrecision" transform="translate(-197,-73)" stroke="white">
      <rect x="197" width="274" height="154" y="73" clip-path="url(#clipPath2)" stroke="none"/>
    </g>
    <g fill="white" text-rendering="geometricPrecision" shape-rendering="geometricPrecision" transform="matrix(1,0,0,1,-197,-73)" stroke="white">
      <rect x="212" width="83" height="121" y="88" clip-path="url(#clipPath2)" stroke="none"/>
    </g>
    <g text-rendering="geometricPrecision" stroke-miterlimit="1.45" shape-rendering="geometricPrecision" transform="matrix(1,0,0,1,-197,-73)" stroke-linecap="butt">
      <rect fill="none" x="212" width="83" height="121" y="88" clip-path="url(#clipPath2)"/>
      <text x="240.8979" font-size="14px" y="153.4355" clip-path="url(#clipPath2)" font-family="monospace" stroke="none" font-weight="bold" xml:space="preserve">DUT</text>
      <text x="248.3301" font-size="10px" y="113.2537" clip-path="url(#clipPath2)" font-family="sans-serif" stroke="none" xml:space="preserve">FC0 TXD</text>
      <text x="249.5527" font-size="10px" y="135.0537" clip-path="url(#clipPath2)" font-family="sans-serif" stroke="none" xml:space="preserve">FC0 RXD</text>
      <text x="269.4443" font-size="10px" y="187.5039" clip-path="url(#clipPath2)" font-family="sans-serif" stroke="none" xml:space="preserve">GND</text>
      <text x="271.2227" font-size="10px" y="205.412" clip-path="url(#clipPath2)" font-family="sans-serif" stroke="none" xml:space="preserve">VCC</text>
    </g>
    <g fill="white" text-rendering="geometricPrecision" shape-rendering="geometricPrecision" transform="matrix(1,0,0,1,-197,-73)" stroke="white">
      <rect x="373" width="83" height="121" y="88" clip-path="url(#clipPath2)" stroke="none"/>
    </g>
    <g text-rendering="geometricPrecision" stroke-miterlimit="1.45" shape-rendering="geometricPrecision" transform="matrix(1,0,0,1,-197,-73)" stroke-linecap="butt">
      <rect fill="none" x="373" width="83" height="121" y="88" clip-path="url(#clipPath2)"/>
      <text x="393.4966" font-size="14px" y="153.4355" clip-path="url(#clipPath2)" font-family="monospace" stroke="none" font-weight="bold" xml:space="preserve">PEER </text>
      <text x="379" font-size="10px" y="117.0537" clip-path="url(#clipPath2)" font-family="sans-serif" stroke="none" xml:space="preserve">RXD</text>
      <text x="379" font-size="10px" y="136.0537" clip-path="url(#clipPath2)" font-family="sans-serif" stroke="none" xml:space="preserve">TXD</text>
      <text x="379" font-size="10px" y="207.15" clip-path="url(#clipPath2)" font-family="sans-serif" stroke="none" xml:space="preserve">VCC</text>
      <text x="378" font-size="10px" y="187.5039" clip-path="url(#clipPath2)" font-family="sans-serif" stroke="none" xml:space="preserve">GND</text>
      <path fill="none" d="M303.0303 133.2521 L364.9857 133.2521" clip-path="url(#clipPath2)"/>
      <path d="M295.0303 133.2521 L307.0303 138.2521 L304.0303 133.2521 L307.0303 128.2521 Z" clip-path="url(#clipPath2)" stroke="none"/>
      <path d="M372.9857 133.2521 L360.9857 128.2521 L363.9857 133.2521 L360.9857 138.2521 Z" clip-path="url(#clipPath2)" stroke="none"/>
      <path fill="none" d="M302.999 113.298 L364.9883 113.298" clip-path="url(#clipPath2)"/>
      <path d="M294.999 113.298 L306.999 118.298 L303.999 113.298 L306.999 108.298 Z" clip-path="url(#clipPath2)" stroke="none"/>
      <path d="M372.9883 113.298 L360.9883 108.298 L363.9883 113.298 L360.9883 118.298 Z" clip-path="url(#clipPath2)" stroke="none"/>
      <path fill="none" d="M303.0234 181.4497 L364.9661 181.4497" clip-path="url(#clipPath2)"/>
      <path d="M295.0234 181.4497 L307.0234 186.4497 L304.0234 181.4497 L307.0234 176.4497 Z" clip-path="url(#clipPath2)" stroke="none"/>
      <path d="M372.9661 181.4497 L360.9661 176.4497 L363.9661 181.4497 L360.9661 186.4497 Z" clip-path="url(#clipPath2)" stroke="none"/>
      <path fill="none" d="M303.0021 199.0152 L364.9697 199.0152" clip-path="url(#clipPath2)"/>
      <path d="M295.0021 199.0152 L307.0021 204.0152 L304.0021 199.0152 L307.0021 194.0152 Z" clip-path="url(#clipPath2)" stroke="none"/>
      <path d="M372.9697 199.0152 L360.9697 194.0152 L363.9697 199.0152 L360.9697 204.0152 Z" clip-path="url(#clipPath2)" stroke="none"/>
    </g>
  </g>
</svg>
