<?xml version="1.0" encoding="UTF-8" standalone="no"?>
<!DOCTYPE svg PUBLIC "-//W3C//DTD SVG 1.1//EN"
 "http://www.w3.org/Graphics/SVG/1.1/DTD/svg11.dtd">
<!-- Generated by graphviz version 2.43.0 (0)
 -->
<!-- Title: D Pages: 1 -->
<svg width="398pt" height="146pt"
 viewBox="0.00 0.00 398.24 145.99" xmlns="http://www.w3.org/2000/svg" xmlns:xlink="http://www.w3.org/1999/xlink">
<g id="graph0" class="graph" transform="scale(1 1) rotate(0) translate(4 141.99)">
<title>D</title>
<polygon fill="white" stroke="transparent" points="-4,4 -4,-141.99 394.24,-141.99 394.24,4 -4,4"/>
<!-- COMMAND -->
<g id="node1" class="node">
<title>COMMAND</title>
<ellipse fill="none" stroke="black" cx="68.99" cy="-68.99" rx="64.99" ry="64.99"/>
<ellipse fill="none" stroke="black" cx="68.99" cy="-68.99" rx="68.99" ry="68.99"/>
<text text-anchor="middle" x="68.99" y="-65.29" font-family="Times,serif" font-size="14.00">COMMAND</text>
</g>
<!-- DATA -->
<g id="node2" class="node">
<title>DATA</title>
<ellipse fill="none" stroke="black" cx="331.74" cy="-68.99" rx="36" ry="36"/>
<text text-anchor="middle" x="331.74" y="-65.29" font-family="Times,serif" font-size="14.00">DATA</text>
</g>
<!-- COMMAND&#45;&gt;DATA -->
<g id="edge1" class="edge">
<title>COMMAND&#45;&gt;DATA</title>
<path fill="none" stroke="black" d="M138.16,-68.99C184.66,-68.99 244.95,-68.99 285.58,-68.99"/>
<polygon fill="black" stroke="black" points="285.73,-72.49 295.73,-68.99 285.73,-65.49 285.73,-72.49"/>
<text text-anchor="middle" x="216.99" y="-72.79" font-family="Times,serif" font-size="14.00">SEND REQUEST</text>
</g>
<!-- DATA&#45;&gt;COMMAND -->
<g id="edge3" class="edge">
<title>DATA&#45;&gt;COMMAND</title>
<path fill="none" stroke="black" d="M298.58,-55.43C291.89,-53.17 284.8,-51.18 277.99,-49.99 224.57,-40.67 209.89,-44.11 155.99,-49.99 152.9,-50.33 149.75,-50.74 146.58,-51.19"/>
<polygon fill="black" stroke="black" points="145.74,-47.78 136.42,-52.82 146.85,-54.7 145.74,-47.78"/>
<text text-anchor="middle" x="216.99" y="-53.79" font-family="Times,serif" font-size="14.00">All data received</text>
</g>
<!-- DATA&#45;&gt;DATA -->
<g id="edge2" class="edge">
<title>DATA&#45;&gt;DATA</title>
<path fill="none" stroke="black" d="M310.74,-98.02C308.59,-111.25 315.59,-122.74 331.74,-122.74 343.46,-122.74 350.37,-116.67 352.44,-108.28"/>
<polygon fill="black" stroke="black" points="355.95,-108.12 352.73,-98.02 348.95,-107.92 355.95,-108.12"/>
<text text-anchor="middle" x="331.74" y="-126.54" font-family="Times,serif" font-size="14.00">DATA REQUEST</text>
</g>
</g>
</svg>
