<?xml version="1.0" encoding="UTF-8"?><svg xmlns="http://www.w3.org/2000/svg" xmlns:xlink="http://www.w3.org/1999/xlink" fill-opacity="1" color-rendering="auto" color-interpolation="auto" text-rendering="auto" stroke="black" stroke-linecap="square" width="745" stroke-miterlimit="10" shape-rendering="auto" stroke-opacity="1" fill="black" stroke-dasharray="none" font-weight="normal" stroke-width="1" height="421" font-family="'Dialog'" font-style="normal" stroke-linejoin="miter" font-size="12px" stroke-dashoffset="0" image-rendering="auto">
  <!--Generated by ySVG 2.5-->
  <defs id="genericDefs"/>
  <g>
    <defs id="defs1">
      <linearGradient x1="276" gradientUnits="userSpaceOnUse" x2="335" y1="321" y2="361" id="linearGradient1" spreadMethod="reflect">
        <stop stop-opacity="1" stop-color="rgb(255,102,0)" offset="0%"/>
        <stop stop-opacity="1" stop-color="rgb(255,102,0)" offset="100%"/>
      </linearGradient>
      <linearGradient x1="366" gradientUnits="userSpaceOnUse" x2="435" y1="319" y2="362" id="linearGradient2" spreadMethod="reflect">
        <stop stop-opacity="1" stop-color="rgb(255,204,0)" offset="0%"/>
        <stop stop-opacity="1" stop-color="rgb(255,204,0)" offset="100%"/>
      </linearGradient>
      <linearGradient x1="638" gradientUnits="userSpaceOnUse" x2="707" y1="407" y2="450" id="linearGradient3" spreadMethod="reflect">
        <stop stop-opacity="1" stop-color="lime" offset="0%"/>
        <stop stop-opacity="1" stop-color="lime" offset="100%"/>
      </linearGradient>
      <linearGradient x1="466" gradientUnits="userSpaceOnUse" x2="535" y1="319" y2="362" id="linearGradient4" spreadMethod="reflect">
        <stop stop-opacity="1" stop-color="rgb(153,204,0)" offset="0%"/>
        <stop stop-opacity="1" stop-color="rgb(153,204,0)" offset="100%"/>
      </linearGradient>
      <linearGradient x1="732" gradientUnits="userSpaceOnUse" x2="801" y1="407" y2="450" id="linearGradient5" spreadMethod="reflect">
        <stop stop-opacity="1" stop-color="rgb(153,204,0)" offset="0%"/>
        <stop stop-opacity="1" stop-color="rgb(153,204,0)" offset="100%"/>
      </linearGradient>
      <linearGradient x1="857" gradientUnits="userSpaceOnUse" x2="926" y1="405" y2="448" id="linearGradient6" spreadMethod="reflect">
        <stop stop-opacity="1" stop-color="rgb(153,204,0)" offset="0%"/>
        <stop stop-opacity="1" stop-color="rgb(153,204,0)" offset="100%"/>
      </linearGradient>
      <linearGradient x1="249.784" gradientUnits="userSpaceOnUse" x2="263.784" y1="491.784" y2="505.784" id="linearGradient7" spreadMethod="reflect">
        <stop stop-opacity="1" stop-color="rgb(255,102,0)" offset="0%"/>
        <stop stop-opacity="1" stop-color="rgb(255,102,0)" offset="100%"/>
      </linearGradient>
      <linearGradient x1="249.784" gradientUnits="userSpaceOnUse" x2="263.784" y1="516.568" y2="530.568" id="linearGradient8" spreadMethod="reflect">
        <stop stop-opacity="1" stop-color="rgb(255,204,0)" offset="0%"/>
        <stop stop-opacity="1" stop-color="rgb(255,204,0)" offset="100%"/>
      </linearGradient>
      <linearGradient x1="249.784" gradientUnits="userSpaceOnUse" x2="263.784" y1="567.944" y2="581.944" id="linearGradient9" spreadMethod="reflect">
        <stop stop-opacity="1" stop-color="rgb(153,204,0)" offset="0%"/>
        <stop stop-opacity="1" stop-color="rgb(153,204,0)" offset="100%"/>
      </linearGradient>
      <linearGradient x1="571.064" gradientUnits="userSpaceOnUse" x2="585.064" y1="491.784" y2="505.784" id="linearGradient10" spreadMethod="reflect">
        <stop stop-opacity="1" stop-color="lime" offset="0%"/>
        <stop stop-opacity="1" stop-color="lime" offset="100%"/>
      </linearGradient>
      <linearGradient x1="571.064" gradientUnits="userSpaceOnUse" x2="585.064" y1="572.92" y2="586.92" id="linearGradient11" spreadMethod="reflect">
        <stop stop-opacity="1" stop-color="silver" offset="0%"/>
        <stop stop-opacity="1" stop-color="silver" offset="100%"/>
      </linearGradient>
      <clipPath clipPathUnits="userSpaceOnUse" id="clipPath1">
        <path d="M0 0 L745 0 L745 421 L0 421 L0 0 Z"/>
      </clipPath>
      <clipPath clipPathUnits="userSpaceOnUse" id="clipPath2">
        <path d="M224 233 L969 233 L969 654 L224 654 L224 233 Z"/>
      </clipPath>
      <clipPath clipPathUnits="userSpaceOnUse" id="clipPath3">
        <path d="M131.7598 -18 L131.7598 727 L-289.2402 727 L-289.2402 -18 L131.7598 -18 Z"/>
      </clipPath>
      <clipPath clipPathUnits="userSpaceOnUse" id="clipPath4">
        <path d="M235.3867 -18 L235.3867 727 L-185.6133 727 L-185.6133 -18 L235.3867 -18 Z"/>
      </clipPath>
    </defs>
    <g fill="white" text-rendering="geometricPrecision" shape-rendering="geometricPrecision" transform="translate(-224,-233)" stroke="white">
      <rect x="224" width="745" height="421" y="233" clip-path="url(#clipPath2)" stroke="none"/>
    </g>
    <g fill="white" text-rendering="geometricPrecision" shape-rendering="geometricPrecision" transform="matrix(1,0,0,1,-224,-233)" stroke="white">
      <path d="M239 248 L239 278 L954 278 L954 248 Z" stroke="none" clip-path="url(#clipPath2)"/>
      <rect x="239" width="715" height="203" y="278" clip-path="url(#clipPath2)" stroke="none"/>
      <rect x="263" width="280" height="24" y="278" clip-path="url(#clipPath2)" stroke="none"/>
      <rect x="543" width="80" height="24" y="278" clip-path="url(#clipPath2)" stroke="none"/>
      <rect x="623" width="196" height="24" y="278" clip-path="url(#clipPath2)" stroke="none"/>
      <rect x="819" width="135" height="24" y="278" clip-path="url(#clipPath2)" stroke="none"/>
      <rect x="239" y="302" clip-path="url(#clipPath2)" fill="rgb(255,204,204)" width="715" height="80" stroke="none"/>
      <rect x="239" y="382" clip-path="url(#clipPath2)" fill="rgb(204,255,204)" width="715" height="99" stroke="none"/>
    </g>
    <g text-rendering="geometricPrecision" stroke-miterlimit="1.45" shape-rendering="geometricPrecision" transform="matrix(1,0,0,1,-224,-233)" stroke-linecap="butt">
      <rect fill="none" x="239" width="715" height="233" y="248" clip-path="url(#clipPath2)"/>
      <rect fill="none" x="263" width="280" height="203" y="278" clip-path="url(#clipPath2)"/>
      <rect fill="none" x="543" width="80" height="203" y="278" clip-path="url(#clipPath2)"/>
      <rect fill="none" x="623" width="196" height="203" y="278" clip-path="url(#clipPath2)"/>
      <rect fill="none" x="819" width="135" height="203" y="278" clip-path="url(#clipPath2)"/>
      <rect fill="none" x="239" width="715" height="80" y="302" clip-path="url(#clipPath2)"/>
      <rect fill="none" x="239" width="715" height="99" y="382" clip-path="url(#clipPath2)"/>
    </g>
    <g font-size="15px" stroke-linecap="butt" transform="matrix(1,0,0,1,-224,-233)" text-rendering="geometricPrecision" font-family="sans-serif" shape-rendering="geometricPrecision" stroke-miterlimit="1.45">
      <text x="400.7236" xml:space="preserve" y="267.9233" clip-path="url(#clipPath2)" stroke="none">ARMv8 / LAN969x exception levels and secure state</text>
    </g>
    <g text-rendering="geometricPrecision" stroke-miterlimit="1.45" shape-rendering="geometricPrecision" font-family="sans-serif" transform="matrix(-0,-1,1,-0,18,131.7598)" stroke-linecap="butt">
      <text x="2" xml:space="preserve" y="13.1387" clip-path="url(#clipPath3)" stroke="none">Secure</text>
    </g>
    <g text-rendering="geometricPrecision" stroke-miterlimit="1.45" shape-rendering="geometricPrecision" font-family="sans-serif" transform="matrix(-0,-1,1,-0,18,235.3867)" stroke-linecap="butt">
      <text x="2" xml:space="preserve" y="13.1387" clip-path="url(#clipPath4)" stroke="none">Non-Secure</text>
    </g>
    <g text-rendering="geometricPrecision" stroke-miterlimit="1.45" shape-rendering="geometricPrecision" font-family="sans-serif" transform="matrix(1,0,0,1,-224,-233)" stroke-linecap="butt">
      <text x="357.5576" xml:space="preserve" y="294.1387" clip-path="url(#clipPath2)" stroke="none">EL3 / SVC-MON</text>
      <text x="554.418" xml:space="preserve" y="294.1387" clip-path="url(#clipPath2)" stroke="none">EL2 / HYP</text>
      <text x="692.1104" xml:space="preserve" y="294.1387" clip-path="url(#clipPath2)" stroke="none">EL1 / SVC</text>
      <text x="857.3438" xml:space="preserve" y="294.1387" clip-path="url(#clipPath2)" stroke="none">EL0 / USR</text>
    </g>
    <g fill="url(#linearGradient1)" text-rendering="geometricPrecision" shape-rendering="geometricPrecision" transform="matrix(1,0,0,1,-224,-233)" stroke="url(#linearGradient1)">
      <path d="M276 321 L335 321 L335 361 L276 361 Z" stroke="none" clip-path="url(#clipPath2)"/>
    </g>
    <g text-rendering="geometricPrecision" stroke-miterlimit="1.45" shape-rendering="geometricPrecision" transform="matrix(1,0,0,1,-224,-233)" stroke-linecap="butt">
      <path fill="none" d="M276 321 L335 321 L335 361 L276 361 Z" clip-path="url(#clipPath2)"/>
      <text x="294.2236" xml:space="preserve" y="345.1543" clip-path="url(#clipPath2)" font-family="sans-serif" stroke="none">BL1</text>
    </g>
    <g fill="url(#linearGradient2)" text-rendering="geometricPrecision" shape-rendering="geometricPrecision" transform="matrix(1,0,0,1,-224,-233)" stroke="url(#linearGradient2)">
      <path d="M366 319 L435 319 L435 362 L366 362 Z" stroke="none" clip-path="url(#clipPath2)"/>
    </g>
    <g text-rendering="geometricPrecision" stroke-miterlimit="1.45" shape-rendering="geometricPrecision" transform="matrix(1,0,0,1,-224,-233)" stroke-linecap="butt">
      <path fill="none" d="M366 319 L435 319 L435 362 L366 362 Z" clip-path="url(#clipPath2)"/>
      <text x="389.2236" xml:space="preserve" y="337.6699" clip-path="url(#clipPath2)" font-family="sans-serif" stroke="none">BL2</text>
      <text x="383.8125" xml:space="preserve" y="351.6387" clip-path="url(#clipPath2)" font-family="sans-serif" stroke="none">(tmp)</text>
    </g>
    <g fill="url(#linearGradient3)" text-rendering="geometricPrecision" shape-rendering="geometricPrecision" transform="matrix(1,0,0,1,-224,-233)" stroke="url(#linearGradient3)">
      <path d="M638 407 L707 407 L707 450 L638 450 Z" stroke="none" clip-path="url(#clipPath2)"/>
    </g>
    <g text-rendering="geometricPrecision" stroke-miterlimit="1.45" shape-rendering="geometricPrecision" transform="matrix(1,0,0,1,-224,-233)" stroke-linecap="butt">
      <path fill="none" d="M638 407 L707 407 L707 450 L638 450 Z" clip-path="url(#clipPath2)"/>
      <text x="653.4775" xml:space="preserve" y="425.6699" clip-path="url(#clipPath2)" font-family="sans-serif" stroke="none">BL33 /</text>
      <text x="654.2979" xml:space="preserve" y="439.6387" clip-path="url(#clipPath2)" font-family="sans-serif" stroke="none">UBoot</text>
    </g>
    <g fill="url(#linearGradient4)" text-rendering="geometricPrecision" shape-rendering="geometricPrecision" transform="matrix(1,0,0,1,-224,-233)" stroke="url(#linearGradient4)">
      <path d="M466 319 L535 319 L535 362 L466 362 Z" stroke="none" clip-path="url(#clipPath2)"/>
    </g>
    <g text-rendering="geometricPrecision" stroke-miterlimit="1.45" shape-rendering="geometricPrecision" transform="matrix(1,0,0,1,-224,-233)" stroke-linecap="butt">
      <path fill="none" d="M466 319 L535 319 L535 362 L466 362 Z" clip-path="url(#clipPath2)"/>
      <text x="485.4062" xml:space="preserve" y="344.6543" clip-path="url(#clipPath2)" font-family="sans-serif" stroke="none">BL31</text>
    </g>
    <g fill="url(#linearGradient5)" text-rendering="geometricPrecision" shape-rendering="geometricPrecision" transform="matrix(1,0,0,1,-224,-233)" stroke="url(#linearGradient5)">
      <path d="M732 407 L801 407 L801 450 L732 450 Z" stroke="none" clip-path="url(#clipPath2)"/>
    </g>
    <g text-rendering="geometricPrecision" stroke-miterlimit="1.45" shape-rendering="geometricPrecision" transform="matrix(1,0,0,1,-224,-233)" stroke-linecap="butt">
      <path fill="none" d="M732 407 L801 407 L801 450 L732 450 Z" clip-path="url(#clipPath2)"/>
      <text x="750.334" xml:space="preserve" y="432.6543" clip-path="url(#clipPath2)" font-family="sans-serif" stroke="none">Linux</text>
    </g>
    <g fill="url(#linearGradient6)" text-rendering="geometricPrecision" shape-rendering="geometricPrecision" transform="matrix(1,0,0,1,-224,-233)" stroke="url(#linearGradient6)">
      <path d="M857 405 L926 405 L926 448 L857 448 Z" stroke="none" clip-path="url(#clipPath2)"/>
    </g>
    <g text-rendering="geometricPrecision" stroke-miterlimit="1.45" shape-rendering="geometricPrecision" transform="matrix(1,0,0,1,-224,-233)" stroke-linecap="butt">
      <path fill="none" d="M857 405 L926 405 L926 448 L857 448 Z" clip-path="url(#clipPath2)"/>
      <text x="877.8242" xml:space="preserve" y="423.6699" clip-path="url(#clipPath2)" font-family="sans-serif" stroke="none">User</text>
      <text x="874.1006" xml:space="preserve" y="437.6387" clip-path="url(#clipPath2)" font-family="sans-serif" stroke="none">rootfs</text>
    </g>
    <g fill="url(#linearGradient7)" text-rendering="geometricPrecision" shape-rendering="geometricPrecision" transform="matrix(1,0,0,1,-224,-233)" stroke="url(#linearGradient7)">
      <path d="M249.784 491.784 L263.784 491.784 L263.784 505.784 L249.784 505.784 Z" stroke="none" clip-path="url(#clipPath2)"/>
    </g>
    <g text-rendering="geometricPrecision" stroke-miterlimit="1.45" shape-rendering="geometricPrecision" transform="matrix(1,0,0,1,-224,-233)" stroke-linecap="butt">
      <path fill="none" d="M249.784 491.784 L263.784 491.784 L263.784 505.784 L249.784 505.784 Z" clip-path="url(#clipPath2)"/>
      <text x="269.784" xml:space="preserve" y="502.9383" clip-path="url(#clipPath2)" font-family="sans-serif" stroke="none">Execute from secure immutable ROM</text>
    </g>
    <g fill="url(#linearGradient8)" text-rendering="geometricPrecision" shape-rendering="geometricPrecision" transform="matrix(1,0,0,1,-224,-233)" stroke="url(#linearGradient8)">
      <path d="M249.784 516.568 L263.784 516.568 L263.784 530.568 L249.784 530.568 Z" stroke="none" clip-path="url(#clipPath2)"/>
    </g>
    <g text-rendering="geometricPrecision" stroke-miterlimit="1.45" shape-rendering="geometricPrecision" transform="matrix(1,0,0,1,-224,-233)" stroke-linecap="butt">
      <path fill="none" d="M249.784 516.568 L263.784 516.568 L263.784 530.568 L249.784 530.568 Z" clip-path="url(#clipPath2)"/>
      <text x="269.784" xml:space="preserve" y="528.2076" clip-path="url(#clipPath2)" font-family="sans-serif" stroke="none">Execute from secure on-chip RAM (128kb).</text>
      <text x="269.784" xml:space="preserve" y="542.1763" clip-path="url(#clipPath2)" font-family="sans-serif" stroke="none">Image does not stay resident in memory, and</text>
      <text x="269.784" xml:space="preserve" y="556.1451" clip-path="url(#clipPath2)" font-family="sans-serif" stroke="none">the memory is recycled for other purpose.</text>
    </g>
    <g fill="url(#linearGradient9)" text-rendering="geometricPrecision" shape-rendering="geometricPrecision" transform="matrix(1,0,0,1,-224,-233)" stroke="url(#linearGradient9)">
      <path d="M249.784 567.944 L263.784 567.944 L263.784 581.944 L249.784 581.944 Z" stroke="none" clip-path="url(#clipPath2)"/>
    </g>
    <g text-rendering="geometricPrecision" stroke-miterlimit="1.45" shape-rendering="geometricPrecision" transform="matrix(1,0,0,1,-224,-233)" stroke-linecap="butt">
      <path fill="none" d="M249.784 567.944 L263.784 567.944 L263.784 581.944 L249.784 581.944 Z" clip-path="url(#clipPath2)"/>
      <text x="269.784" xml:space="preserve" y="578.0504" clip-path="url(#clipPath2)" font-family="sans-serif" stroke="none">Execute from secure (encrypted) DDR memory.</text>
      <text x="269.784" xml:space="preserve" y="592.0192" clip-path="url(#clipPath2)" font-family="sans-serif" stroke="none">DDR Memory is partitioned so that the </text>
      <text x="269.784" xml:space="preserve" y="605.9879" clip-path="url(#clipPath2)" font-family="sans-serif" stroke="none">non-secure world cannot access the secure </text>
      <text x="269.784" xml:space="preserve" y="619.9567" clip-path="url(#clipPath2)" font-family="sans-serif" stroke="none">DDR memory. </text>
      <text x="269.784" xml:space="preserve" y="633.9254" clip-path="url(#clipPath2)" font-family="sans-serif" stroke="none">Stay resident, and offer run-time services</text>
    </g>
    <g fill="url(#linearGradient10)" text-rendering="geometricPrecision" shape-rendering="geometricPrecision" transform="matrix(1,0,0,1,-224,-233)" stroke="url(#linearGradient10)">
      <path d="M571.064 491.784 L585.064 491.784 L585.064 505.784 L571.064 505.784 Z" stroke="none" clip-path="url(#clipPath2)"/>
    </g>
    <g text-rendering="geometricPrecision" stroke-miterlimit="1.45" shape-rendering="geometricPrecision" transform="matrix(1,0,0,1,-224,-233)" stroke-linecap="butt">
      <path fill="none" d="M571.064 491.784 L585.064 491.784 L585.064 505.784 L571.064 505.784 Z" clip-path="url(#clipPath2)"/>
      <text x="591.064" xml:space="preserve" y="503.5174" clip-path="url(#clipPath2)" font-family="sans-serif" stroke="none">Execute from secure (encrypted) DDR memory.</text>
      <text x="591.064" xml:space="preserve" y="517.4862" clip-path="url(#clipPath2)" font-family="sans-serif" stroke="none">DDR Memory is partitioned so that the non-secure</text>
      <text x="591.064" xml:space="preserve" y="531.455" clip-path="url(#clipPath2)" font-family="sans-serif" stroke="none">world cannot access the secure DDR memory.</text>
      <text x="591.064" xml:space="preserve" y="545.4237" clip-path="url(#clipPath2)" font-family="sans-serif" stroke="none">Image does not stay resident.</text>
    </g>
    <g fill="url(#linearGradient11)" text-rendering="geometricPrecision" shape-rendering="geometricPrecision" transform="matrix(1,0,0,1,-224,-233)" stroke="url(#linearGradient11)">
      <path d="M571.064 572.92 L585.064 572.92 L585.064 586.92 L571.064 586.92 Z" stroke="none" clip-path="url(#clipPath2)"/>
    </g>
    <g text-rendering="geometricPrecision" stroke-miterlimit="1.45" shape-rendering="geometricPrecision" transform="matrix(1,0,0,1,-224,-233)" stroke-linecap="butt">
      <path fill="none" d="M571.064 572.92 L585.064 572.92 L585.064 586.92 L571.064 586.92 Z" clip-path="url(#clipPath2)"/>
      <text x="591.064" xml:space="preserve" y="584.0899" clip-path="url(#clipPath2)" font-family="sans-serif" stroke="none">Possible to add firmware blob in this context, </text>
      <text x="591.064" xml:space="preserve" y="598.0587" clip-path="url(#clipPath2)" font-family="sans-serif" stroke="none">but is not part of the initial offering</text>
    </g>
    <g text-rendering="geometricPrecision" stroke-miterlimit="1.45" shape-rendering="geometricPrecision" transform="matrix(1,0,0,1,-224,-233)" stroke-linecap="butt">
      <path fill="none" d="M334.9556 340.845 L358.0317 340.7235" clip-path="url(#clipPath2)"/>
    </g>
    <g text-rendering="geometricPrecision" stroke-miterlimit="1.45" shape-rendering="geometricPrecision" transform="matrix(1,0,0,1,-224,-233)" stroke-linecap="butt">
      <path d="M366.0316 340.6814 L354.0054 335.7446 L357.0317 340.7288 L354.058 345.7445 Z" stroke="none" clip-path="url(#clipPath2)"/>
      <path fill="none" d="M435.0215 340.5 L458.0023 340.5" clip-path="url(#clipPath2)"/>
      <path d="M466.0023 340.5 L454.0023 335.5 L457.0023 340.5 L454.0023 345.5 Z" clip-path="url(#clipPath2)" stroke="none"/>
      <path fill="none" d="M520.3598 362.0268 L528.32 370.6552 L609.12 428.5 L629.9938 428.5" clip-path="url(#clipPath2)"/>
      <path d="M637.9938 428.5 L625.9938 423.5 L628.9938 428.5 L625.9938 433.5 Z" clip-path="url(#clipPath2)" stroke="none"/>
      <path fill="none" d="M706.9697 428.5 L723.9969 428.5" clip-path="url(#clipPath2)"/>
      <path d="M731.9969 428.5 L719.9969 423.5 L722.9969 428.5 L719.9969 433.5 Z" clip-path="url(#clipPath2)" stroke="none"/>
    </g>
    <g stroke-linecap="round" transform="matrix(1,0,0,1,-224,-233)" stroke-dashoffset="2" text-rendering="geometricPrecision" shape-rendering="geometricPrecision" stroke-dasharray="0,8" stroke-width="2" stroke-miterlimit="1.45">
      <path fill="none" d="M766.5 406.9727 L766.5 340.5 L544.0164 340.5" clip-path="url(#clipPath2)"/>
      <path d="M535.0164 340.5 L548.5164 346.125 L545.1414 340.5 L548.5164 334.875 Z" clip-path="url(#clipPath2)" stroke="none"/>
    </g>
    <g text-rendering="geometricPrecision" stroke-miterlimit="1.45" shape-rendering="geometricPrecision" font-family="sans-serif" transform="matrix(1,0,0,1,-224,-233)" stroke-linecap="butt">
      <text x="627.3887" xml:space="preserve" y="337.6699" clip-path="url(#clipPath2)" stroke="none">PSCI/SMC interface to access</text>
      <text x="668.0909" xml:space="preserve" y="351.6387" clip-path="url(#clipPath2)" stroke="none">secure services</text>
      <path fill="none" d="M801.0154 427.9478 L848.9949 427.1801" clip-path="url(#clipPath2)"/>
      <path d="M856.9939 427.0521 L844.9155 422.2447 L847.9951 427.1961 L845.0754 432.2434 Z" clip-path="url(#clipPath2)" stroke="none"/>
    </g>
  </g>
</svg>
