<svg xmlns="http://www.w3.org/2000/svg" style="overflow: hidden; display: block; width: 634px; height: 605px;" width="634px" height="605px" viewBox="0 0 634 605" xmlns:xlink="http://www.w3.org/1999/xlink"><defs><path fill="rgb(0,0,0)" stroke="rgb(0,0,0)" d="M 0,0 L 10,-5 L 5,0 L 10,5 Z" fill-opacity="1" stroke-opacity="1" stroke-width="2" stroke-linecap="butt" stroke-linejoin="miter" stroke-miterlimit="10" id="ygc82_0"/><path fill="rgb(192,192,192)" stroke="rgb(192,192,192)" d="M 0,0 L 10,-5 L 5,0 L 10,5 Z" fill-opacity="1" stroke-opacity="1" stroke-width="1" stroke-linecap="butt" stroke-linejoin="miter" stroke-miterlimit="10" id="ygc82_1"/><path fill="rgb(0,0,0)" stroke="rgb(0,0,0)" d="M 0,0 L 10,-5 L 5,0 L 10,5 Z" fill-opacity="1" stroke-opacity="1" stroke-width="2" stroke-linecap="butt" stroke-linejoin="miter" stroke-miterlimit="10" id="ygc82_2"/><path fill="rgb(0,0,0)" stroke="rgb(0,0,0)" d="M 0,0 L 10,-5 L 5,0 L 10,5 Z" fill-opacity="1" stroke-opacity="1" stroke-width="2" stroke-linecap="butt" stroke-linejoin="miter" stroke-miterlimit="10" id="ygc82_3"/><path fill="rgb(192,192,192)" stroke="rgb(192,192,192)" d="M 0,0 L 10,-5 L 5,0 L 10,5 Z" fill-opacity="1" stroke-opacity="1" stroke-width="1" stroke-linecap="butt" stroke-linejoin="miter" stroke-miterlimit="10" id="ygc82_4"/><path fill="rgb(0,0,0)" stroke="rgb(0,0,0)" d="M 0,0 L 10,-5 L 5,0 L 10,5 Z" fill-opacity="1" stroke-opacity="1" stroke-width="2" stroke-linecap="butt" stroke-linejoin="miter" stroke-miterlimit="10" id="ygc82_5"/><path fill="rgb(192,192,192)" stroke="rgb(192,192,192)" d="M 0,0 L 10,-5 L 5,0 L 10,5 Z" fill-opacity="1" stroke-opacity="1" stroke-width="1" stroke-linecap="butt" stroke-linejoin="miter" stroke-miterlimit="10" id="ygc82_6"/><path fill="rgb(0,0,0)" stroke="rgb(0,0,0)" d="M 0,0 L 10,-5 L 5,0 L 10,5 Z" fill-opacity="1" stroke-opacity="1" stroke-width="2" stroke-linecap="butt" stroke-linejoin="miter" stroke-miterlimit="10" id="ygc82_7"/><path fill="rgb(192,192,192)" stroke="rgb(192,192,192)" d="M 0,0 L 10,-5 L 5,0 L 10,5 Z" fill-opacity="1" stroke-opacity="1" stroke-width="1" stroke-linecap="butt" stroke-linejoin="miter" stroke-miterlimit="10" id="ygc82_8"/><path fill="rgb(0,0,0)" stroke="rgb(0,0,0)" d="M 0,0 L 10,-5 L 5,0 L 10,5 Z" fill-opacity="1" stroke-opacity="1" stroke-width="2" stroke-linecap="butt" stroke-linejoin="miter" stroke-miterlimit="10" id="ygc82_9"/><path fill="rgb(192,192,192)" stroke="rgb(192,192,192)" d="M 0,0 L 10,-5 L 5,0 L 10,5 Z" fill-opacity="1" stroke-opacity="1" stroke-width="1" stroke-linecap="butt" stroke-linejoin="miter" stroke-miterlimit="10" id="ygc82_10"/><path fill="rgb(192,192,192)" stroke="rgb(192,192,192)" d="M 0,0 L 10,-5 L 5,0 L 10,5 Z" fill-opacity="1" stroke-opacity="1" stroke-width="1" stroke-linecap="butt" stroke-linejoin="miter" stroke-miterlimit="10" id="ygc82_11"/><path fill="rgb(192,192,192)" stroke="rgb(192,192,192)" d="M 0,0 L 10,-5 L 5,0 L 10,5 Z" fill-opacity="1" stroke-opacity="1" stroke-width="1" stroke-linecap="butt" stroke-linejoin="miter" stroke-miterlimit="10" id="ygc82_12"/><path fill="rgb(192,192,192)" stroke="rgb(192,192,192)" d="M 0,0 L 10,-5 L 5,0 L 10,5 Z" fill-opacity="1" stroke-opacity="1" stroke-width="1" stroke-linecap="butt" stroke-linejoin="miter" stroke-miterlimit="10" id="ygc82_13"/><path fill="rgb(192,192,192)" stroke="rgb(192,192,192)" d="M 0,0 L 10,-5 L 5,0 L 10,5 Z" fill-opacity="1" stroke-opacity="1" stroke-width="1" stroke-linecap="butt" stroke-linejoin="miter" stroke-miterlimit="10" id="ygc82_14"/><path fill="rgb(192,192,192)" stroke="rgb(192,192,192)" d="M 0,0 L 10,-5 L 5,0 L 10,5 Z" fill-opacity="1" stroke-opacity="1" stroke-width="1" stroke-linecap="butt" stroke-linejoin="miter" stroke-miterlimit="10" id="ygc82_15"/><path fill="rgb(192,192,192)" stroke="rgb(192,192,192)" d="M 0,0 L 10,-5 L 5,0 L 10,5 Z" fill-opacity="1" stroke-opacity="1" stroke-width="1" stroke-linecap="butt" stroke-linejoin="miter" stroke-miterlimit="10" id="ygc82_16"/><path fill="rgb(192,192,192)" stroke="rgb(192,192,192)" d="M 0,0 L 10,-5 L 5,0 L 10,5 Z" fill-opacity="1" stroke-opacity="1" stroke-width="1" stroke-linecap="butt" stroke-linejoin="miter" stroke-miterlimit="10" id="ygc82_17"/><path fill="rgb(0,0,0)" stroke="rgb(0,0,0)" d="M 0,0 L 10,-5 L 5,0 L 10,5 Z" fill-opacity="1" stroke-opacity="1" stroke-width="2" stroke-linecap="butt" stroke-linejoin="miter" stroke-miterlimit="10" id="ygc82_18"/><path fill="rgb(0,0,0)" stroke="rgb(0,0,0)" d="M 0,0 L 10,-5 L 5,0 L 10,5 Z" fill-opacity="1" stroke-opacity="1" stroke-width="2" stroke-linecap="butt" stroke-linejoin="miter" stroke-miterlimit="10" id="ygc82_19"/><path fill="rgb(0,0,0)" stroke="rgb(0,0,0)" d="M 0,0 L 10,-5 L 5,0 L 10,5 Z" fill-opacity="1" stroke-opacity="1" stroke-width="2" stroke-linecap="butt" stroke-linejoin="miter" stroke-miterlimit="10" id="ygc82_20"/><path fill="rgb(0,0,0)" stroke="rgb(0,0,0)" d="M 0,0 L 10,-5 L 5,0 L 10,5 Z" fill-opacity="1" stroke-opacity="1" stroke-width="2" stroke-linecap="butt" stroke-linejoin="miter" stroke-miterlimit="10" id="ygc82_21"/><path fill="rgb(0,0,0)" stroke="rgb(0,0,0)" d="M 0,0 L 10,-5 L 5,0 L 10,5 Z" fill-opacity="1" stroke-opacity="1" stroke-width="2" stroke-linecap="butt" stroke-linejoin="miter" stroke-miterlimit="10" id="ygc82_22"/><path fill="rgb(0,0,0)" stroke="rgb(0,0,0)" d="M 0,0 L 10,-5 L 5,0 L 10,5 Z" fill-opacity="1" stroke-opacity="1" stroke-width="2" stroke-linecap="butt" stroke-linejoin="miter" stroke-miterlimit="10" id="ygc82_23"/><path fill="rgb(0,0,0)" stroke="rgb(0,0,0)" d="M 0,0 L 10,-5 L 5,0 L 10,5 Z" fill-opacity="1" stroke-opacity="1" stroke-width="2" stroke-linecap="butt" stroke-linejoin="miter" stroke-miterlimit="10" id="ygc82_24"/><path fill="rgb(0,0,0)" stroke="rgb(0,0,0)" d="M 0,0 L 10,-5 L 5,0 L 10,5 Z" fill-opacity="1" stroke-opacity="1" stroke-width="2" stroke-linecap="butt" stroke-linejoin="miter" stroke-miterlimit="10" id="ygc82_25"/><path fill="rgb(0,0,0)" stroke="rgb(0,0,0)" d="M 0,0 L 10,-5 L 5,0 L 10,5 Z" fill-opacity="1" stroke-opacity="1" stroke-width="2" stroke-linecap="butt" stroke-linejoin="miter" stroke-miterlimit="10" id="ygc82_26"/><path fill="rgb(0,0,0)" stroke="rgb(0,0,0)" d="M 0,0 L 10,-5 L 5,0 L 10,5 Z" fill-opacity="1" stroke-opacity="1" stroke-width="2" stroke-linecap="butt" stroke-linejoin="miter" stroke-miterlimit="10" id="ygc82_27"/><path fill="rgb(192,192,192)" stroke="rgb(192,192,192)" d="M 0,0 L 10,-5 L 5,0 L 10,5 Z" fill-opacity="1" stroke-opacity="1" stroke-width="1" stroke-linecap="butt" stroke-linejoin="miter" stroke-miterlimit="10" id="ygc82_28"/><path fill="rgb(192,192,192)" stroke="rgb(192,192,192)" d="M 0,0 L 10,-5 L 5,0 L 10,5 Z" fill-opacity="1" stroke-opacity="1" stroke-width="1" stroke-linecap="butt" stroke-linejoin="miter" stroke-miterlimit="10" id="ygc82_29"/><linearGradient x1="0" y1="0" x2="1" y2="1" spreadMethod="pad" id="ygc82_30"><stop stop-color="rgb(153,204,255)" stop-opacity="1" offset="0"/><stop stop-color="rgb(153,204,255)" stop-opacity="1" offset="1"/></linearGradient><linearGradient x1="0" y1="0" x2="1" y2="1" spreadMethod="pad" id="ygc82_31"><stop stop-color="rgb(153,204,255)" stop-opacity="1" offset="0"/><stop stop-color="rgb(153,204,255)" stop-opacity="1" offset="1"/></linearGradient><linearGradient x1="0" y1="0" x2="1" y2="1" spreadMethod="pad" id="ygc82_32"><stop stop-color="rgb(153,204,255)" stop-opacity="1" offset="0"/><stop stop-color="rgb(153,204,255)" stop-opacity="1" offset="1"/></linearGradient><linearGradient x1="0" y1="0" x2="1" y2="1" spreadMethod="pad" id="ygc82_33"><stop stop-color="rgb(153,204,255)" stop-opacity="1" offset="0"/><stop stop-color="rgb(153,204,255)" stop-opacity="1" offset="1"/></linearGradient><linearGradient x1="0" y1="0" x2="1" y2="1" spreadMethod="pad" id="ygc82_34"><stop stop-color="rgb(153,204,255)" stop-opacity="1" offset="0"/><stop stop-color="rgb(153,204,255)" stop-opacity="1" offset="1"/></linearGradient><linearGradient x1="0" y1="0" x2="1" y2="1" spreadMethod="pad" id="ygc82_35"><stop stop-color="rgb(153,204,255)" stop-opacity="1" offset="0"/><stop stop-color="rgb(153,204,255)" stop-opacity="1" offset="1"/></linearGradient><linearGradient x1="0" y1="0" x2="1" y2="1" spreadMethod="pad" id="ygc82_36"><stop stop-color="rgb(255,255,255)" stop-opacity="1" offset="0"/><stop stop-color="rgb(255,255,255)" stop-opacity="1" offset="1"/></linearGradient><linearGradient x1="0" y1="0" x2="1" y2="1" spreadMethod="pad" id="ygc82_37"><stop stop-color="rgb(255,255,255)" stop-opacity="1" offset="0"/><stop stop-color="rgb(255,255,255)" stop-opacity="1" offset="1"/></linearGradient><linearGradient x1="0" y1="0" x2="1" y2="1" spreadMethod="pad" id="ygc82_38"><stop stop-color="rgb(255,255,255)" stop-opacity="1" offset="0"/><stop stop-color="rgb(255,255,255)" stop-opacity="1" offset="1"/></linearGradient><linearGradient x1="0" y1="0" x2="1" y2="1" spreadMethod="pad" id="ygc82_39"><stop stop-color="rgb(255,255,255)" stop-opacity="1" offset="0"/><stop stop-color="rgb(255,255,255)" stop-opacity="1" offset="1"/></linearGradient><linearGradient x1="0" y1="0" x2="1" y2="1" spreadMethod="pad" id="ygc82_40"><stop stop-color="rgb(255,255,255)" stop-opacity="0.9019607843137255" offset="0"/><stop stop-color="rgb(212,212,212)" stop-opacity="0.8" offset="1"/></linearGradient><linearGradient x1="0" y1="0" x2="1" y2="1" spreadMethod="pad" id="ygc82_41"><stop stop-color="rgb(255,255,255)" stop-opacity="1" offset="0"/><stop stop-color="rgb(255,255,255)" stop-opacity="1" offset="1"/></linearGradient></defs><g style="pointer-events:visiblePainted" transform="translate(-1005.6156106474602 -291.59278591892723)" image-rendering="auto" shape-rendering="auto"><g style="box-sizing:initial;"><g><path fill="none" stroke="rgb(0,0,0)" d="M 1476,448 L 1476,479" stroke-opacity="1" stroke-width="2" stroke-linecap="butt" stroke-linejoin="miter" stroke-miterlimit="1.45"/><use style="pointer-events: none;" transform="matrix(0 -1 1 0 1476 484)" xlink:href="#ygc82_0"/></g><g><path fill="none" stroke="rgb(192,192,192)" d="M 1102.1678719999993,428 L 1430,428" stroke-opacity="1" stroke-width="1" stroke-dasharray="6,2" stroke-dashoffset="0" stroke-linecap="butt" stroke-linejoin="miter" stroke-miterlimit="1.45"/><use style="pointer-events: none;" transform="matrix(-1 0 0 -1 1435 428)" xlink:href="#ygc82_1"/></g><g><path fill="none" stroke="rgb(0,0,0)" d="M 1475.9999999999998,370 L 1476,401" stroke-opacity="1" stroke-width="2" stroke-linecap="butt" stroke-linejoin="miter" stroke-miterlimit="1.45"/><use style="pointer-events: none;" transform="matrix(-7.334634691717163e-15 -1 1 -7.334634691717163e-15 1476 406)" xlink:href="#ygc82_2"/></g><g><path fill="none" stroke="rgb(0,0,0)" d="M 1476,526 L 1476,557" stroke-opacity="1" stroke-width="2" stroke-linecap="butt" stroke-linejoin="miter" stroke-miterlimit="1.45"/><use style="pointer-events: none;" transform="matrix(0 -1 1 0 1476 562)" xlink:href="#ygc82_3"/></g><g><path fill="none" stroke="rgb(192,192,192)" d="M 1337.3183999999997,532.5212922795881 L 1388.1359999999997,506 L 1430,506" stroke-opacity="1" stroke-width="1" stroke-dasharray="6,2" stroke-dashoffset="0" stroke-linecap="butt" stroke-linejoin="miter" stroke-miterlimit="1.45"/><use style="pointer-events: none;" transform="matrix(-1 0 0 -1 1435 506)" xlink:href="#ygc82_4"/></g><g><path fill="none" stroke="rgb(0,0,0)" d="M 1476,604 L 1476,635" stroke-opacity="1" stroke-width="2" stroke-linecap="butt" stroke-linejoin="miter" stroke-miterlimit="1.45"/><use style="pointer-events: none;" transform="matrix(0 -1 1 0 1476 640)" xlink:href="#ygc82_5"/></g><g><path fill="none" stroke="rgb(192,192,192)" d="M 1337.3183999999997,541.6543999999998 L 1379.5343999999998,541.6543999999998 L 1399.1951999999997,584 L 1430,584" stroke-opacity="1" stroke-width="1" stroke-dasharray="6,2" stroke-dashoffset="0" stroke-linecap="butt" stroke-linejoin="miter" stroke-miterlimit="1.45"/><use style="pointer-events: none;" transform="matrix(-1 0 0 -1 1435 584)" xlink:href="#ygc82_6"/></g><g><path fill="none" stroke="rgb(0,0,0)" d="M 1476,682 L 1476,713" stroke-opacity="1" stroke-width="2" stroke-linecap="butt" stroke-linejoin="miter" stroke-miterlimit="1.45"/><use style="pointer-events: none;" transform="matrix(0 -1 1 0 1476 718)" xlink:href="#ygc82_7"/></g><g><path fill="none" stroke="rgb(192,192,192)" d="M 1337.3183999999997,559.2671999999999 L 1348.4867199999999,559.2671999999999 L 1403.2911999999997,662 L 1430,662" stroke-opacity="1" stroke-width="1" stroke-dasharray="6,2" stroke-dashoffset="0" stroke-linecap="butt" stroke-linejoin="miter" stroke-miterlimit="1.45"/><use style="pointer-events: none;" transform="matrix(-1 0 0 -1 1435 662)" xlink:href="#ygc82_8"/></g><g><path fill="none" stroke="rgb(0,0,0)" d="M 1476,760 L 1476,791" stroke-opacity="1" stroke-width="2" stroke-linecap="butt" stroke-linejoin="miter" stroke-miterlimit="1.45"/><use style="pointer-events: none;" transform="matrix(0 -1 1 0 1476 796)" xlink:href="#ygc82_9"/></g><g><path fill="none" stroke="rgb(192,192,192)" d="M 1339.0775679999992,740 L 1430,740" stroke-opacity="1" stroke-width="1" stroke-dasharray="6,2" stroke-dashoffset="0" stroke-linecap="butt" stroke-linejoin="miter" stroke-miterlimit="1.45"/><use style="pointer-events: none;" transform="matrix(-1 0 0 -1 1435 740)" xlink:href="#ygc82_10"/></g><g><path fill="none" stroke="rgb(192,192,192)" d="M 1220.265759999999,818 L 1430,818" stroke-opacity="1" stroke-width="1" stroke-dasharray="6,2" stroke-dashoffset="0" stroke-linecap="butt" stroke-linejoin="miter" stroke-miterlimit="1.45"/><use style="pointer-events: none;" transform="matrix(-1 0 0 -1 1435 818)" xlink:href="#ygc82_11"/></g><g><path fill="none" stroke="rgb(192,192,192)" d="M 1220.265759999999,743.9785422876759 L 1295.9055725306396,809.7389566355229 L 1430,809.7389566355229" stroke-opacity="1" stroke-width="1" stroke-dasharray="6,2" stroke-dashoffset="0" stroke-linecap="butt" stroke-linejoin="miter" stroke-miterlimit="1.45"/><use style="pointer-events: none;" transform="matrix(-1 0 0 -1 1435 809.7389566355229)" xlink:href="#ygc82_12"/></g><g><path fill="none" stroke="rgb(192,192,192)" d="M 1212.765759999999,541.6543999999998 L 1296.3183999999997,541.6543999999998" stroke-opacity="1" stroke-width="1" stroke-dasharray="6,2" stroke-dashoffset="0" stroke-linecap="butt" stroke-linejoin="miter" stroke-miterlimit="1.45"/><use style="pointer-events: none;" transform="matrix(-1 0 0 -1 1301.3183999999997 541.6543999999998)" xlink:href="#ygc82_13"/></g><g><path fill="none" stroke="rgb(192,192,192)" d="M 1102.1678719999993,740 L 1154.265759999999,740" stroke-opacity="1" stroke-width="1" stroke-dasharray="6,2" stroke-dashoffset="0" stroke-linecap="butt" stroke-linejoin="miter" stroke-miterlimit="1.45"/><use style="pointer-events: none;" transform="matrix(-1 0 0 -1 1159.265759999999 740)" xlink:href="#ygc82_14"/></g><g><path fill="none" stroke="rgb(192,192,192)" d="M 1220.265759999999,740 L 1298.0775679999992,740" stroke-opacity="1" stroke-width="1" stroke-dasharray="6,2" stroke-dashoffset="0" stroke-linecap="butt" stroke-linejoin="miter" stroke-miterlimit="1.45"/><use style="pointer-events: none;" transform="matrix(-1 0 0 -1 1303.0775679999992 740)" xlink:href="#ygc82_15"/></g><g><path fill="none" stroke="rgb(192,192,192)" d="M 1102.1678719999993,752.9744382355228 L 1115.9884653306394,752.9744382355228 L 1139.2537453306395,818 L 1154.265759999999,818" stroke-opacity="1" stroke-width="1" stroke-dasharray="6,2" stroke-dashoffset="0" stroke-linecap="butt" stroke-linejoin="miter" stroke-miterlimit="1.45"/><use style="pointer-events: none;" transform="matrix(-1 0 0 -1 1159.265759999999 818)" xlink:href="#ygc82_16"/></g><g><path fill="none" stroke="rgb(192,192,192)" d="M 1102.1678719999993,727.0877182355227 L 1118.9375853306394,727.0877182355227 L 1140.8921453306396,633.4844799999998 L 1154.265759999999,633.4844799999998" stroke-opacity="1" stroke-width="1" stroke-dasharray="6,2" stroke-dashoffset="0" stroke-linecap="butt" stroke-linejoin="miter" stroke-miterlimit="1.45"/><use style="pointer-events: none;" transform="matrix(-1 0 0 -1 1159.265759999999 633.4844799999998)" xlink:href="#ygc82_17"/></g><g><path fill="none" stroke="rgb(0,0,0)" d="M 1543.3743999999997,415 L 1543.3743999999997,597" stroke-opacity="1" stroke-width="2" stroke-linecap="butt" stroke-linejoin="miter" stroke-miterlimit="1.45"/><use style="pointer-events: none;" transform="matrix(0 -1 1 0 1543.3743999999997 602)" xlink:href="#ygc82_18"/><use style="pointer-events: none;" transform="matrix(0 1 -1 0 1543.3743999999997 410)" xlink:href="#ygc82_19"/></g><g><path fill="none" stroke="rgb(0,0,0)" d="M 1564.5232168328832,415.00531957534406 L 1564.5232168328832,675" stroke-opacity="1" stroke-width="2" stroke-linecap="butt" stroke-linejoin="miter" stroke-miterlimit="1.45"/><use style="pointer-events: none;" transform="matrix(0 -1 1 0 1564.5232168328832 680)" xlink:href="#ygc82_20"/><use style="pointer-events: none;" transform="matrix(0 1 -1 0 1564.5232168328832 410.00531957534406)" xlink:href="#ygc82_21"/></g><g><path fill="none" stroke="rgb(0,0,0)" d="M 1541.7359999999996,648.1328 L 1541.7359999999996,832.011550697554" stroke-opacity="1" stroke-width="2" stroke-linecap="butt" stroke-linejoin="miter" stroke-miterlimit="1.45"/><use style="pointer-events: none;" transform="matrix(0 -1 1 0 1541.7359999999996 837.011550697554)" xlink:href="#ygc82_22"/><use style="pointer-events: none;" transform="matrix(0 1 -1 0 1541.7359999999996 643.1328)" xlink:href="#ygc82_23"/></g><g><path fill="none" stroke="rgb(0,0,0)" d="M 1603.3602401557332,570.1328 L 1603.3602401557332,597.2077182355229" stroke-opacity="1" stroke-width="2" stroke-linecap="butt" stroke-linejoin="miter" stroke-miterlimit="1.45"/><use style="pointer-events: none;" transform="matrix(0 -1 1 0 1603.3602401557332 602.2077182355229)" xlink:href="#ygc82_24"/><use style="pointer-events: none;" transform="matrix(0 1 -1 0 1603.3602401557332 565.1328)" xlink:href="#ygc82_25"/></g><g><path fill="none" stroke="rgb(0,0,0)" d="M 1586.8646253306395,570.1328 L 1586.8646253306395,832.011550697554" stroke-opacity="1" stroke-width="2" stroke-linecap="butt" stroke-linejoin="miter" stroke-miterlimit="1.45"/><use style="pointer-events: none;" transform="matrix(0 -1 1 0 1586.8646253306395 837.011550697554)" xlink:href="#ygc82_26"/><use style="pointer-events: none;" transform="matrix(0 1 -1 0 1586.8646253306395 565.1328)" xlink:href="#ygc82_27"/></g><g><path fill="none" stroke="rgb(192,192,192)" d="M 1190.265759999999,618.0649599999999 L 1190.265759999999,570.1543999999998" stroke-opacity="1" stroke-width="1" stroke-dasharray="6,2" stroke-dashoffset="0" stroke-linecap="butt" stroke-linejoin="miter" stroke-miterlimit="1.45"/><use style="pointer-events: none;" transform="matrix(0 1 -1 0 1190.265759999999 565.1543999999998)" xlink:href="#ygc82_28"/></g><g><path fill="none" stroke="rgb(192,192,192)" d="M 1102.167871999999,541.6543999999998 L 1161.765759999999,541.6543999999998" stroke-opacity="1" stroke-width="1" stroke-dasharray="6,2" stroke-dashoffset="0" stroke-linecap="butt" stroke-linejoin="miter" stroke-miterlimit="1.45"/><use style="pointer-events: none;" transform="matrix(-1 0 0 -1 1166.765759999999 541.6543999999998)" xlink:href="#ygc82_29"/></g><g><path d="M 1436,408 L 1516,408 L 1516,448 L 1436,448 Z" stroke="rgb(0,0,0)" stroke-opacity="1" stroke-width="1" stroke-linecap="butt" stroke-linejoin="miter" stroke-miterlimit="1.45" fill="url(#ygc82_30)"/></g><g transform="translate(1458.5398788452148 411.65588569641113)"><text font-family="Arial" font-size="12px" font-style="normal" font-weight="normal" text-decoration="none" text-anchor="middle" fill="rgb(0,0,0)" fill-opacity="1" transform="translate(18.5 0)"><tspan dy="0.9166666666666666em" x="0">BL1</tspan><tspan dy="1.5em" x="0">(ROM)</tspan></text></g><g><path d="M 1436,486 L 1516,486 L 1516,526 L 1436,526 Z" stroke="rgb(0,0,0)" stroke-opacity="1" stroke-width="1" stroke-linecap="butt" stroke-linejoin="miter" stroke-miterlimit="1.45" fill="url(#ygc82_31)"/></g><g transform="translate(1465.5239334106445 497.82794284820557)"><text font-family="Arial" font-size="12px" font-style="normal" font-weight="normal" text-decoration="none" text-anchor="middle" fill="rgb(0,0,0)" fill-opacity="1" dy="0.9166666666666666em" transform="translate(11 0)">BL2</text></g><g><path d="M 1436,564 L 1516,564 L 1516,604 L 1436,604 Z" stroke="rgb(0,0,0)" stroke-opacity="1" stroke-width="1" stroke-linecap="butt" stroke-linejoin="miter" stroke-miterlimit="1.45" fill="url(#ygc82_32)"/></g><g transform="translate(1462.091911315918 575.8279428482056)"><text font-family="Arial" font-size="12px" font-style="normal" font-weight="normal" text-decoration="none" text-anchor="middle" fill="rgb(0,0,0)" fill-opacity="1" dy="0.9166666666666666em" transform="translate(14.5 0)">BL31</text></g><g><path d="M 1436,642 L 1516,642 L 1516,682 L 1436,682 Z" stroke="rgb(0,0,0)" stroke-opacity="1" stroke-width="1" stroke-linecap="butt" stroke-linejoin="miter" stroke-miterlimit="1.45" fill="url(#ygc82_33)"/></g><g transform="translate(1454.6878509521484 645.6558856964111)"><text font-family="Arial" font-size="12px" font-style="normal" font-weight="normal" text-decoration="none" text-anchor="middle" fill="rgb(0,0,0)" fill-opacity="1" transform="translate(21 0)"><tspan dy="0.9166666666666666em" x="0">BL33</tspan><tspan dy="1.5em" x="0">(UBoot)</tspan></text></g><g><path d="M 1436,720 L 1516,720 L 1516,760 L 1436,760 Z" stroke="rgb(0,0,0)" stroke-opacity="1" stroke-width="1" stroke-linecap="butt" stroke-linejoin="miter" stroke-miterlimit="1.45" fill="url(#ygc82_34)"/></g><g transform="translate(1441.4577713012695 723.6558856964111)"><text font-family="Arial" font-size="12px" font-style="normal" font-weight="normal" text-decoration="none" text-anchor="middle" fill="rgb(0,0,0)" fill-opacity="1" transform="translate(34.5 0)"><tspan dy="0.9166666666666666em" x="0">Linux + DT +</tspan><tspan dy="1.5em" x="0">Initrd</tspan></text></g><g><path d="M 1436,798 L 1516,798 L 1516,838 L 1436,838 Z" stroke="rgb(0,0,0)" stroke-opacity="1" stroke-width="1" stroke-linecap="butt" stroke-linejoin="miter" stroke-miterlimit="1.45" fill="url(#ygc82_35)"/></g><g transform="translate(1447.679786682129 809.8279428482056)"><text font-family="Arial" font-size="12px" font-style="normal" font-weight="normal" text-decoration="none" text-anchor="middle" fill="rgb(0,0,0)" fill-opacity="1" dy="0.9166666666666666em" transform="translate(26.5 0)">Full rootfs</text></g><g transform="translate(1302.3183999999997 514.1543999999998)"><g transform="translate(0 0)"><path d="M 0 0&#xA;       L 21 0&#xA;       L 35 14&#xA;       L 35 55&#xA;       L 0 55&#xA;       Z" stroke="rgb(0,0,0)" stroke-opacity="1" stroke-width="1" stroke-linecap="butt" stroke-linejoin="miter" stroke-miterlimit="10" fill="rgb(255,255,153)" fill-opacity="1"/><path d="M 21 0&#xA;       L 21 14&#xA;       L 35 14" stroke="rgb(0,0,0)" stroke-opacity="1" stroke-width="1" stroke-linecap="butt" stroke-linejoin="miter" stroke-miterlimit="10" fill="rgb(255,255,153)" fill-opacity="1"/></g></g><g transform="translate(1311.0403390869137 533.4823428482053)"><text font-family="Arial" font-size="12px" font-style="normal" font-weight="normal" text-decoration="none" text-anchor="middle" fill="rgb(0,0,0)" fill-opacity="1" dy="0.9166666666666666em" transform="translate(9.5 0)">FIP</text></g><g><path d="M 1160.265759999999,729.72032 C 1162.065759999999,722.8672 1218.4657599999991,722.8672 1220.265759999999,729.72032 L 1220.265759999999,750.2796799999999 C 1218.4657599999991,757.1327999999999 1162.065759999999,757.1327999999999 1160.265759999999,750.2796799999999 Z" stroke="rgb(0,0,0)" stroke-opacity="1" stroke-width="1" stroke-linecap="butt" stroke-linejoin="miter" stroke-miterlimit="1.45" fill="url(#ygc82_36)"/><path d="M 1220.265759999999,729.72032 C 1218.4657599999991,736.57344 1162.065759999999,736.57344 1160.265759999999,729.72032" stroke="rgb(0,0,0)" stroke-opacity="1" stroke-width="1" stroke-linecap="butt" stroke-linejoin="miter" stroke-miterlimit="1.45" fill="url(#ygc82_36)"/></g><g transform="translate(1165.9655891015616 755.1796815351257)"><text font-family="Arial" font-size="12px" font-style="normal" font-weight="normal" text-decoration="none" text-anchor="middle" fill="rgb(0,0,0)" fill-opacity="1" transform="translate(21.5 0)"><tspan dy="0.9166666666666666em" x="0">ext4</tspan><tspan dy="1.5em" x="0">partition</tspan></text></g><g transform="translate(1042.1678719999993 712.5)"><g transform="translate(0 0)"><path d="M 0,6.875 L 0,48.125 C 0,55 60,55 60,48.125 L 60,6.875 C 60,0 0,0 0,6.875 Z" stroke="rgb(0,0,0)" stroke-opacity="1" stroke-width="1" stroke-linecap="butt" stroke-linejoin="miter" stroke-miterlimit="10" fill="rgb(255,255,255)" fill-opacity="0.9019607843137255" transform="translate(0 0)"/><path d="M 0,6.875 C 0,13.75 60,13.75 60,6.875 M 0,10.725 C 0,17.6 60,17.6 60,10.725 M 0,14.575000000000001 C 0,21.45 60,21.45 60,14.575000000000001" stroke="rgb(0,0,0)" stroke-opacity="1" stroke-width="1" stroke-linecap="butt" stroke-linejoin="miter" stroke-miterlimit="10" fill="rgb(255,255,255)" fill-opacity="0" transform="translate(0 0)"/></g></g><g transform="translate(1054.107737112304 773.5)"><text font-family="Arial" font-size="12px" font-style="normal" font-weight="normal" text-decoration="none" text-anchor="middle" fill="rgb(0,0,0)" fill-opacity="1" dy="0.9166666666666666em" transform="translate(18 0)">eMMC</text></g><g transform="translate(1304.0775679999992 712.5)"><g transform="translate(0 0)"><path d="M 0 0&#xA;       L 21 0&#xA;       L 35 14&#xA;       L 35 55&#xA;       L 0 55&#xA;       Z" stroke="rgb(0,0,0)" stroke-opacity="1" stroke-width="1" stroke-linecap="butt" stroke-linejoin="miter" stroke-miterlimit="10" fill="rgb(204,255,255)" fill-opacity="1"/><path d="M 21 0&#xA;       L 21 14&#xA;       L 35 14" stroke="rgb(0,0,0)" stroke-opacity="1" stroke-width="1" stroke-linecap="butt" stroke-linejoin="miter" stroke-miterlimit="10" fill="rgb(204,255,255)" fill-opacity="1"/></g></g><g transform="translate(1313.0935134345696 731.8279428482056)"><text font-family="Arial" font-size="12px" font-style="normal" font-weight="normal" text-decoration="none" text-anchor="middle" fill="rgb(0,0,0)" fill-opacity="1" dy="0.9166666666666666em" transform="translate(9.5 0)">FIT</text></g><g><path d="M 1160.265759999999,807.72032 C 1162.065759999999,800.8672 1218.4657599999991,800.8672 1220.265759999999,807.72032 L 1220.265759999999,828.2796799999999 C 1218.4657599999991,835.1327999999999 1162.065759999999,835.1327999999999 1160.265759999999,828.2796799999999 Z" stroke="rgb(0,0,0)" stroke-opacity="1" stroke-width="1" stroke-linecap="butt" stroke-linejoin="miter" stroke-miterlimit="1.45" fill="url(#ygc82_37)"/><path d="M 1220.265759999999,807.72032 C 1218.4657599999991,814.57344 1162.065759999999,814.57344 1160.265759999999,807.72032" stroke="rgb(0,0,0)" stroke-opacity="1" stroke-width="1" stroke-linecap="butt" stroke-linejoin="miter" stroke-miterlimit="1.45" fill="url(#ygc82_37)"/></g><g transform="translate(1165.9655891015616 833.1796815351256)"><text font-family="Arial" font-size="12px" font-style="normal" font-weight="normal" text-decoration="none" text-anchor="middle" fill="rgb(0,0,0)" fill-opacity="1" transform="translate(21.5 0)"><tspan dy="0.9166666666666666em" x="0">ext4</tspan><tspan dy="1.5em" x="0">partition</tspan></text></g><g><path d="M 1042.1678719999993,416 C 1043.9678719999993,408 1100.3678719999994,408 1102.1678719999993,416 L 1102.1678719999993,440 C 1100.3678719999994,448 1043.9678719999993,448 1042.1678719999993,440 Z" stroke="rgb(0,0,0)" stroke-opacity="1" stroke-width="1" stroke-linecap="butt" stroke-linejoin="miter" stroke-miterlimit="1.45" fill="url(#ygc82_38)"/><path d="M 1102.1678719999993,416 C 1100.3678719999994,424 1043.9678719999993,424 1042.1678719999993,416" stroke="rgb(0,0,0)" stroke-opacity="1" stroke-width="1" stroke-linecap="butt" stroke-linejoin="miter" stroke-miterlimit="1.45" fill="url(#ygc82_38)"/></g><g transform="translate(1035.6156106474602 447.8079428482057)"><text font-family="Arial" font-size="12px" font-style="normal" font-weight="normal" text-decoration="none" text-anchor="middle" fill="rgb(0,0,0)" fill-opacity="1" dy="0.9166666666666666em" transform="translate(36.5 0)">OnChip ROM</text></g><g><path d="M 1516,368 L 1596,368 L 1596,408 L 1516,408 Z" stroke="rgb(255,255,255)" stroke-opacity="0" stroke-width="1" stroke-linecap="butt" stroke-linejoin="miter" stroke-miterlimit="10" fill="rgb(255,255,255)" fill-opacity="0"/></g><g transform="translate(1556 388)"/><g><path d="M 1516,682 L 1596,682 L 1596,722 L 1516,722 Z" stroke="rgb(255,255,255)" stroke-opacity="0" stroke-width="1" stroke-linecap="butt" stroke-linejoin="miter" stroke-miterlimit="10" fill="rgb(255,255,255)" fill-opacity="0"/></g><g transform="translate(1556 702)"/><g><path d="M 1516,604 L 1596,604 L 1596,641.1328 L 1516,641.1328 Z" stroke="rgb(255,255,255)" stroke-opacity="0" stroke-width="1" stroke-linecap="butt" stroke-linejoin="miter" stroke-miterlimit="10" fill="rgb(255,255,255)" fill-opacity="0"/></g><g transform="translate(1556 622.5663999999999)"/><g><path d="M 1516,526.8589934592 L 1628.7155711999999,526.8589934592 L 1628.7155711999999,563.1328 L 1516,563.1328 Z" stroke="rgb(255,255,255)" stroke-opacity="0" stroke-width="1" stroke-linecap="butt" stroke-linejoin="miter" stroke-miterlimit="10" fill="rgb(255,255,255)" fill-opacity="0"/></g><g transform="translate(1572.3577856 544.9958967296)"/><g><path d="M 1516.3518437208882,839.011550697554 L 1629.067414920888,839.011550697554 L 1629.067414920888,876.1443506975539 L 1516.3518437208882,876.1443506975539 Z" stroke="rgb(255,255,255)" stroke-opacity="0" stroke-width="1" stroke-linecap="butt" stroke-linejoin="miter" stroke-miterlimit="10" fill="rgb(255,255,255)" fill-opacity="0"/></g><g transform="translate(1572.709629320888 857.5779506975539)"/><g><path d="M 1160.265759999999,623.2048 C 1162.065759999999,616.35168 1218.4657599999991,616.35168 1220.265759999999,623.2048 L 1220.265759999999,643.7641599999998 C 1218.4657599999991,650.6172799999998 1162.065759999999,650.6172799999998 1160.265759999999,643.7641599999998 Z" stroke="rgb(0,0,0)" stroke-opacity="1" stroke-width="1" stroke-linecap="butt" stroke-linejoin="miter" stroke-miterlimit="1.45" fill="url(#ygc82_39)"/><path d="M 1220.265759999999,623.2048 C 1218.4657599999991,630.05792 1162.065759999999,630.05792 1160.265759999999,623.2048" stroke="rgb(0,0,0)" stroke-opacity="1" stroke-width="1" stroke-linecap="butt" stroke-linejoin="miter" stroke-miterlimit="1.45" fill="url(#ygc82_39)"/></g><g transform="translate(1165.9655891015616 648.6641615351256)"><text font-family="Arial" font-size="12px" font-style="normal" font-weight="normal" text-decoration="none" text-anchor="middle" fill="rgb(0,0,0)" fill-opacity="1" transform="translate(21.5 0)"><tspan dy="0.9166666666666666em" x="0">raw</tspan><tspan dy="1.5em" x="0">partition</tspan></text></g><g transform="translate(1167.765759999999 519.1543999999998)"><path d="M 22.5,0 L 45,22.5 L 22.5,45 L 0,22.5 Z" stroke="rgb(227,139,0)" stroke-opacity="1" stroke-width="1" stroke-linecap="butt" stroke-linejoin="miter" stroke-miterlimit="10" fill="rgb(255,255,255)" fill-opacity="0.9019607843137255" transform="translate(0 0)"/></g><g transform="translate(1184.1577125146475 533.4823428482053)"><text font-family="Arial" font-size="12px" font-style="normal" font-weight="normal" text-decoration="none" text-anchor="middle" fill="rgb(0,0,0)" fill-opacity="1" dy="0.9166666666666666em" transform="translate(5.5 0)">or</text></g><g transform="translate(1460.9999999999998 340)"><g transform="translate(0 0)"><path d="M 15,30 C 6.71572875253809,30 0,23.284271247461913 0,15 C 0,6.71572875253809 6.71572875253809,0 15,0 C 23.284271247461913,0 30,6.71572875253809 30,15 C 30,23.284271247461913 23.284271247461913,30 15,30 Z" stroke="rgb(39,174,39)" stroke-opacity="1" stroke-width="1" stroke-linecap="butt" stroke-linejoin="miter" stroke-miterlimit="10" fill="url(#ygc82_40)" transform="translate(0 0)"/><path d="M 18.446399999999997,3.1536 L 12.614399999999998,11.8584 L 8.315999999999999,5.183999999999999 L 3.1536,18.446399999999997 L 8.985599999999998,9.7416 L 13.283999999999999,16.415999999999997 Z" stroke="rgb(0,0,0)" stroke-opacity="1" stroke-width="1" stroke-linecap="butt" stroke-linejoin="miter" stroke-miterlimit="10" fill="rgb(255,255,255)" fill-opacity="0" transform="translate(4.199999999999999 4.199999999999999)"/></g></g><g transform="translate(1475.9999999999998 376)"/><g><path d="M 1042.167871999999,529.6543999999998 C 1043.967871999999,521.6543999999998 1100.3678719999991,521.6543999999998 1102.167871999999,529.6543999999998 L 1102.167871999999,553.6543999999998 C 1100.3678719999991,561.6543999999998 1043.967871999999,561.6543999999998 1042.167871999999,553.6543999999998 Z" stroke="rgb(0,0,0)" stroke-opacity="1" stroke-width="1" stroke-linecap="butt" stroke-linejoin="miter" stroke-miterlimit="1.45" fill="url(#ygc82_41)"/><path d="M 1102.167871999999,529.6543999999998 C 1100.3678719999991,537.6543999999998 1043.967871999999,537.6543999999998 1042.167871999999,529.6543999999998" stroke="rgb(0,0,0)" stroke-opacity="1" stroke-width="1" stroke-linecap="butt" stroke-linejoin="miter" stroke-miterlimit="1.45" fill="url(#ygc82_41)"/></g><g transform="translate(1059.1897759916983 561.4623428482055)"><text font-family="Arial" font-size="12px" font-style="normal" font-weight="normal" text-decoration="none" text-anchor="middle" fill="rgb(0,0,0)" fill-opacity="1" dy="0.9166666666666666em" transform="translate(13.5 0)">NOR</text></g><g transform="matrix(6.123233995736766e-17 1 -1 6.123233995736766e-17 1557.1661863515621 452.6564097280525)"><text font-family="Arial" font-size="10px" font-style="normal" font-weight="normal" text-decoration="none" text-anchor="middle" fill="rgb(0,0,0)" fill-opacity="1" dy="1em" transform="translate(54.5 0)">Buildt from TFA Sources</text></g><g transform="matrix(6.123233995736766e-17 1 -1 6.123233995736766e-17 1577.7907283063917 449.83618314912167)"><text font-family="Arial" font-size="10px" font-style="normal" font-weight="normal" text-decoration="none" text-anchor="middle" fill="rgb(0,0,0)" fill-opacity="1" dy="1em" transform="translate(100 0)">Authenticated and optional encrypted by TFA</text></g><g transform="matrix(6.123233995736766e-17 1 -1 6.123233995736766e-17 1495.7968 466.1535019985465)"/><g transform="matrix(6.123233995736766e-17 1 -1 6.123233995736766e-17 1495.7968 544.1535019985465)"/><g transform="matrix(6.123233995736766e-17 1 -1 6.123233995736766e-17 1495.7968 622.1535019985465)"/><g transform="matrix(6.123233995736766e-17 1 -1 6.123233995736766e-17 1495.7968 700.1535019985465)"/><g transform="matrix(6.123233995736766e-17 1 -1 6.123233995736766e-17 1495.7968 778.1535019985465)"/><g transform="translate(1358.122979101562 495.0068269475569)"><text font-family="Arial" font-size="8px" font-style="normal" font-weight="normal" text-decoration="none" text-anchor="middle" fill="rgb(0,0,0)" fill-opacity="1" transform="translate(30 0)"><tspan dy="1em" x="0">BL2 is relocated</tspan><tspan dy="1.5em" x="0">to SRAM by BL1</tspan></text></g><g transform="translate(1351.396400630239 531.6539985662251)"><text font-family="Arial" font-size="8px" font-style="normal" font-weight="normal" text-decoration="none" text-anchor="middle" fill="rgb(0,0,0)" fill-opacity="1" transform="translate(41 0)"><tspan dy="1em" x="0">BL31 is relocated to</tspan><tspan dy="1.5em" x="0">encrypted DDR by BL2</tspan></text></g><g transform="translate(1337.266519455283 608.4455634981257)"><text font-family="Arial" font-size="8px" font-style="normal" font-weight="normal" text-decoration="none" text-anchor="middle" fill="rgb(0,0,0)" fill-opacity="1" transform="translate(46.5 0)"><tspan dy="1em" x="0">BL33 is relocated to</tspan><tspan dy="1.5em" x="0">DDR by BL2, and invoked</tspan><tspan dy="1.5em" x="0">by BL31</tspan></text></g><g transform="translate(1129.6378555586832 722.2031999999999)"/><g transform="translate(1140.6233819565166 774.6830965397262)"/><g transform="translate(1274.1225000140123 795)"><text font-family="Arial" font-size="8px" font-style="normal" font-weight="normal" text-decoration="none" text-anchor="middle" fill="rgb(0,0,0)" fill-opacity="1" transform="translate(62.5 0)"><tspan dy="1em" x="0">Kernel cmd-line can request the</tspan><tspan dy="1.5em" x="0">kernel to mount the rootfs, or</tspan><tspan dy="1.5em" x="0">the initrd program can do the</tspan><tspan dy="1.5em" x="0">mounting of one or more partitions.</tspan></text></g><g transform="translate(1228.1626311450177 717)"><text font-family="Arial" font-size="8px" font-style="normal" font-weight="normal" text-decoration="none" text-anchor="middle" fill="rgb(0,0,0)" fill-opacity="1" transform="translate(32 0)"><tspan dy="1em" x="0">By default the FIT</tspan><tspan dy="1.5em" x="0">image is stored</tspan><tspan dy="1.5em" x="0">as a normal file</tspan><tspan dy="1.5em" x="0">in the ROOTFS.</tspan></text></g><g transform="translate(1353.5544544947577 716.2980480000001)"><text font-family="Arial" font-size="8px" font-style="normal" font-weight="normal" text-decoration="none" text-anchor="middle" fill="rgb(0,0,0)" fill-opacity="1" transform="translate(30.5 0)"><tspan dy="1em" x="0">Kernel, DT and</tspan><tspan dy="1.5em" x="0">initrd is relocated</tspan><tspan dy="1.5em" x="0">in DDR by UBoot</tspan></text></g><g transform="translate(1229.876007730701 404.2031999999999)"><text font-family="Arial" font-size="8px" font-style="normal" font-weight="normal" text-decoration="none" text-anchor="middle" fill="rgb(0,0,0)" fill-opacity="1" transform="translate(30 0)"><tspan dy="1em" x="0">Execute in-place</tspan><tspan dy="1.5em" x="0">from ROM</tspan></text></g><g transform="matrix(6.123233995736766e-17 1 -1 6.123233995736766e-17 1556.0521020859376 702.62962758793)"><text font-family="Arial" font-size="10px" font-style="normal" font-weight="normal" text-decoration="none" text-anchor="middle" fill="rgb(0,0,0)" fill-opacity="1" dy="1em" transform="translate(44.5 0)">Buildt from buildroot</text></g><g transform="matrix(6.123233995736766e-17 1 -1 6.123233995736766e-17 1601.704978637841 644.7238211180987)"><text font-family="Arial" font-size="10px" font-style="normal" font-weight="normal" text-decoration="none" text-anchor="middle" fill="rgb(0,0,0)" fill-opacity="1" dy="1em" transform="translate(62 0)">Running from DDR memory</text></g><g transform="matrix(6.123233995736766e-17 1 -1 6.123233995736766e-17 1622.293112915987 558.8264455768661)"><text font-family="Arial" font-size="10px" font-style="normal" font-weight="normal" text-decoration="none" text-anchor="middle" fill="rgb(0,0,0)" fill-opacity="1" dy="1em" transform="translate(35 0)">Encrypted DDR</text></g><g transform="translate(1228.5538116796859 518.6543810546871)"><text font-family="Arial" font-size="8px" font-style="normal" font-weight="normal" text-decoration="none" text-anchor="middle" fill="rgb(0,0,0)" fill-opacity="1" transform="translate(29 0)"><tspan dy="1em" x="0">Depending on</tspan><tspan dy="1.5em" x="0">strapping, FIP is</tspan><tspan dy="1.5em" x="0">loaded from SD,</tspan><tspan dy="1.5em" x="0">eMMC or NOR</tspan></text></g><g transform="translate(1190.2657729296857 604.3119036718749)"/><g transform="translate(1114.3478230691212 722.0877289515142)"/><g transform="translate(1302.2741098226725 804.7503968724174)"/><g transform="translate(1418.12752 321.59278591892723)"><text font-family="Arial" font-size="12px" font-style="normal" font-weight="normal" text-decoration="none" text-anchor="middle" fill="rgb(0,0,0)" fill-opacity="1" dy="0.9166666666666666em" transform="translate(51.5 0)">Power on (or reset)</text></g><g transform="translate(1160.7511368828107 536.6543810546871)"/></g></g></svg>