<?xml version="1.0" encoding="UTF-8"?><svg xmlns="http://www.w3.org/2000/svg" xmlns:xlink="http://www.w3.org/1999/xlink" fill-opacity="1" color-rendering="auto" color-interpolation="auto" text-rendering="auto" stroke="black" stroke-linecap="square" width="752" stroke-miterlimit="10" shape-rendering="auto" stroke-opacity="1" fill="black" stroke-dasharray="none" font-weight="normal" stroke-width="1" height="786" font-family="'Dialog'" font-style="normal" stroke-linejoin="miter" font-size="12px" stroke-dashoffset="0" image-rendering="auto">
  <!--Generated by ySVG 2.5-->
  <defs id="genericDefs"/>
  <g>
    <defs id="defs1">
      <linearGradient x1="827" gradientUnits="userSpaceOnUse" x2="971" y1="375" y2="423" id="linearGradient1" spreadMethod="reflect">
        <stop stop-opacity="1" stop-color="rgb(232,238,247)" offset="0%"/>
        <stop stop-opacity="1" stop-color="rgb(183,201,227)" offset="100%"/>
      </linearGradient>
      <linearGradient x1="859" gradientUnits="userSpaceOnUse" x2="939" y1="460" y2="500" id="linearGradient2" spreadMethod="reflect">
        <stop stop-opacity="1" stop-color="rgb(232,238,247)" offset="0%"/>
        <stop stop-opacity="1" stop-color="rgb(183,201,227)" offset="100%"/>
      </linearGradient>
      <linearGradient x1="1085" gradientUnits="userSpaceOnUse" x2="1235" y1="460" y2="500" id="linearGradient3" spreadMethod="reflect">
        <stop stop-opacity="1" stop-color="rgb(232,238,247)" offset="0%"/>
        <stop stop-opacity="1" stop-color="rgb(183,201,227)" offset="100%"/>
      </linearGradient>
      <linearGradient x1="554" gradientUnits="userSpaceOnUse" x2="704" y1="460" y2="500" id="linearGradient4" spreadMethod="reflect">
        <stop stop-opacity="1" stop-color="rgb(232,238,247)" offset="0%"/>
        <stop stop-opacity="1" stop-color="rgb(183,201,227)" offset="100%"/>
      </linearGradient>
      <linearGradient x1="554" gradientUnits="userSpaceOnUse" x2="704" y1="530" y2="662" id="linearGradient5" spreadMethod="reflect">
        <stop stop-opacity="1" stop-color="rgb(232,238,247)" offset="0%"/>
        <stop stop-opacity="1" stop-color="rgb(183,201,227)" offset="100%"/>
      </linearGradient>
      <linearGradient x1="1085" gradientUnits="userSpaceOnUse" x2="1235" y1="827.08" y2="861.08" id="linearGradient6" spreadMethod="reflect">
        <stop stop-opacity="1" stop-color="rgb(232,238,247)" offset="0%"/>
        <stop stop-opacity="1" stop-color="rgb(183,201,227)" offset="100%"/>
      </linearGradient>
      <linearGradient x1="557" gradientUnits="userSpaceOnUse" x2="701" y1="692" y2="740" id="linearGradient7" spreadMethod="reflect">
        <stop stop-opacity="1" stop-color="rgb(232,238,247)" offset="0%"/>
        <stop stop-opacity="1" stop-color="rgb(183,201,227)" offset="100%"/>
      </linearGradient>
      <linearGradient x1="589" gradientUnits="userSpaceOnUse" x2="669" y1="770" y2="810" id="linearGradient8" spreadMethod="reflect">
        <stop stop-opacity="1" stop-color="rgb(232,238,247)" offset="0%"/>
        <stop stop-opacity="1" stop-color="rgb(183,201,227)" offset="100%"/>
      </linearGradient>
      <linearGradient x1="554" gradientUnits="userSpaceOnUse" x2="704" y1="917.08" y2="1049.08" id="linearGradient9" spreadMethod="reflect">
        <stop stop-opacity="1" stop-color="rgb(232,238,247)" offset="0%"/>
        <stop stop-opacity="1" stop-color="rgb(183,201,227)" offset="100%"/>
      </linearGradient>
      <linearGradient x1="554" gradientUnits="userSpaceOnUse" x2="704" y1="1090.16" y2="1130.16" id="linearGradient10" spreadMethod="reflect">
        <stop stop-opacity="1" stop-color="rgb(232,238,247)" offset="0%"/>
        <stop stop-opacity="1" stop-color="rgb(183,201,227)" offset="100%"/>
      </linearGradient>
      <clipPath clipPathUnits="userSpaceOnUse" id="clipPath1">
        <path d="M0 0 L752 0 L752 786 L0 786 L0 0 Z"/>
      </clipPath>
      <clipPath clipPathUnits="userSpaceOnUse" id="clipPath2">
        <path d="M498 360 L1250 360 L1250 1146 L498 1146 L498 360 Z"/>
      </clipPath>
    </defs>
    <g fill="white" text-rendering="geometricPrecision" shape-rendering="geometricPrecision" transform="translate(-498,-360)" stroke="white">
      <rect x="498" width="752" height="786" y="360" clip-path="url(#clipPath2)" stroke="none"/>
    </g>
    <g fill="url(#linearGradient1)" text-rendering="geometricPrecision" shape-rendering="geometricPrecision" transform="matrix(1,0,0,1,-498,-360)" stroke="url(#linearGradient1)">
      <path d="M827 375 L971 375 L971 423 L827 423 Z" stroke="none" clip-path="url(#clipPath2)"/>
    </g>
    <g text-rendering="geometricPrecision" stroke-miterlimit="1.45" shape-rendering="geometricPrecision" transform="matrix(1,0,0,1,-498,-360)" stroke-linecap="butt">
      <path fill="none" d="M827 375 L971 375 L971 423 L827 423 Z" clip-path="url(#clipPath2)"/>
      <text x="847.0479" xml:space="preserve" y="396.1699" clip-path="url(#clipPath2)" font-family="sans-serif" stroke="none">Read ROTPK-SHA</text>
      <text x="858.6406" xml:space="preserve" y="410.1387" clip-path="url(#clipPath2)" font-family="sans-serif" stroke="none">from OTP HW</text>
    </g>
    <g fill="url(#linearGradient2)" text-rendering="geometricPrecision" shape-rendering="geometricPrecision" transform="matrix(1,0,0,1,-498,-360)" stroke="url(#linearGradient2)">
      <path d="M899 460 L939 480 L899 500 L859 480 Z" stroke="none" clip-path="url(#clipPath2)"/>
    </g>
    <g text-rendering="geometricPrecision" stroke-miterlimit="1.45" shape-rendering="geometricPrecision" transform="matrix(1,0,0,1,-498,-360)" stroke-linecap="butt">
      <path fill="none" d="M899 460 L939 480 L899 500 L859 480 Z" clip-path="url(#clipPath2)"/>
    </g>
    <g fill="url(#linearGradient3)" text-rendering="geometricPrecision" shape-rendering="geometricPrecision" transform="matrix(1,0,0,1,-498,-360)" stroke="url(#linearGradient3)">
      <path d="M1085 460 L1235 460 L1235 500 L1085 500 Z" stroke="none" clip-path="url(#clipPath2)"/>
    </g>
    <g text-rendering="geometricPrecision" stroke-miterlimit="1.45" shape-rendering="geometricPrecision" transform="matrix(1,0,0,1,-498,-360)" stroke-linecap="butt">
      <path fill="none" d="M1085 460 L1235 460 L1235 500 L1085 500 Z" clip-path="url(#clipPath2)"/>
      <text x="1103.1611" xml:space="preserve" y="484.1543" clip-path="url(#clipPath2)" font-family="sans-serif" stroke="none">OTP EMU disabled!</text>
    </g>
    <g fill="url(#linearGradient4)" text-rendering="geometricPrecision" shape-rendering="geometricPrecision" transform="matrix(1,0,0,1,-498,-360)" stroke="url(#linearGradient4)">
      <path d="M554 460 L704 460 L704 500 L554 500 Z" stroke="none" clip-path="url(#clipPath2)"/>
    </g>
    <g text-rendering="geometricPrecision" stroke-miterlimit="1.45" shape-rendering="geometricPrecision" transform="matrix(1,0,0,1,-498,-360)" stroke-linecap="butt">
      <path fill="none" d="M554 460 L704 460 L704 500 L554 500 Z" clip-path="url(#clipPath2)"/>
      <text x="579.1777" xml:space="preserve" y="484.1543" clip-path="url(#clipPath2)" font-family="sans-serif" stroke="none">OTP EMU active!</text>
    </g>
    <g fill="url(#linearGradient5)" text-rendering="geometricPrecision" shape-rendering="geometricPrecision" transform="matrix(1,0,0,1,-498,-360)" stroke="url(#linearGradient5)">
      <path d="M554 530 L704 530 L704 662 L554 662 Z" stroke="none" clip-path="url(#clipPath2)"/>
    </g>
    <g text-rendering="geometricPrecision" stroke-miterlimit="1.45" shape-rendering="geometricPrecision" transform="matrix(1,0,0,1,-498,-360)" stroke-linecap="butt">
      <path fill="none" d="M554 530 L704 530 L704 662 L554 662 Z" clip-path="url(#clipPath2)"/>
      <text x="576.0928" xml:space="preserve" y="565.2324" clip-path="url(#clipPath2)" font-family="sans-serif" stroke="none">Read FW_CONFIG</text>
      <text x="577.7891" xml:space="preserve" y="579.2012" clip-path="url(#clipPath2)" font-family="sans-serif" stroke="none">from FIP, without</text>
      <text x="571.9473" xml:space="preserve" y="593.1699" clip-path="url(#clipPath2)" font-family="sans-serif" stroke="none">authenticaton, and</text>
      <text x="566.4131" xml:space="preserve" y="607.1387" clip-path="url(#clipPath2)" font-family="sans-serif" stroke="none">place in SRAM buffer</text>
      <text x="572.7822" xml:space="preserve" y="621.1074" clip-path="url(#clipPath2)" font-family="sans-serif" stroke="none">shared by BL1 and</text>
      <text x="617.7236" xml:space="preserve" y="635.0762" clip-path="url(#clipPath2)" font-family="sans-serif" stroke="none">BL2</text>
    </g>
    <g fill="url(#linearGradient6)" text-rendering="geometricPrecision" shape-rendering="geometricPrecision" transform="matrix(1,0,0,1,-498,-360)" stroke="url(#linearGradient6)">
      <path d="M1085 827.08 L1235 827.08 L1235 861.08 L1085 861.08 Z" stroke="none" clip-path="url(#clipPath2)"/>
    </g>
    <g text-rendering="geometricPrecision" stroke-miterlimit="1.45" shape-rendering="geometricPrecision" transform="matrix(1,0,0,1,-498,-360)" stroke-linecap="butt">
      <path fill="none" d="M1085 827.08 L1235 827.08 L1235 861.08 L1085 861.08 Z" clip-path="url(#clipPath2)"/>
      <text x="1116.916" xml:space="preserve" y="848.2343" clip-path="url(#clipPath2)" font-family="sans-serif" stroke="none">Initialize TBBR</text>
    </g>
    <g fill="url(#linearGradient7)" text-rendering="geometricPrecision" shape-rendering="geometricPrecision" transform="matrix(1,0,0,1,-498,-360)" stroke="url(#linearGradient7)">
      <path d="M557 692 L701 692 L701 740 L557 740 Z" stroke="none" clip-path="url(#clipPath2)"/>
    </g>
    <g text-rendering="geometricPrecision" stroke-miterlimit="1.45" shape-rendering="geometricPrecision" transform="matrix(1,0,0,1,-498,-360)" stroke-linecap="butt">
      <path fill="none" d="M557 692 L701 692 L701 740 L557 740 Z" clip-path="url(#clipPath2)"/>
      <text x="577.0479" xml:space="preserve" y="713.1699" clip-path="url(#clipPath2)" font-family="sans-serif" stroke="none">Read ROTPK-SHA</text>
      <text x="585.7256" xml:space="preserve" y="727.1387" clip-path="url(#clipPath2)" font-family="sans-serif" stroke="none">from OTP EMU</text>
    </g>
    <g fill="url(#linearGradient8)" text-rendering="geometricPrecision" shape-rendering="geometricPrecision" transform="matrix(1,0,0,1,-498,-360)" stroke="url(#linearGradient8)">
      <path d="M629 770 L669 790 L629 810 L589 790 Z" stroke="none" clip-path="url(#clipPath2)"/>
    </g>
    <g text-rendering="geometricPrecision" stroke-miterlimit="1.45" shape-rendering="geometricPrecision" transform="matrix(1,0,0,1,-498,-360)" stroke-linecap="butt">
      <path fill="none" d="M629 770 L669 790 L629 810 L589 790 Z" clip-path="url(#clipPath2)"/>
    </g>
    <g fill="url(#linearGradient9)" text-rendering="geometricPrecision" shape-rendering="geometricPrecision" transform="matrix(1,0,0,1,-498,-360)" stroke="url(#linearGradient9)">
      <path d="M554 917.08 L704 917.08 L704 1049.08 L554 1049.08 Z" stroke="none" clip-path="url(#clipPath2)"/>
    </g>
    <g text-rendering="geometricPrecision" stroke-miterlimit="1.45" shape-rendering="geometricPrecision" transform="matrix(1,0,0,1,-498,-360)" stroke-linecap="butt">
      <path fill="none" d="M554 917.08 L704 917.08 L704 1049.08 L554 1049.08 Z" clip-path="url(#clipPath2)"/>
      <text x="576.0928" xml:space="preserve" y="952.3124" clip-path="url(#clipPath2)" font-family="sans-serif" stroke="none">Read FW_CONFIG</text>
      <text x="562.1768" xml:space="preserve" y="966.2812" clip-path="url(#clipPath2)" font-family="sans-serif" stroke="none">from FIP, authenticate</text>
      <text x="567.916" xml:space="preserve" y="980.2499" clip-path="url(#clipPath2)" font-family="sans-serif" stroke="none">if TBBR is initialized,</text>
      <text x="571.2119" xml:space="preserve" y="994.2187" clip-path="url(#clipPath2)" font-family="sans-serif" stroke="none">and place in SRAM </text>
      <text x="564.1689" xml:space="preserve" y="1008.1874" clip-path="url(#clipPath2)" font-family="sans-serif" stroke="none">buffer shared by BL1 </text>
      <text x="604.5283" xml:space="preserve" y="1022.1562" clip-path="url(#clipPath2)" font-family="sans-serif" stroke="none">and BL2</text>
    </g>
    <g fill="url(#linearGradient10)" text-rendering="geometricPrecision" shape-rendering="geometricPrecision" transform="matrix(1,0,0,1,-498,-360)" stroke="url(#linearGradient10)">
      <path d="M554 1090.16 L704 1090.16 L704 1130.16 L554 1130.16 Z" stroke="none" clip-path="url(#clipPath2)"/>
    </g>
    <g text-rendering="geometricPrecision" stroke-miterlimit="1.45" shape-rendering="geometricPrecision" transform="matrix(1,0,0,1,-498,-360)" stroke-linecap="butt">
      <path fill="none" d="M554 1090.16 L704 1090.16 L704 1130.16 L554 1130.16 Z" clip-path="url(#clipPath2)"/>
      <text x="601.3174" xml:space="preserve" y="1114.3143" clip-path="url(#clipPath2)" font-family="sans-serif" stroke="none">Load BL2</text>
    </g>
    <g text-rendering="geometricPrecision" stroke-miterlimit="1.45" shape-rendering="geometricPrecision" transform="matrix(1,0,0,1,-498,-360)" stroke-linecap="butt">
      <path fill="none" d="M899 423.0073 L899 451.9913" clip-path="url(#clipPath2)"/>
    </g>
    <g text-rendering="geometricPrecision" stroke-miterlimit="1.45" shape-rendering="geometricPrecision" transform="matrix(1,0,0,1,-498,-360)" stroke-linecap="butt">
      <path d="M899 459.9913 L904 447.9913 L899 450.9913 L894 447.9913 Z" stroke="none" clip-path="url(#clipPath2)"/>
      <path fill="none" d="M938.9847 480 L1077.0243 480" clip-path="url(#clipPath2)"/>
      <path d="M1085.0243 480 L1073.0243 475 L1076.0243 480 L1073.0243 485 Z" clip-path="url(#clipPath2)" stroke="none"/>
      <text x="954.6638" xml:space="preserve" y="477.9961" clip-path="url(#clipPath2)" font-family="sans-serif" stroke="none">ROTPK-SHA != 0</text>
      <path fill="none" d="M859.0208 480 L711.9982 480" clip-path="url(#clipPath2)"/>
      <path d="M703.9982 480 L715.9982 485 L712.9982 480 L715.9982 475 Z" clip-path="url(#clipPath2)" stroke="none"/>
      <text x="736.2156" xml:space="preserve" y="477.3125" clip-path="url(#clipPath2)" font-family="sans-serif" stroke="none">ROTPK-SHA == 0</text>
      <path fill="none" d="M629 500.0225 L629 521.9686" clip-path="url(#clipPath2)"/>
      <path d="M629 529.9686 L634 517.9686 L629 520.9686 L624 517.9686 Z" clip-path="url(#clipPath2)" stroke="none"/>
      <path fill="none" d="M1160 500.0439 L1160 819.0714" clip-path="url(#clipPath2)"/>
      <path d="M1160 827.0714 L1165 815.0714 L1160 818.0714 L1155 815.0714 Z" clip-path="url(#clipPath2)" stroke="none"/>
      <path fill="none" d="M629 662.0059 L629 683.9821" clip-path="url(#clipPath2)"/>
      <path d="M629 691.9821 L634 679.9821 L629 682.9821 L624 679.9821 Z" clip-path="url(#clipPath2)" stroke="none"/>
      <path fill="none" d="M629 740.0283 L629 762.0406" clip-path="url(#clipPath2)"/>
      <path d="M629 770.0406 L634 758.0406 L629 761.0406 L624 758.0406 Z" clip-path="url(#clipPath2)" stroke="none"/>
      <path fill="none" d="M669.0278 790 L1118.0494 790 L1118.0494 819.1115" clip-path="url(#clipPath2)"/>
      <path d="M1118.0494 827.1115 L1123.0494 815.1115 L1118.0494 818.1115 L1113.0494 815.1115 Z" clip-path="url(#clipPath2)" stroke="none"/>
      <text x="717.4439" xml:space="preserve" y="785.9961" clip-path="url(#clipPath2)" font-family="sans-serif" stroke="none">ROTPK-SHA != 0</text>
      <path fill="none" d="M629 810.0339 L629 909.0471" clip-path="url(#clipPath2)"/>
      <path d="M629 917.0471 L634 905.0471 L629 908.0471 L624 905.0471 Z" clip-path="url(#clipPath2)" stroke="none"/>
      <text x="515.4561" xml:space="preserve" y="844.1249" clip-path="url(#clipPath2)" font-family="sans-serif" stroke="none">ROTPK-SHA == 0</text>
      <path fill="none" d="M1160 861.071 L1160 885.2119 L668.0744 885.2119 L668.0744 909.0978" clip-path="url(#clipPath2)"/>
      <path d="M668.0744 917.0978 L673.0744 905.0978 L668.0744 908.0978 L663.0744 905.0978 Z" clip-path="url(#clipPath2)" stroke="none"/>
      <path fill="none" d="M629 1049.071 L629 1082.145" clip-path="url(#clipPath2)"/>
      <path d="M629 1090.145 L634 1078.145 L629 1081.145 L624 1078.145 Z" clip-path="url(#clipPath2)" stroke="none"/>
    </g>
  </g>
</svg>
