<?xml version="1.0" encoding="UTF-8" standalone="no"?>
<!DOCTYPE svg PUBLIC "-//W3C//DTD SVG 1.1//EN" "http://www.w3.org/Graphics/SVG/1.1/DTD/svg11.dtd">
<!-- Generated by Microsoft Visio, SVG Export tc-class.svg Page-1 -->
<svg xmlns="http://www.w3.org/2000/svg" xmlns:xlink="http://www.w3.org/1999/xlink" xmlns:ev="http://www.w3.org/2001/xml-events"
		xmlns:v="http://schemas.microsoft.com/visio/2003/SVGExtensions/" width="7.55906in" height="2.83465in"
		viewBox="0 0 544.252 204.094" xml:space="preserve" color-interpolation-filters="sRGB" class="st7">
	<v:documentProperties v:langID="1033" v:metric="true" v:viewMarkup="false">
		<v:userDefs>
			<v:ud v:nameU="msvSubprocessMaster" v:prompt="" v:val="VT4(Rectangle)"/>
			<v:ud v:nameU="msvNoAutoConnect" v:val="VT0(1):26"/>
		</v:userDefs>
	</v:documentProperties>

	<style type="text/css">
	<![CDATA[
		.st1 {fill:#ffffff;stroke:#000000;stroke-linecap:round;stroke-linejoin:round;stroke-width:0.75}
		.st2 {fill:#000000;font-family:Calibri;font-size:0.833336em}
		.st3 {fill:none;stroke:none;stroke-linecap:round;stroke-linejoin:round;stroke-width:0.75}
		.st4 {fill:#000000;font-family:Calibri;font-size:1.00001em}
		.st5 {marker-end:url(#mrkr4-18);stroke:#000000;stroke-linecap:round;stroke-linejoin:round;stroke-width:0.237638}
		.st6 {fill:#000000;fill-opacity:1;stroke:#000000;stroke-opacity:1;stroke-width:0.086174404659928}
		.st7 {fill:none;fill-rule:evenodd;font-size:12px;overflow:visible;stroke-linecap:square;stroke-miterlimit:3}
	]]>
	</style>

	<defs id="Markers">
		<g id="lend4">
			<path d="M 2 1 L 0 0 L 2 -1 L 2 1 " style="stroke:none"/>
		</g>
		<marker id="mrkr4-18" class="st6" v:arrowType="4" v:arrowSize="2" v:setback="23.2087" refX="-23.208747514911" orient="auto"
				markerUnits="strokeWidth" overflow="visible">
			<use xlink:href="#lend4" transform="scale(-11.604373757455,-11.604373757455) "/>
		</marker>
	</defs>
	<g v:mID="0" v:index="1" v:groupContext="foregroundPage">
		<v:userDefs>
			<v:ud v:nameU="msvThemeOrder" v:val="VT0(0):26"/>
		</v:userDefs>
		<title>Page-1</title>
		<v:pageProperties v:drawingScale="0.0393701" v:pageScale="0.0393701" v:drawingUnits="24" v:shadowOffsetX="8.50394"
				v:shadowOffsetY="-8.50394"/>
		<v:layer v:name="Connector" v:index="0"/>
		<g id="shape1-1" v:mID="1" v:groupContext="shape" transform="translate(212.598,-141.732)">
			<title>Circle</title>
			<desc>1:0</desc>
			<v:userDefs>
				<v:ud v:nameU="visVersion" v:val="VT0(15):26"/>
			</v:userDefs>
			<v:textBlock v:margins="rect(4,4,4,4)" v:tabSpace="42.5197"/>
			<v:textRect cx="21.2598" cy="182.835" width="37.21" height="31.8898"/>
			<path d="M0 182.83 A21.2598 21.2598 0 0 1 42.52 182.83 A21.2598 21.2598 0 1 1 0 182.83 Z" class="st1"/>
			<text x="14.85" y="185.83" class="st2" v:langID="1030"><v:paragraph v:horizAlign="1"/><v:tabList/>1:0</text>		</g>
		<g id="shape3-4" v:mID="3" v:groupContext="shape" transform="translate(257.543,-155.906)">
			<title>Sheet.3</title>
			<desc>mqprio root qdisc</desc>
			<v:textBlock v:margins="rect(4,4,4,4)" v:tabSpace="42.5197"/>
			<v:textRect cx="55.4803" cy="194.094" width="110.97" height="20"/>
			<rect x="0" y="184.094" width="110.961" height="20" class="st3"/>
			<text x="12.04" y="197.69" class="st4" v:langID="1030"><v:paragraph v:horizAlign="1"/><v:tabList/>mqprio root qdisc</text>		</g>
		<g id="shape10-7" v:mID="10" v:groupContext="shape" transform="translate(461.638,-85.0394)">
			<title>Sheet.10</title>
			<desc>traffic classes</desc>
			<v:textBlock v:margins="rect(4,4,4,4)" v:tabSpace="42.5197"/>
			<v:textRect cx="41.3071" cy="194.094" width="82.62" height="20"/>
			<rect x="0" y="184.094" width="82.6142" height="20" class="st3"/>
			<text x="8.59" y="197.69" class="st4" v:langID="1030"><v:paragraph v:horizAlign="1"/><v:tabList/>traffic classes</text>		</g>
		<g id="shape18-10" v:mID="18" v:groupContext="shape" transform="translate(14.1732,-70.8661)">
			<title>Circle.18</title>
			<desc>1:1</desc>
			<v:userDefs>
				<v:ud v:nameU="visVersion" v:val="VT0(15):26"/>
			</v:userDefs>
			<v:textBlock v:margins="rect(4,4,4,4)" v:tabSpace="42.5197"/>
			<v:textRect cx="21.2598" cy="182.835" width="37.21" height="31.8898"/>
			<path d="M0 182.83 A21.2598 21.2598 0 0 1 42.52 182.83 A21.2598 21.2598 0 1 1 0 182.83 Z" class="st1"/>
			<text x="14.85" y="185.83" class="st2" v:langID="1030"><v:paragraph v:horizAlign="1"/><v:tabList/>1:1</text>		</g>
		<g id="shape28-13" v:mID="28" v:groupContext="shape" v:layerMember="0" transform="translate(233.858,-141.732)">
			<title>Dynamic connector</title>
			<path d="M0 204.09 L0 214.72 L-198.43 214.72 L-198.43 226.93" class="st5"/>
		</g>
		<g id="shape29-19" v:mID="29" v:groupContext="shape" transform="translate(70.8661,-70.8661)">
			<title>Circle.29</title>
			<desc>1:2</desc>
			<v:userDefs>
				<v:ud v:nameU="visVersion" v:val="VT0(15):26"/>
			</v:userDefs>
			<v:textBlock v:margins="rect(4,4,4,4)" v:tabSpace="42.5197"/>
			<v:textRect cx="21.2598" cy="182.835" width="37.21" height="31.8898"/>
			<path d="M0 182.83 A21.2598 21.2598 0 0 1 42.52 182.83 A21.2598 21.2598 0 1 1 0 182.83 Z" class="st1"/>
			<text x="14.85" y="185.83" class="st2" v:langID="1030"><v:paragraph v:horizAlign="1"/><v:tabList/>1:2</text>		</g>
		<g id="shape30-22" v:mID="30" v:groupContext="shape" transform="translate(127.559,-70.8661)">
			<title>Circle.30</title>
			<desc>1:3</desc>
			<v:userDefs>
				<v:ud v:nameU="visVersion" v:val="VT0(15):26"/>
			</v:userDefs>
			<v:textBlock v:margins="rect(4,4,4,4)" v:tabSpace="42.5197"/>
			<v:textRect cx="21.2598" cy="182.835" width="37.21" height="31.8898"/>
			<path d="M0 182.83 A21.2598 21.2598 0 0 1 42.52 182.83 A21.2598 21.2598 0 1 1 0 182.83 Z" class="st1"/>
			<text x="14.85" y="185.83" class="st2" v:langID="1030"><v:paragraph v:horizAlign="1"/><v:tabList/>1:3</text>		</g>
		<g id="shape31-25" v:mID="31" v:groupContext="shape" transform="translate(184.252,-70.8661)">
			<title>Circle.31</title>
			<desc>1:4</desc>
			<v:userDefs>
				<v:ud v:nameU="visVersion" v:val="VT0(15):26"/>
			</v:userDefs>
			<v:textBlock v:margins="rect(4,4,4,4)" v:tabSpace="42.5197"/>
			<v:textRect cx="21.2598" cy="182.835" width="37.21" height="31.8898"/>
			<path d="M0 182.83 A21.2598 21.2598 0 0 1 42.52 182.83 A21.2598 21.2598 0 1 1 0 182.83 Z" class="st1"/>
			<text x="14.85" y="185.83" class="st2" v:langID="1030"><v:paragraph v:horizAlign="1"/><v:tabList/>1:4</text>		</g>
		<g id="shape32-28" v:mID="32" v:groupContext="shape" transform="translate(240.945,-70.8661)">
			<title>Circle.32</title>
			<desc>1:5</desc>
			<v:userDefs>
				<v:ud v:nameU="visVersion" v:val="VT0(15):26"/>
			</v:userDefs>
			<v:textBlock v:margins="rect(4,4,4,4)" v:tabSpace="42.5197"/>
			<v:textRect cx="21.2598" cy="182.835" width="37.21" height="31.8898"/>
			<path d="M0 182.83 A21.2598 21.2598 0 0 1 42.52 182.83 A21.2598 21.2598 0 1 1 0 182.83 Z" class="st1"/>
			<text x="14.85" y="185.83" class="st2" v:langID="1030"><v:paragraph v:horizAlign="1"/><v:tabList/>1:5</text>		</g>
		<g id="shape33-31" v:mID="33" v:groupContext="shape" transform="translate(297.638,-70.8661)">
			<title>Circle.33</title>
			<desc>1:6</desc>
			<v:userDefs>
				<v:ud v:nameU="visVersion" v:val="VT0(15):26"/>
			</v:userDefs>
			<v:textBlock v:margins="rect(4,4,4,4)" v:tabSpace="42.5197"/>
			<v:textRect cx="21.2598" cy="182.835" width="37.21" height="31.8898"/>
			<path d="M0 182.83 A21.2598 21.2598 0 0 1 42.52 182.83 A21.2598 21.2598 0 1 1 0 182.83 Z" class="st1"/>
			<text x="14.85" y="185.83" class="st2" v:langID="1030"><v:paragraph v:horizAlign="1"/><v:tabList/>1:6</text>		</g>
		<g id="shape34-34" v:mID="34" v:groupContext="shape" transform="translate(354.331,-70.8661)">
			<title>Circle.34</title>
			<desc>1:7</desc>
			<v:userDefs>
				<v:ud v:nameU="visVersion" v:val="VT0(15):26"/>
			</v:userDefs>
			<v:textBlock v:margins="rect(4,4,4,4)" v:tabSpace="42.5197"/>
			<v:textRect cx="21.2598" cy="182.835" width="37.21" height="31.8898"/>
			<path d="M0 182.83 A21.2598 21.2598 0 0 1 42.52 182.83 A21.2598 21.2598 0 1 1 0 182.83 Z" class="st1"/>
			<text x="14.85" y="185.83" class="st2" v:langID="1030"><v:paragraph v:horizAlign="1"/><v:tabList/>1:7</text>		</g>
		<g id="shape35-37" v:mID="35" v:groupContext="shape" transform="translate(411.024,-70.8661)">
			<title>Circle.35</title>
			<desc>1:8</desc>
			<v:userDefs>
				<v:ud v:nameU="visVersion" v:val="VT0(15):26"/>
			</v:userDefs>
			<v:textBlock v:margins="rect(4,4,4,4)" v:tabSpace="42.5197"/>
			<v:textRect cx="21.2598" cy="182.835" width="37.21" height="31.8898"/>
			<path d="M0 182.83 A21.2598 21.2598 0 0 1 42.52 182.83 A21.2598 21.2598 0 1 1 0 182.83 Z" class="st1"/>
			<text x="14.85" y="185.83" class="st2" v:langID="1030"><v:paragraph v:horizAlign="1"/><v:tabList/>1:8</text>		</g>
		<g id="shape36-40" v:mID="36" v:groupContext="shape" v:layerMember="0" transform="translate(233.858,-141.732)">
			<title>Dynamic connector.36</title>
			<path d="M0 204.09 L0 214.72 L-141.73 214.72 L-141.73 226.93" class="st5"/>
		</g>
		<g id="shape38-45" v:mID="38" v:groupContext="shape" v:layerMember="0" transform="translate(233.858,-141.732)">
			<title>Dynamic connector.38</title>
			<path d="M0 204.09 L0 214.72 L-85.04 214.72 L-85.04 226.93" class="st5"/>
		</g>
		<g id="shape39-50" v:mID="39" v:groupContext="shape" v:layerMember="0" transform="translate(233.858,-141.732)">
			<title>Dynamic connector.39</title>
			<path d="M0 204.09 L0 214.72 L-28.35 214.72 L-28.35 226.93" class="st5"/>
		</g>
		<g id="shape40-55" v:mID="40" v:groupContext="shape" v:layerMember="0" transform="translate(233.858,-141.732)">
			<title>Dynamic connector.40</title>
			<path d="M0 204.09 L0 214.72 L28.35 214.72 L28.35 226.93" class="st5"/>
		</g>
		<g id="shape41-60" v:mID="41" v:groupContext="shape" v:layerMember="0" transform="translate(233.858,-141.732)">
			<title>Dynamic connector.41</title>
			<path d="M0 204.09 L0 214.72 L85.04 214.72 L85.04 226.93" class="st5"/>
		</g>
		<g id="shape42-65" v:mID="42" v:groupContext="shape" v:layerMember="0" transform="translate(233.858,-141.732)">
			<title>Dynamic connector.42</title>
			<path d="M0 204.09 L0 214.72 L141.73 214.72 L141.73 226.93" class="st5"/>
		</g>
		<g id="shape43-70" v:mID="43" v:groupContext="shape" v:layerMember="0" transform="translate(233.858,-141.732)">
			<title>Dynamic connector.43</title>
			<path d="M0 204.09 L0 214.72 L198.43 214.72 L198.43 226.93" class="st5"/>
		</g>
		<g id="shape44-75" v:mID="44" v:groupContext="shape" transform="translate(240.945,-14.1732)">
			<title>Circle.44</title>
			<desc>2:0</desc>
			<v:userDefs>
				<v:ud v:nameU="visVersion" v:val="VT0(15):26"/>
			</v:userDefs>
			<v:textBlock v:margins="rect(4,4,4,4)" v:tabSpace="42.5197"/>
			<v:textRect cx="21.2598" cy="182.835" width="37.21" height="31.8898"/>
			<path d="M0 182.83 A21.2598 21.2598 0 0 1 42.52 182.83 A21.2598 21.2598 0 1 1 0 182.83 Z" class="st1"/>
			<text x="14.85" y="185.83" class="st2" v:langID="1030"><v:paragraph v:horizAlign="1"/><v:tabList/>2:0</text>		</g>
		<g id="shape46-78" v:mID="46" v:groupContext="shape" v:layerMember="0" transform="translate(255.118,-70.8661)">
			<title>Dynamic connector.46</title>
			<path d="M7.09 204.09 L7.09 212.75" class="st5"/>
		</g>
		<g id="shape48-83" v:mID="48" v:groupContext="shape" transform="translate(285.89,-28.3465)">
			<title>Sheet.48</title>
			<desc>cbs shaper</desc>
			<v:textBlock v:margins="rect(4,4,4,4)" v:tabSpace="42.5197"/>
			<v:textRect cx="41.3071" cy="194.094" width="82.62" height="20"/>
			<rect x="0" y="184.094" width="82.6142" height="20" class="st3"/>
			<text x="15.31" y="197.69" class="st4" v:langID="1030"><v:paragraph v:horizAlign="1"/><v:tabList/>cbs shaper</text>		</g>
	</g>
</svg>
