<svg xmlns="http://www.w3.org/2000/svg" style="overflow: hidden; display: block; width: 634px; height: 605px;" width="634px" height="605px" viewBox="0 0 634 605" xmlns:xlink="http://www.w3.org/1999/xlink"><defs><path fill="rgb(0,0,0)" stroke="rgb(0,0,0)" d="M 0,0 L 10,-5 L 5,0 L 10,5 Z" fill-opacity="1" stroke-opacity="1" stroke-width="2" stroke-linecap="butt" stroke-linejoin="miter" stroke-miterlimit="10" id="ygc83_0"/><path fill="rgb(192,192,192)" stroke="rgb(192,192,192)" d="M 0,0 L 10,-5 L 5,0 L 10,5 Z" fill-opacity="1" stroke-opacity="1" stroke-width="1" stroke-linecap="butt" stroke-linejoin="miter" stroke-miterlimit="10" id="ygc83_1"/><path fill="rgb(0,0,0)" stroke="rgb(0,0,0)" d="M 0,0 L 10,-5 L 5,0 L 10,5 Z" fill-opacity="1" stroke-opacity="1" stroke-width="2" stroke-linecap="butt" stroke-linejoin="miter" stroke-miterlimit="10" id="ygc83_2"/><path fill="rgb(0,0,0)" stroke="rgb(0,0,0)" d="M 0,0 L 10,-5 L 5,0 L 10,5 Z" fill-opacity="1" stroke-opacity="1" stroke-width="2" stroke-linecap="butt" stroke-linejoin="miter" stroke-miterlimit="10" id="ygc83_3"/><path fill="rgb(192,192,192)" stroke="rgb(192,192,192)" d="M 0,0 L 10,-5 L 5,0 L 10,5 Z" fill-opacity="1" stroke-opacity="1" stroke-width="1" stroke-linecap="butt" stroke-linejoin="miter" stroke-miterlimit="10" id="ygc83_4"/><path fill="rgb(192,192,192)" stroke="rgb(192,192,192)" d="M 0,0 L 10,-5 L 5,0 L 10,5 Z" fill-opacity="1" stroke-opacity="1" stroke-width="1" stroke-linecap="butt" stroke-linejoin="miter" stroke-miterlimit="10" id="ygc83_5"/><path fill="rgb(0,0,0)" stroke="rgb(0,0,0)" d="M 0,0 L 10,-5 L 5,0 L 10,5 Z" fill-opacity="1" stroke-opacity="1" stroke-width="2" stroke-linecap="butt" stroke-linejoin="miter" stroke-miterlimit="10" id="ygc83_6"/><path fill="rgb(0,0,0)" stroke="rgb(0,0,0)" d="M 0,0 L 10,-5 L 5,0 L 10,5 Z" fill-opacity="1" stroke-opacity="1" stroke-width="2" stroke-linecap="butt" stroke-linejoin="miter" stroke-miterlimit="10" id="ygc83_7"/><path fill="rgb(192,192,192)" stroke="rgb(192,192,192)" d="M 0,0 L 10,-5 L 5,0 L 10,5 Z" fill-opacity="1" stroke-opacity="1" stroke-width="1" stroke-linecap="butt" stroke-linejoin="miter" stroke-miterlimit="10" id="ygc83_8"/><path fill="rgb(192,192,192)" stroke="rgb(192,192,192)" d="M 0,0 L 10,-5 L 5,0 L 10,5 Z" fill-opacity="1" stroke-opacity="1" stroke-width="1" stroke-linecap="butt" stroke-linejoin="miter" stroke-miterlimit="10" id="ygc83_9"/><path fill="rgb(192,192,192)" stroke="rgb(192,192,192)" d="M 0,0 L 10,-5 L 5,0 L 10,5 Z" fill-opacity="1" stroke-opacity="1" stroke-width="1" stroke-linecap="butt" stroke-linejoin="miter" stroke-miterlimit="10" id="ygc83_10"/><path fill="rgb(192,192,192)" stroke="rgb(192,192,192)" d="M 0,0 L 10,-5 L 5,0 L 10,5 Z" fill-opacity="1" stroke-opacity="1" stroke-width="1" stroke-linecap="butt" stroke-linejoin="miter" stroke-miterlimit="10" id="ygc83_11"/><path fill="rgb(192,192,192)" stroke="rgb(192,192,192)" d="M 0,0 L 10,-5 L 5,0 L 10,5 Z" fill-opacity="1" stroke-opacity="1" stroke-width="1" stroke-linecap="butt" stroke-linejoin="miter" stroke-miterlimit="10" id="ygc83_12"/><path fill="rgb(192,192,192)" stroke="rgb(192,192,192)" d="M 0,0 L 10,-5 L 5,0 L 10,5 Z" fill-opacity="1" stroke-opacity="1" stroke-width="1" stroke-linecap="butt" stroke-linejoin="miter" stroke-miterlimit="10" id="ygc83_13"/><path fill="rgb(192,192,192)" stroke="rgb(192,192,192)" d="M 0,0 L 10,-5 L 5,0 L 10,5 Z" fill-opacity="1" stroke-opacity="1" stroke-width="1" stroke-linecap="butt" stroke-linejoin="miter" stroke-miterlimit="10" id="ygc83_14"/><path fill="rgb(192,192,192)" stroke="rgb(192,192,192)" d="M 0,0 L 10,-5 L 5,0 L 10,5 Z" fill-opacity="1" stroke-opacity="1" stroke-width="1" stroke-linecap="butt" stroke-linejoin="miter" stroke-miterlimit="10" id="ygc83_15"/><path fill="rgb(0,0,0)" stroke="rgb(0,0,0)" d="M 0,0 L 10,-5 L 5,0 L 10,5 Z" fill-opacity="1" stroke-opacity="1" stroke-width="2" stroke-linecap="butt" stroke-linejoin="miter" stroke-miterlimit="10" id="ygc83_16"/><path fill="rgb(0,0,0)" stroke="rgb(0,0,0)" d="M 0,0 L 10,-5 L 5,0 L 10,5 Z" fill-opacity="1" stroke-opacity="1" stroke-width="2" stroke-linecap="butt" stroke-linejoin="miter" stroke-miterlimit="10" id="ygc83_17"/><path fill="rgb(0,0,0)" stroke="rgb(0,0,0)" d="M 0,0 L 10,-5 L 5,0 L 10,5 Z" fill-opacity="1" stroke-opacity="1" stroke-width="2" stroke-linecap="butt" stroke-linejoin="miter" stroke-miterlimit="10" id="ygc83_18"/><path fill="rgb(0,0,0)" stroke="rgb(0,0,0)" d="M 0,0 L 10,-5 L 5,0 L 10,5 Z" fill-opacity="1" stroke-opacity="1" stroke-width="2" stroke-linecap="butt" stroke-linejoin="miter" stroke-miterlimit="10" id="ygc83_19"/><path fill="rgb(0,0,0)" stroke="rgb(0,0,0)" d="M 0,0 L 10,-5 L 5,0 L 10,5 Z" fill-opacity="1" stroke-opacity="1" stroke-width="2" stroke-linecap="butt" stroke-linejoin="miter" stroke-miterlimit="10" id="ygc83_20"/><path fill="rgb(0,0,0)" stroke="rgb(0,0,0)" d="M 0,0 L 10,-5 L 5,0 L 10,5 Z" fill-opacity="1" stroke-opacity="1" stroke-width="2" stroke-linecap="butt" stroke-linejoin="miter" stroke-miterlimit="10" id="ygc83_21"/><path fill="rgb(0,0,0)" stroke="rgb(0,0,0)" d="M 0,0 L 10,-5 L 5,0 L 10,5 Z" fill-opacity="1" stroke-opacity="1" stroke-width="2" stroke-linecap="butt" stroke-linejoin="miter" stroke-miterlimit="10" id="ygc83_22"/><path fill="rgb(0,0,0)" stroke="rgb(0,0,0)" d="M 0,0 L 10,-5 L 5,0 L 10,5 Z" fill-opacity="1" stroke-opacity="1" stroke-width="2" stroke-linecap="butt" stroke-linejoin="miter" stroke-miterlimit="10" id="ygc83_23"/><path fill="rgb(0,0,0)" stroke="rgb(0,0,0)" d="M 0,0 L 10,-5 L 5,0 L 10,5 Z" fill-opacity="1" stroke-opacity="1" stroke-width="2" stroke-linecap="butt" stroke-linejoin="miter" stroke-miterlimit="10" id="ygc83_24"/><path fill="rgb(0,0,0)" stroke="rgb(0,0,0)" d="M 0,0 L 10,-5 L 5,0 L 10,5 Z" fill-opacity="1" stroke-opacity="1" stroke-width="2" stroke-linecap="butt" stroke-linejoin="miter" stroke-miterlimit="10" id="ygc83_25"/><path fill="rgb(192,192,192)" stroke="rgb(192,192,192)" d="M 0,0 L 10,-5 L 5,0 L 10,5 Z" fill-opacity="1" stroke-opacity="1" stroke-width="1" stroke-linecap="butt" stroke-linejoin="miter" stroke-miterlimit="10" id="ygc83_26"/><path fill="rgb(192,192,192)" stroke="rgb(192,192,192)" d="M 0,0 L 10,-5 L 5,0 L 10,5 Z" fill-opacity="1" stroke-opacity="1" stroke-width="1" stroke-linecap="butt" stroke-linejoin="miter" stroke-miterlimit="10" id="ygc83_27"/><linearGradient x1="0" y1="0" x2="1" y2="1" spreadMethod="pad" id="ygc83_28"><stop stop-color="rgb(153,204,255)" stop-opacity="1" offset="0"/><stop stop-color="rgb(153,204,255)" stop-opacity="1" offset="1"/></linearGradient><linearGradient x1="0" y1="0" x2="1" y2="1" spreadMethod="pad" id="ygc83_29"><stop stop-color="rgb(153,204,255)" stop-opacity="1" offset="0"/><stop stop-color="rgb(153,204,255)" stop-opacity="1" offset="1"/></linearGradient><linearGradient x1="0" y1="0" x2="1" y2="1" spreadMethod="pad" id="ygc83_30"><stop stop-color="rgb(153,204,255)" stop-opacity="1" offset="0"/><stop stop-color="rgb(153,204,255)" stop-opacity="1" offset="1"/></linearGradient><linearGradient x1="0" y1="0" x2="1" y2="1" spreadMethod="pad" id="ygc83_31"><stop stop-color="rgb(153,204,255)" stop-opacity="1" offset="0"/><stop stop-color="rgb(153,204,255)" stop-opacity="1" offset="1"/></linearGradient><linearGradient x1="0" y1="0" x2="1" y2="1" spreadMethod="pad" id="ygc83_32"><stop stop-color="rgb(153,204,255)" stop-opacity="1" offset="0"/><stop stop-color="rgb(153,204,255)" stop-opacity="1" offset="1"/></linearGradient><linearGradient x1="0" y1="0" x2="1" y2="1" spreadMethod="pad" id="ygc83_33"><stop stop-color="rgb(255,255,255)" stop-opacity="1" offset="0"/><stop stop-color="rgb(255,255,255)" stop-opacity="1" offset="1"/></linearGradient><linearGradient x1="0" y1="0" x2="1" y2="1" spreadMethod="pad" id="ygc83_34"><stop stop-color="rgb(255,255,255)" stop-opacity="1" offset="0"/><stop stop-color="rgb(255,255,255)" stop-opacity="1" offset="1"/></linearGradient><linearGradient x1="0" y1="0" x2="1" y2="1" spreadMethod="pad" id="ygc83_35"><stop stop-color="rgb(255,255,255)" stop-opacity="1" offset="0"/><stop stop-color="rgb(255,255,255)" stop-opacity="1" offset="1"/></linearGradient><linearGradient x1="0" y1="0" x2="1" y2="1" spreadMethod="pad" id="ygc83_36"><stop stop-color="rgb(255,255,255)" stop-opacity="1" offset="0"/><stop stop-color="rgb(255,255,255)" stop-opacity="1" offset="1"/></linearGradient><linearGradient x1="0" y1="0" x2="1" y2="1" spreadMethod="pad" id="ygc83_37"><stop stop-color="rgb(255,255,255)" stop-opacity="0.9019607843137255" offset="0"/><stop stop-color="rgb(212,212,212)" stop-opacity="0.8" offset="1"/></linearGradient><linearGradient x1="0" y1="0" x2="1" y2="1" spreadMethod="pad" id="ygc83_38"><stop stop-color="rgb(255,255,255)" stop-opacity="1" offset="0"/><stop stop-color="rgb(255,255,255)" stop-opacity="1" offset="1"/></linearGradient></defs><g style="pointer-events:visiblePainted" transform="translate(-1687.6156106474602 -934.5927859189272)" image-rendering="auto" shape-rendering="auto"><g style="box-sizing:initial;"><g><path fill="none" stroke="rgb(0,0,0)" d="M 2156.3801386666655,1088.6288 L 2156.3801386666655,1119.6288" stroke-opacity="1" stroke-width="2" stroke-linecap="butt" stroke-linejoin="miter" stroke-miterlimit="1.45"/><use style="pointer-events: none;" transform="matrix(0 -1 1 0 2156.3801386666655 1124.6288)" xlink:href="#ygc83_0"/></g><g><path fill="none" stroke="rgb(192,192,192)" d="M 1782.548010666665,1068.6288 L 2110.3801386666655,1068.6288" stroke-opacity="1" stroke-width="1" stroke-dasharray="6,2" stroke-dashoffset="0" stroke-linecap="butt" stroke-linejoin="miter" stroke-miterlimit="1.45"/><use style="pointer-events: none;" transform="matrix(-1 0 0 -1 2115.3801386666655 1068.6288)" xlink:href="#ygc83_1"/></g><g><path fill="none" stroke="rgb(0,0,0)" d="M 2156.3801386666655,1010.6288 L 2156.3801386666655,1041.6288" stroke-opacity="1" stroke-width="2" stroke-linecap="butt" stroke-linejoin="miter" stroke-miterlimit="1.45"/><use style="pointer-events: none;" transform="matrix(0 -1 1 0 2156.3801386666655 1046.6288)" xlink:href="#ygc83_2"/></g><g><path fill="none" stroke="rgb(0,0,0)" d="M 2156.3801386666655,1166.6288 L 2156.3801386666655,1197.6288" stroke-opacity="1" stroke-width="2" stroke-linecap="butt" stroke-linejoin="miter" stroke-miterlimit="1.45"/><use style="pointer-events: none;" transform="matrix(0 -1 1 0 2156.3801386666655 1202.6288)" xlink:href="#ygc83_3"/></g><g><path fill="none" stroke="rgb(192,192,192)" d="M 2003.3625386666656,1174.734200319405 L 2068.5161386666655,1146.6288 L 2110.3801386666655,1146.6288" stroke-opacity="1" stroke-width="1" stroke-dasharray="6,2" stroke-dashoffset="0" stroke-linecap="butt" stroke-linejoin="miter" stroke-miterlimit="1.45"/><use style="pointer-events: none;" transform="matrix(-1 0 0 -1 2115.3801386666655 1146.6288)" xlink:href="#ygc83_4"/></g><g><path fill="none" stroke="rgb(192,192,192)" d="M 2003.3625386666656,1182.2831999999999 L 2059.9145386666655,1182.2831999999999 L 2079.5753386666656,1224.6288 L 2110.3801386666655,1224.6288" stroke-opacity="1" stroke-width="1" stroke-dasharray="6,2" stroke-dashoffset="0" stroke-linecap="butt" stroke-linejoin="miter" stroke-miterlimit="1.45"/><use style="pointer-events: none;" transform="matrix(-1 0 0 -1 2115.3801386666655 1224.6288)" xlink:href="#ygc83_5"/></g><g><path fill="none" stroke="rgb(0,0,0)" d="M 2156.3801386666655,1244.6288 L 2156.3801386666655,1274.7615999999998" stroke-opacity="1" stroke-width="2" stroke-linecap="butt" stroke-linejoin="miter" stroke-miterlimit="1.45"/><use style="pointer-events: none;" transform="matrix(0 -1 1 0 2156.3801386666655 1279.7615999999998)" xlink:href="#ygc83_6"/></g><g><path fill="none" stroke="rgb(0,0,0)" d="M 2156.3801386666655,1321.7615999999998 L 2156.3801386666655,1431.6288" stroke-opacity="1" stroke-width="2" stroke-linecap="butt" stroke-linejoin="miter" stroke-miterlimit="1.45"/><use style="pointer-events: none;" transform="matrix(0 -1 1 0 2156.3801386666655 1436.6288)" xlink:href="#ygc83_7"/></g><g><path fill="none" stroke="rgb(192,192,192)" d="M 2003.3625386666656,1301.7615999999998 L 2110.3801386666655,1301.7615999999998" stroke-opacity="1" stroke-width="1" stroke-dasharray="6,2" stroke-dashoffset="0" stroke-linecap="butt" stroke-linejoin="miter" stroke-miterlimit="1.45"/><use style="pointer-events: none;" transform="matrix(-1 0 0 -1 2115.3801386666655 1301.7615999999998)" xlink:href="#ygc83_8"/></g><g><path fill="none" stroke="rgb(192,192,192)" d="M 1900.6458986666648,1458.6288 L 2110.3801386666655,1458.6288" stroke-opacity="1" stroke-width="1" stroke-dasharray="6,2" stroke-dashoffset="0" stroke-linecap="butt" stroke-linejoin="miter" stroke-miterlimit="1.45"/><use style="pointer-events: none;" transform="matrix(-1 0 0 -1 2115.3801386666655 1458.6288)" xlink:href="#ygc83_9"/></g><g><path fill="none" stroke="rgb(192,192,192)" d="M 1900.6458986666648,1384.6073422876757 L 1976.2857111973053,1450.3677566355227 L 2110.3801386666655,1450.3677566355227" stroke-opacity="1" stroke-width="1" stroke-dasharray="6,2" stroke-dashoffset="0" stroke-linecap="butt" stroke-linejoin="miter" stroke-miterlimit="1.45"/><use style="pointer-events: none;" transform="matrix(-1 0 0 -1 2115.3801386666655 1450.3677566355227)" xlink:href="#ygc83_10"/></g><g><path fill="none" stroke="rgb(192,192,192)" d="M 1893.1458986666648,1182.2831999999999 L 1962.3625386666656,1182.2831999999999" stroke-opacity="1" stroke-width="1" stroke-dasharray="6,2" stroke-dashoffset="0" stroke-linecap="butt" stroke-linejoin="miter" stroke-miterlimit="1.45"/><use style="pointer-events: none;" transform="matrix(-1 0 0 -1 1967.3625386666656 1182.2831999999999)" xlink:href="#ygc83_11"/></g><g><path fill="none" stroke="rgb(192,192,192)" d="M 1985.8625386666656,1209.7831999999999 L 1985.8625386666656,1268.2615999999998" stroke-opacity="1" stroke-width="1" stroke-dasharray="6,2" stroke-dashoffset="0" stroke-linecap="butt" stroke-linejoin="miter" stroke-miterlimit="1.45"/><use style="pointer-events: none;" transform="matrix(0 -1 1 0 1985.8625386666656 1273.2615999999998)" xlink:href="#ygc83_12"/></g><g><path fill="none" stroke="rgb(192,192,192)" d="M 1782.548010666665,1380.6288 L 1834.6458986666648,1380.6288" stroke-opacity="1" stroke-width="1" stroke-dasharray="6,2" stroke-dashoffset="0" stroke-linecap="butt" stroke-linejoin="miter" stroke-miterlimit="1.45"/><use style="pointer-events: none;" transform="matrix(-1 0 0 -1 1839.6458986666648 1380.6288)" xlink:href="#ygc83_13"/></g><g><path fill="none" stroke="rgb(192,192,192)" d="M 1782.548010666665,1393.603238235523 L 1796.3686039973052,1393.603238235523 L 1819.6338839973052,1458.6288 L 1834.6458986666648,1458.6288" stroke-opacity="1" stroke-width="1" stroke-dasharray="6,2" stroke-dashoffset="0" stroke-linecap="butt" stroke-linejoin="miter" stroke-miterlimit="1.45"/><use style="pointer-events: none;" transform="matrix(-1 0 0 -1 1839.6458986666648 1458.6288)" xlink:href="#ygc83_14"/></g><g><path fill="none" stroke="rgb(192,192,192)" d="M 1782.548010666665,1367.7165182355227 L 1799.3177239973052,1367.7165182355227 L 1821.2722839973053,1274.1132799999998 L 1834.6458986666648,1274.1132799999998" stroke-opacity="1" stroke-width="1" stroke-dasharray="6,2" stroke-dashoffset="0" stroke-linecap="butt" stroke-linejoin="miter" stroke-miterlimit="1.45"/><use style="pointer-events: none;" transform="matrix(-1 0 0 -1 1839.6458986666648 1274.1132799999998)" xlink:href="#ygc83_15"/></g><g><path fill="none" stroke="rgb(0,0,0)" d="M 2223.7545386666657,1055.6288 L 2223.7545386666657,1237.6288" stroke-opacity="1" stroke-width="2" stroke-linecap="butt" stroke-linejoin="miter" stroke-miterlimit="1.45"/><use style="pointer-events: none;" transform="matrix(0 -1 1 0 2223.7545386666657 1242.6288)" xlink:href="#ygc83_16"/><use style="pointer-events: none;" transform="matrix(0 1 -1 0 2223.7545386666657 1050.6288)" xlink:href="#ygc83_17"/></g><g><path fill="none" stroke="rgb(0,0,0)" d="M 2244.9033554995494,1055.634119575344 L 2244.9033554995494,1315.6288" stroke-opacity="1" stroke-width="2" stroke-linecap="butt" stroke-linejoin="miter" stroke-miterlimit="1.45"/><use style="pointer-events: none;" transform="matrix(0 -1 1 0 2244.9033554995494 1320.6288)" xlink:href="#ygc83_18"/><use style="pointer-events: none;" transform="matrix(0 1 -1 0 2244.9033554995494 1050.634119575344)" xlink:href="#ygc83_19"/></g><g><path fill="none" stroke="rgb(0,0,0)" d="M 2222.1161386666654,1288.7615999999998 L 2222.116138666665,1472.640350697554" stroke-opacity="1" stroke-width="2" stroke-linecap="butt" stroke-linejoin="miter" stroke-miterlimit="1.45"/><use style="pointer-events: none;" transform="matrix(2.4730826654050843e-15 -1 1 2.4730826654050843e-15 2222.116138666665 1477.640350697554)" xlink:href="#ygc83_20"/><use style="pointer-events: none;" transform="matrix(-2.4730826654050843e-15 1 -1 -2.4730826654050843e-15 2222.1161386666654 1283.7615999999998)" xlink:href="#ygc83_21"/></g><g><path fill="none" stroke="rgb(0,0,0)" d="M 2283.740378822399,1210.7616 L 2283.740378822399,1237.8365182355228" stroke-opacity="1" stroke-width="2" stroke-linecap="butt" stroke-linejoin="miter" stroke-miterlimit="1.45"/><use style="pointer-events: none;" transform="matrix(0 -1 1 0 2283.740378822399 1242.8365182355228)" xlink:href="#ygc83_22"/><use style="pointer-events: none;" transform="matrix(0 1 -1 0 2283.740378822399 1205.7616)" xlink:href="#ygc83_23"/></g><g><path fill="none" stroke="rgb(0,0,0)" d="M 2267.244763997305,1210.7616 L 2267.2447639973047,1472.640350697554" stroke-opacity="1" stroke-width="2" stroke-linecap="butt" stroke-linejoin="miter" stroke-miterlimit="1.45"/><use style="pointer-events: none;" transform="matrix(1.7364805264847775e-15 -1 1 1.7364805264847775e-15 2267.2447639973047 1477.640350697554)" xlink:href="#ygc83_24"/><use style="pointer-events: none;" transform="matrix(-1.7364805264847775e-15 1 -1 -1.7364805264847775e-15 2267.244763997305 1205.7616)" xlink:href="#ygc83_25"/></g><g><path fill="none" stroke="rgb(192,192,192)" d="M 1870.6458986666648,1258.69376 L 1870.6458986666648,1210.7831999999999" stroke-opacity="1" stroke-width="1" stroke-dasharray="6,2" stroke-dashoffset="0" stroke-linecap="butt" stroke-linejoin="miter" stroke-miterlimit="1.45"/><use style="pointer-events: none;" transform="matrix(0 1 -1 0 1870.6458986666648 1205.7831999999999)" xlink:href="#ygc83_26"/></g><g><path fill="none" stroke="rgb(192,192,192)" d="M 1782.548010666665,1182.2831999999999 L 1842.1458986666648,1182.2831999999999" stroke-opacity="1" stroke-width="1" stroke-dasharray="6,2" stroke-dashoffset="0" stroke-linecap="butt" stroke-linejoin="miter" stroke-miterlimit="1.45"/><use style="pointer-events: none;" transform="matrix(-1 0 0 -1 1847.1458986666648 1182.2831999999999)" xlink:href="#ygc83_27"/></g><g><path d="M 2116.3801386666655,1048.6288 L 2196.3801386666655,1048.6288 L 2196.3801386666655,1088.6288 L 2116.3801386666655,1088.6288 Z" stroke="rgb(0,0,0)" stroke-opacity="1" stroke-width="1" stroke-linecap="butt" stroke-linejoin="miter" stroke-miterlimit="1.45" fill="url(#ygc83_28)"/></g><g transform="translate(2138.9200175118804 1052.284685696411)"><text font-family="Arial" font-size="12px" font-style="normal" font-weight="normal" text-decoration="none" text-anchor="middle" fill="rgb(0,0,0)" fill-opacity="1" transform="translate(18.5 0)"><tspan dy="0.9166666666666666em" x="0">BL1</tspan><tspan dy="1.5em" x="0">(ROM)</tspan></text></g><g><path d="M 2116.3801386666655,1126.6288 L 2196.3801386666655,1126.6288 L 2196.3801386666655,1166.6288 L 2116.3801386666655,1166.6288 Z" stroke="rgb(0,0,0)" stroke-opacity="1" stroke-width="1" stroke-linecap="butt" stroke-linejoin="miter" stroke-miterlimit="1.45" fill="url(#ygc83_29)"/></g><g transform="translate(2145.90407207731 1138.4567428482055)"><text font-family="Arial" font-size="12px" font-style="normal" font-weight="normal" text-decoration="none" text-anchor="middle" fill="rgb(0,0,0)" fill-opacity="1" dy="0.9166666666666666em" transform="translate(11 0)">BL2</text></g><g><path d="M 2116.3801386666655,1204.6288 L 2196.3801386666655,1204.6288 L 2196.3801386666655,1244.6288 L 2116.3801386666655,1244.6288 Z" stroke="rgb(0,0,0)" stroke-opacity="1" stroke-width="1" stroke-linecap="butt" stroke-linejoin="miter" stroke-miterlimit="1.45" fill="url(#ygc83_30)"/></g><g transform="translate(2142.4720499825835 1216.4567428482055)"><text font-family="Arial" font-size="12px" font-style="normal" font-weight="normal" text-decoration="none" text-anchor="middle" fill="rgb(0,0,0)" fill-opacity="1" dy="0.9166666666666666em" transform="translate(14.5 0)">BL31</text></g><g><path d="M 2116.3801386666655,1281.7615999999998 L 2196.3801386666655,1281.7615999999998 L 2196.3801386666655,1321.7615999999998 L 2116.3801386666655,1321.7615999999998 Z" stroke="rgb(0,0,0)" stroke-opacity="1" stroke-width="1" stroke-linecap="butt" stroke-linejoin="miter" stroke-miterlimit="1.45" fill="url(#ygc83_31)"/></g><g transform="translate(2126.7819483590483 1285.417485696411)"><text font-family="Arial" font-size="12px" font-style="normal" font-weight="normal" text-decoration="none" text-anchor="middle" fill="rgb(0,0,0)" fill-opacity="1" transform="translate(29.5 0)"><tspan dy="0.9166666666666666em" x="0">BL33</tspan><tspan dy="1.5em" x="0">(Linux/FIT)</tspan></text></g><g><path d="M 2116.3801386666655,1438.6288 L 2196.3801386666655,1438.6288 L 2196.3801386666655,1478.6288 L 2116.3801386666655,1478.6288 Z" stroke="rgb(0,0,0)" stroke-opacity="1" stroke-width="1" stroke-linecap="butt" stroke-linejoin="miter" stroke-miterlimit="1.45" fill="url(#ygc83_32)"/></g><g transform="translate(2128.0599253487944 1450.4567428482055)"><text font-family="Arial" font-size="12px" font-style="normal" font-weight="normal" text-decoration="none" text-anchor="middle" fill="rgb(0,0,0)" fill-opacity="1" dy="0.9166666666666666em" transform="translate(26.5 0)">Full rootfs</text></g><g transform="translate(1968.3625386666656 1154.7831999999999)"><g transform="translate(0 0)"><path d="M 0 0&#xA;       L 21 0&#xA;       L 35 14&#xA;       L 35 55&#xA;       L 0 55&#xA;       Z" stroke="rgb(0,0,0)" stroke-opacity="1" stroke-width="1" stroke-linecap="butt" stroke-linejoin="miter" stroke-miterlimit="10" fill="rgb(255,255,153)" fill-opacity="1"/><path d="M 21 0&#xA;       L 21 14&#xA;       L 35 14" stroke="rgb(0,0,0)" stroke-opacity="1" stroke-width="1" stroke-linecap="butt" stroke-linejoin="miter" stroke-miterlimit="10" fill="rgb(255,255,153)" fill-opacity="1"/></g></g><g transform="translate(1977.0844777535797 1174.1111428482054)"><text font-family="Arial" font-size="12px" font-style="normal" font-weight="normal" text-decoration="none" text-anchor="middle" fill="rgb(0,0,0)" fill-opacity="1" dy="0.9166666666666666em" transform="translate(9.5 0)">FIP</text></g><g><path d="M 1840.6458986666648,1370.34912 C 1842.4458986666648,1363.496 1898.8458986666649,1363.496 1900.6458986666648,1370.34912 L 1900.6458986666648,1390.90848 C 1898.8458986666649,1397.7615999999998 1842.4458986666648,1397.7615999999998 1840.6458986666648,1390.90848 Z" stroke="rgb(0,0,0)" stroke-opacity="1" stroke-width="1" stroke-linecap="butt" stroke-linejoin="miter" stroke-miterlimit="1.45" fill="url(#ygc83_33)"/><path d="M 1900.6458986666648,1370.34912 C 1898.8458986666649,1377.20224 1842.4458986666648,1377.20224 1840.6458986666648,1370.34912" stroke="rgb(0,0,0)" stroke-opacity="1" stroke-width="1" stroke-linecap="butt" stroke-linejoin="miter" stroke-miterlimit="1.45" fill="url(#ygc83_33)"/></g><g transform="translate(1846.3457277682273 1395.8084815351258)"><text font-family="Arial" font-size="12px" font-style="normal" font-weight="normal" text-decoration="none" text-anchor="middle" fill="rgb(0,0,0)" fill-opacity="1" transform="translate(21.5 0)"><tspan dy="0.9166666666666666em" x="0">ext4</tspan><tspan dy="1.5em" x="0">partition</tspan></text></g><g transform="translate(1722.548010666665 1353.1288)"><g transform="translate(0 0)"><path d="M 0,6.875 L 0,48.125 C 0,55 60,55 60,48.125 L 60,6.875 C 60,0 0,0 0,6.875 Z" stroke="rgb(0,0,0)" stroke-opacity="1" stroke-width="1" stroke-linecap="butt" stroke-linejoin="miter" stroke-miterlimit="10" fill="rgb(255,255,255)" fill-opacity="0.9019607843137255" transform="translate(0 0)"/><path d="M 0,6.875 C 0,13.75 60,13.75 60,6.875 M 0,10.725 C 0,17.6 60,17.6 60,10.725 M 0,14.575000000000001 C 0,21.45 60,21.45 60,14.575000000000001" stroke="rgb(0,0,0)" stroke-opacity="1" stroke-width="1" stroke-linecap="butt" stroke-linejoin="miter" stroke-miterlimit="10" fill="rgb(255,255,255)" fill-opacity="0" transform="translate(0 0)"/></g></g><g transform="translate(1734.4878757789697 1414.1288)"><text font-family="Arial" font-size="12px" font-style="normal" font-weight="normal" text-decoration="none" text-anchor="middle" fill="rgb(0,0,0)" fill-opacity="1" dy="0.9166666666666666em" transform="translate(18 0)">eMMC</text></g><g transform="translate(1968.3625386666656 1274.2615999999998)"><g transform="translate(0 0)"><path d="M 0 0&#xA;       L 21 0&#xA;       L 35 14&#xA;       L 35 55&#xA;       L 0 55&#xA;       Z" stroke="rgb(0,0,0)" stroke-opacity="1" stroke-width="1" stroke-linecap="butt" stroke-linejoin="miter" stroke-miterlimit="10" fill="rgb(204,255,255)" fill-opacity="1"/><path d="M 21 0&#xA;       L 21 14&#xA;       L 35 14" stroke="rgb(0,0,0)" stroke-opacity="1" stroke-width="1" stroke-linecap="butt" stroke-linejoin="miter" stroke-miterlimit="10" fill="rgb(204,255,255)" fill-opacity="1"/></g></g><g transform="translate(1977.378484101236 1293.5895428482054)"><text font-family="Arial" font-size="12px" font-style="normal" font-weight="normal" text-decoration="none" text-anchor="middle" fill="rgb(0,0,0)" fill-opacity="1" dy="0.9166666666666666em" transform="translate(9.5 0)">FIT</text></g><g><path d="M 1840.6458986666648,1448.34912 C 1842.4458986666648,1441.496 1898.8458986666649,1441.496 1900.6458986666648,1448.34912 L 1900.6458986666648,1468.90848 C 1898.8458986666649,1475.7615999999998 1842.4458986666648,1475.7615999999998 1840.6458986666648,1468.90848 Z" stroke="rgb(0,0,0)" stroke-opacity="1" stroke-width="1" stroke-linecap="butt" stroke-linejoin="miter" stroke-miterlimit="1.45" fill="url(#ygc83_34)"/><path d="M 1900.6458986666648,1448.34912 C 1898.8458986666649,1455.20224 1842.4458986666648,1455.20224 1840.6458986666648,1448.34912" stroke="rgb(0,0,0)" stroke-opacity="1" stroke-width="1" stroke-linecap="butt" stroke-linejoin="miter" stroke-miterlimit="1.45" fill="url(#ygc83_34)"/></g><g transform="translate(1846.3457277682273 1473.8084815351258)"><text font-family="Arial" font-size="12px" font-style="normal" font-weight="normal" text-decoration="none" text-anchor="middle" fill="rgb(0,0,0)" fill-opacity="1" transform="translate(21.5 0)"><tspan dy="0.9166666666666666em" x="0">ext4</tspan><tspan dy="1.5em" x="0">partition</tspan></text></g><g><path d="M 1722.548010666665,1056.6288 C 1724.348010666665,1048.6288 1780.748010666665,1048.6288 1782.548010666665,1056.6288 L 1782.548010666665,1080.6288 C 1780.748010666665,1088.6288 1724.348010666665,1088.6288 1722.548010666665,1080.6288 Z" stroke="rgb(0,0,0)" stroke-opacity="1" stroke-width="1" stroke-linecap="butt" stroke-linejoin="miter" stroke-miterlimit="1.45" fill="url(#ygc83_35)"/><path d="M 1782.548010666665,1056.6288 C 1780.748010666665,1064.6288 1724.348010666665,1064.6288 1722.548010666665,1056.6288" stroke="rgb(0,0,0)" stroke-opacity="1" stroke-width="1" stroke-linecap="butt" stroke-linejoin="miter" stroke-miterlimit="1.45" fill="url(#ygc83_35)"/></g><g transform="translate(1715.995749314126 1088.4367428482055)"><text font-family="Arial" font-size="12px" font-style="normal" font-weight="normal" text-decoration="none" text-anchor="middle" fill="rgb(0,0,0)" fill-opacity="1" dy="0.9166666666666666em" transform="translate(36.5 0)">OnChip ROM</text></g><g><path d="M 2196.380138666666,1008.6288 L 2276.380138666666,1008.6288 L 2276.380138666666,1048.6288 L 2196.380138666666,1048.6288 Z" stroke="rgb(255,255,255)" stroke-opacity="0" stroke-width="1" stroke-linecap="butt" stroke-linejoin="miter" stroke-miterlimit="10" fill="rgb(255,255,255)" fill-opacity="0"/></g><g transform="translate(2236.380138666666 1028.6288)"/><g><path d="M 2196.380138666666,1322.6288 L 2276.380138666666,1322.6288 L 2276.380138666666,1362.6288 L 2196.380138666666,1362.6288 Z" stroke="rgb(255,255,255)" stroke-opacity="0" stroke-width="1" stroke-linecap="butt" stroke-linejoin="miter" stroke-miterlimit="10" fill="rgb(255,255,255)" fill-opacity="0"/></g><g transform="translate(2236.380138666666 1342.6288)"/><g><path d="M 2196.380138666666,1244.6288 L 2276.380138666666,1244.6288 L 2276.380138666666,1281.7615999999998 L 2196.380138666666,1281.7615999999998 Z" stroke="rgb(255,255,255)" stroke-opacity="0" stroke-width="1" stroke-linecap="butt" stroke-linejoin="miter" stroke-miterlimit="10" fill="rgb(255,255,255)" fill-opacity="0"/></g><g transform="translate(2236.380138666666 1263.1951999999999)"/><g><path d="M 2196.380138666666,1167.4877934592 L 2309.095709866666,1167.4877934592 L 2309.095709866666,1203.7616 L 2196.380138666666,1203.7616 Z" stroke="rgb(255,255,255)" stroke-opacity="0" stroke-width="1" stroke-linecap="butt" stroke-linejoin="miter" stroke-miterlimit="10" fill="rgb(255,255,255)" fill-opacity="0"/></g><g transform="translate(2252.7379242666657 1185.6246967296001)"/><g><path d="M 2196.7319823875537,1479.640350697554 L 2309.4475535875536,1479.640350697554 L 2309.4475535875536,1516.7731506975538 L 2196.7319823875537,1516.7731506975538 Z" stroke="rgb(255,255,255)" stroke-opacity="0" stroke-width="1" stroke-linecap="butt" stroke-linejoin="miter" stroke-miterlimit="10" fill="rgb(255,255,255)" fill-opacity="0"/></g><g transform="translate(2253.0897679875534 1498.2067506975538)"/><g><path d="M 1840.6458986666648,1263.8336 C 1842.4458986666648,1256.98048 1898.8458986666649,1256.98048 1900.6458986666648,1263.8336 L 1900.6458986666648,1284.39296 C 1898.8458986666649,1291.24608 1842.4458986666648,1291.24608 1840.6458986666648,1284.39296 Z" stroke="rgb(0,0,0)" stroke-opacity="1" stroke-width="1" stroke-linecap="butt" stroke-linejoin="miter" stroke-miterlimit="1.45" fill="url(#ygc83_36)"/><path d="M 1900.6458986666648,1263.8336 C 1898.8458986666649,1270.68672 1842.4458986666648,1270.68672 1840.6458986666648,1263.8336" stroke="rgb(0,0,0)" stroke-opacity="1" stroke-width="1" stroke-linecap="butt" stroke-linejoin="miter" stroke-miterlimit="1.45" fill="url(#ygc83_36)"/></g><g transform="translate(1846.3457277682273 1289.2929615351254)"><text font-family="Arial" font-size="12px" font-style="normal" font-weight="normal" text-decoration="none" text-anchor="middle" fill="rgb(0,0,0)" fill-opacity="1" transform="translate(21.5 0)"><tspan dy="0.9166666666666666em" x="0">raw</tspan><tspan dy="1.5em" x="0">partition</tspan></text></g><g transform="translate(1848.1458986666648 1159.7831999999999)"><path d="M 22.5,0 L 45,22.5 L 22.5,45 L 0,22.5 Z" stroke="rgb(227,139,0)" stroke-opacity="1" stroke-width="1" stroke-linecap="butt" stroke-linejoin="miter" stroke-miterlimit="10" fill="rgb(255,255,255)" fill-opacity="0.9019607843137255" transform="translate(0 0)"/></g><g transform="translate(1864.5378511813133 1174.1111428482054)"><text font-family="Arial" font-size="12px" font-style="normal" font-weight="normal" text-decoration="none" text-anchor="middle" fill="rgb(0,0,0)" fill-opacity="1" dy="0.9166666666666666em" transform="translate(5.5 0)">or</text></g><g transform="translate(2141.3801386666655 980.6288)"><g transform="translate(0 0)"><path d="M 15,30 C 6.71572875253809,30 0,23.284271247461913 0,15 C 0,6.71572875253809 6.71572875253809,0 15,0 C 23.284271247461913,0 30,6.71572875253809 30,15 C 30,23.284271247461913 23.284271247461913,30 15,30 Z" stroke="rgb(39,174,39)" stroke-opacity="1" stroke-width="1" stroke-linecap="butt" stroke-linejoin="miter" stroke-miterlimit="10" fill="url(#ygc83_37)" transform="translate(0 0)"/><path d="M 18.446399999999997,3.1536 L 12.614399999999998,11.8584 L 8.315999999999999,5.183999999999999 L 3.1536,18.446399999999997 L 8.985599999999998,9.7416 L 13.283999999999999,16.415999999999997 Z" stroke="rgb(0,0,0)" stroke-opacity="1" stroke-width="1" stroke-linecap="butt" stroke-linejoin="miter" stroke-miterlimit="10" fill="rgb(255,255,255)" fill-opacity="0" transform="translate(4.199999999999999 4.199999999999999)"/></g></g><g transform="translate(2156.3801386666655 1016.6288)"/><g><path d="M 1722.548010666665,1170.2831999999999 C 1724.348010666665,1162.2831999999999 1780.748010666665,1162.2831999999999 1782.548010666665,1170.2831999999999 L 1782.548010666665,1194.2831999999999 C 1780.748010666665,1202.2831999999999 1724.348010666665,1202.2831999999999 1722.548010666665,1194.2831999999999 Z" stroke="rgb(192,192,192)" stroke-opacity="1" stroke-width="1" stroke-linecap="butt" stroke-linejoin="miter" stroke-miterlimit="1.45" fill="url(#ygc83_38)"/><path d="M 1782.548010666665,1170.2831999999999 C 1780.748010666665,1178.2831999999999 1724.348010666665,1178.2831999999999 1722.548010666665,1170.2831999999999" stroke="rgb(192,192,192)" stroke-opacity="1" stroke-width="1" stroke-linecap="butt" stroke-linejoin="miter" stroke-miterlimit="1.45" fill="url(#ygc83_38)"/></g><g transform="translate(1739.5699146583643 1202.0911428482054)"><text font-family="Arial" font-size="12px" font-style="normal" font-weight="normal" text-decoration="none" text-anchor="middle" fill="rgb(0,0,0)" fill-opacity="1" dy="0.9166666666666666em" transform="translate(13.5 0)">NOR</text></g><g transform="matrix(6.123233995736766e-17 1 -1 6.123233995736766e-17 2237.5462146614564 1093.2851645132087)"><text font-family="Arial" font-size="10px" font-style="normal" font-weight="normal" text-decoration="none" text-anchor="middle" fill="rgb(0,0,0)" fill-opacity="1" dy="1em" transform="translate(54.5 0)">Buildt from TFA Sources</text></g><g transform="matrix(6.123233995736766e-17 1 -1 6.123233995736766e-17 2258.1708786865993 1090.4649379342777)"><text font-family="Arial" font-size="10px" font-style="normal" font-weight="normal" text-decoration="none" text-anchor="middle" fill="rgb(0,0,0)" fill-opacity="1" dy="1em" transform="translate(100 0)">Authenticated and optional encrypted by TFA</text></g><g transform="matrix(6.123233995736766e-17 1 -1 6.123233995736766e-17 2176.176950380206 1106.7823178188592)"/><g transform="matrix(6.123233995736766e-17 1 -1 6.123233995736766e-17 2176.176950380206 1184.782317818859)"/><g transform="matrix(6.123233995736766e-17 1 -1 6.123233995736766e-17 2176.176950380206 1376.5164085483284)"/><g transform="translate(2038.5410308489563 1135.6180052022175)"><text font-family="Arial" font-size="8px" font-style="normal" font-weight="normal" text-decoration="none" text-anchor="middle" fill="rgb(0,0,0)" fill-opacity="1" transform="translate(30 0)"><tspan dy="1em" x="0">BL2 is relocated</tspan><tspan dy="1.5em" x="0">to SRAM by BL1</tspan></text></g><g transform="translate(2031.8363029635707 1172.2828143865374)"><text font-family="Arial" font-size="8px" font-style="normal" font-weight="normal" text-decoration="none" text-anchor="middle" fill="rgb(0,0,0)" fill-opacity="1" transform="translate(41 0)"><tspan dy="1em" x="0">BL31 is relocated to</tspan><tspan dy="1.5em" x="0">encrypted DDR by BL2</tspan></text></g><g transform="translate(1810.0180059388897 1362.8320158203123)"/><g transform="translate(1821.003532336723 1415.3118513248828)"/><g transform="translate(2019.3449613177063 1278.761603320312)"><text font-family="Arial" font-size="8px" font-style="normal" font-weight="normal" text-decoration="none" text-anchor="middle" fill="rgb(0,0,0)" fill-opacity="1" transform="translate(40.5 0)"><tspan dy="1em" x="0">BL31 will load the</tspan><tspan dy="1.5em" x="0">kernel, DT and initrd</tspan><tspan dy="1.5em" x="0">from the FIT, and</tspan><tspan dy="1.5em" x="0">relocated it as needed.</tspan></text></g><g transform="translate(1910.2561581109076 1044.8320158203123)"><text font-family="Arial" font-size="8px" font-style="normal" font-weight="normal" text-decoration="none" text-anchor="middle" fill="rgb(0,0,0)" fill-opacity="1" transform="translate(30 0)"><tspan dy="1em" x="0">Execute in-place</tspan><tspan dy="1.5em" x="0">from ROM</tspan></text></g><g transform="matrix(6.123233995736766e-17 1 -1 6.123233995736766e-17 2236.4321303958313 1343.2584434082423)"><text font-family="Arial" font-size="10px" font-style="normal" font-weight="normal" text-decoration="none" text-anchor="middle" fill="rgb(0,0,0)" fill-opacity="1" dy="1em" transform="translate(44.5 0)">Buildt from buildroot</text></g><g transform="matrix(6.123233995736766e-17 1 -1 6.123233995736766e-17 2282.0850069477356 1285.3525759032552)"><text font-family="Arial" font-size="10px" font-style="normal" font-weight="normal" text-decoration="none" text-anchor="middle" fill="rgb(0,0,0)" fill-opacity="1" dy="1em" transform="translate(62 0)">Running from DDR memory</text></g><g transform="matrix(6.123233995736766e-17 1 -1 6.123233995736766e-17 2302.6731412258814 1199.455322432335)"><text font-family="Arial" font-size="10px" font-style="normal" font-weight="normal" text-decoration="none" text-anchor="middle" fill="rgb(0,0,0)" fill-opacity="1" dy="1em" transform="translate(35 0)">Encrypted DDR</text></g><g transform="translate(1901.7791456536424 1159.2831968749997)"><text font-family="Arial" font-size="8px" font-style="normal" font-weight="normal" text-decoration="none" text-anchor="middle" fill="rgb(0,0,0)" fill-opacity="1" transform="translate(29 0)"><tspan dy="1em" x="0">Depending on</tspan><tspan dy="1.5em" x="0">strapping, FIP is</tspan><tspan dy="1.5em" x="0">loaded from SD,</tspan><tspan dy="1.5em" x="0">eMMC or NOR</tspan></text></g><g transform="translate(1870.6459233098922 1244.9407194921876)"/><g transform="translate(1794.7279734493277 1362.7164837366704)"/><g transform="translate(1970.5555569711826 1427.379273727886)"><text font-family="Arial" font-size="8px" font-style="normal" font-weight="normal" text-decoration="none" text-anchor="middle" fill="rgb(0,0,0)" fill-opacity="1" transform="translate(62.5 0)"><tspan dy="1em" x="0">Kernel cmd-line can request the</tspan><tspan dy="1.5em" x="0">kernel to mount the rootfs, or</tspan><tspan dy="1.5em" x="0">the initrd program can do the</tspan><tspan dy="1.5em" x="0">mounting of one or more partitions.</tspan></text></g><g transform="translate(2103.4228703802064 965.1707217392401)"><text font-family="Arial" font-size="12px" font-style="normal" font-weight="normal" text-decoration="none" text-anchor="middle" fill="rgb(0,0,0)" fill-opacity="1" dy="0.9166666666666666em" transform="translate(51.5 0)">Power on (or reset)</text></g><g transform="translate(1936.000928505206 1219.0680862416953)"><text font-family="Arial" font-size="8px" font-style="normal" font-weight="normal" text-decoration="none" text-anchor="middle" fill="rgb(0,0,0)" fill-opacity="1" transform="translate(51.5 0)"><tspan dy="1em" x="0">BL2 loads the BL33 blob into</tspan><tspan dy="1.5em" x="0">DDR memory, and give a</tspan><tspan dy="1.5em" x="0">pointer to BL31</tspan></text></g><g transform="matrix(6.123233995736766e-17 1 -1 6.123233995736766e-17 2176.176950380206 1262.3758189362281)"/><g transform="translate(1787.8323432630175 1159.2831968749997)"><text font-family="Arial" font-size="8px" font-style="normal" font-weight="normal" text-decoration="none" text-anchor="middle" fill="rgb(0,0,0)" fill-opacity="1" transform="translate(28.5 0)"><tspan dy="1em" x="0">Often the NOR</tspan><tspan dy="1.5em" x="0">will be too small</tspan><tspan dy="1.5em" x="0">to contain a full</tspan><tspan dy="1.5em" x="0">FIP and FIT</tspan></text></g></g></g></svg>