<?xml version="1.0" encoding="UTF-8" standalone="no"?>
<!DOCTYPE svg PUBLIC "-//W3C//DTD SVG 1.1//EN" "http://www.w3.org/Graphics/SVG/1.1/DTD/svg11.dtd">
<!-- Generated by Microsoft Visio, SVG Export ERPS-configuration.svg Page-1 -->
<svg xmlns="http://www.w3.org/2000/svg" xmlns:xlink="http://www.w3.org/1999/xlink" xmlns:ev="http://www.w3.org/2001/xml-events"
		xmlns:v="http://schemas.microsoft.com/visio/2003/SVGExtensions/" width="6.13036in" height="3.75136in"
		viewBox="0 0 441.386 270.098" xml:space="preserve" color-interpolation-filters="sRGB" class="st14">
	<v:documentProperties v:langID="1033" v:metric="true" v:viewMarkup="false">
		<v:userDefs>
			<v:ud v:nameU="msvConvertTheme"/>
			<v:ud v:nameU="msvNoAutoConnect" v:val="VT0(1):26"/>
		</v:userDefs>
	</v:documentProperties>

	<style type="text/css">
	<![CDATA[
		.st1 {stroke:#000000;stroke-linecap:round;stroke-linejoin:round;stroke-width:1.2}
		.st2 {fill:none;stroke:#000000;stroke-linecap:round;stroke-linejoin:round;stroke-width:0.24}
		.st3 {fill:#ffffff;stroke:#000000;stroke-linecap:round;stroke-linejoin:round;stroke-width:0.24}
		.st4 {fill:none;stroke:none;stroke-linecap:round;stroke-linejoin:round;stroke-width:0.72}
		.st5 {fill:#000000;font-family:Arial;font-size:1.00001em}
		.st6 {font-size:1em}
		.st7 {fill:#000000;font-family:Arial;font-size:0.833336em}
		.st8 {marker-end:url(#mrkr3-30);stroke:#000000;stroke-linecap:round;stroke-linejoin:round;stroke-width:0.24}
		.st9 {fill:#000000;fill-opacity:1;stroke:#000000;stroke-opacity:1;stroke-width:0.08695652173913}
		.st10 {marker-end:url(#mrkr1-65);stroke:#000000;stroke-linecap:round;stroke-linejoin:round;stroke-width:0.24}
		.st11 {fill:#000000;font-family:Arial;font-size:0.499992em}
		.st12 {marker-end:url(#mrkr1-65);marker-start:url(#mrkr1-83);stroke:#000000;stroke-linecap:round;stroke-linejoin:round;stroke-width:0.24}
		.st13 {stroke:#000000;stroke-linecap:round;stroke-linejoin:round;stroke-width:0.24}
		.st14 {fill:none;fill-rule:evenodd;font-size:12px;overflow:visible;stroke-linecap:square;stroke-miterlimit:3}
	]]>
	</style>

	<defs id="Markers">
		<g id="lend3">
			<path d="M 2 1 L 0 0 L 2 -1 " style="stroke-linecap:round;stroke-linejoin:round;fill:none"/>
		</g>
		<marker id="mrkr3-30" class="st9" v:arrowType="3" v:arrowSize="2" orient="auto" markerUnits="strokeWidth"
				overflow="visible">
			<use xlink:href="#lend3" transform="scale(-11.5,-11.5) "/>
		</marker>
		<g id="lend1">
			<path d="M 1 -1 L 0 0 L 1 1 " style="stroke-linecap:round;stroke-linejoin:round;fill:none"/>
		</g>
		<marker id="mrkr1-65" class="st9" v:arrowType="1" v:arrowSize="2" orient="auto" markerUnits="strokeWidth"
				overflow="visible">
			<use xlink:href="#lend1" transform="scale(-11.5,-11.5) "/>
		</marker>
		<marker id="mrkr1-83" class="st9" v:arrowType="1" v:arrowSize="2" orient="auto" markerUnits="strokeWidth"
				overflow="visible">
			<use xlink:href="#lend1" transform="scale(11.5) "/>
		</marker>
	</defs>
	<g v:mID="0" v:index="1" v:groupContext="foregroundPage">
		<title>Page-1</title>
		<v:pageProperties v:drawingScale="0.0393701" v:pageScale="0.0393701" v:drawingUnits="24" v:shadowOffsetX="8.50394"
				v:shadowOffsetY="-8.50394"/>
		<v:layer v:name="Connector" v:index="0"/>
		<v:layer v:name="Flowchart" v:index="1"/>
		<g id="shape33-1" v:mID="33" v:groupContext="shape" transform="translate(116.053,-68.472) rotate(-0.0807142)">
			<title>Sheet.33</title>
			<path d="M0 270.1 L171.69 270.1" class="st1"/>
		</g>
		<g id="shape32-4" v:mID="32" v:groupContext="shape" transform="translate(113.355,-202.372) rotate(-0.0807142)">
			<title>Sheet.32</title>
			<path d="M0 270.1 L171.69 270.1" class="st1"/>
		</g>
		<g id="shape1-7" v:mID="1" v:groupContext="shape" transform="translate(104.659,-18.12)">
			<title>Sheet.1</title>
			<rect x="0" y="36.24" width="280.504" height="233.858" class="st2"/>
		</g>
		<g id="shape2-9" v:mID="2" v:groupContext="shape" transform="translate(90.835,-185.12)">
			<title>Sheet.2</title>
			<rect x="0" y="234.312" width="27.6482" height="35.786" class="st3"/>
		</g>
		<g id="shape4-11" v:mID="4" v:groupContext="shape" transform="translate(317.918,-135.042) rotate(0.407437)">
			<title>Sheet.4</title>
			<path d="M0 270.1 L55.6 270.1" class="st1"/>
		</g>
		<g id="shape19-14" v:mID="19" v:groupContext="shape" transform="translate(399.244,388.485) rotate(180)">
			<title>Sheet.19</title>
			<rect x="0" y="234.312" width="27.6482" height="35.786" class="st3"/>
		</g>
		<g id="shape28-16" v:mID="28" v:groupContext="shape" transform="translate(18.36,-188.199)">
			<title>Sheet.28</title>
			<desc>Ring link0 eth0</desc>
			<v:textBlock v:margins="rect(4,4,4,4)" v:tabSpace="42.5197"/>
			<v:textRect cx="35.2555" cy="258.334" width="70.52" height="23.5276"/>
			<rect x="0" y="246.571" width="70.511" height="23.5276" class="st4"/>
			<text x="8.91" y="254.73" class="st5" v:langID="1030"><v:paragraph v:horizAlign="1"/><v:tabList/>Ring link0<v:newlineChar/><tspan
						x="23.58" dy="1.2em" class="st6">eth0</tspan></text>		</g>
		<g id="shape26-20" v:mID="26" v:groupContext="shape" transform="translate(276.832,-140.551)">
			<title>Sheet.26</title>
			<desc>ERPS</desc>
			<v:textBlock v:margins="rect(4,4,4,4)" v:tabSpace="42.5197"/>
			<v:textRect cx="19.3233" cy="264.7" width="38.65" height="10.7975"/>
			<rect x="0" y="259.301" width="38.6467" height="10.7975" class="st4"/>
			<text x="5.71" y="267.7" class="st7" v:langID="1030"><v:paragraph v:horizAlign="1"/><v:tabList/>ERPS</text>		</g>
		<g id="shape5-23" v:mID="5" v:groupContext="shape" transform="translate(285.186,289.396) rotate(150)">
			<title>Triangle.5</title>
			<v:userDefs>
				<v:ud v:nameU="visVersion" v:val="VT0(12):26"/>
			</v:userDefs>
			<path d="M23.35 270.1 L10.84 248.42 L-1.68 270.1 L23.35 270.1 Z" class="st3"/>
		</g>
		<g id="shape18-25" v:mID="18" v:groupContext="shape" transform="translate(232.983,-135.211) rotate(0.202822)">
			<title>Sheet.18</title>
			<path d="M0 270.1 L46.18 270.1" class="st8"/>
		</g>
		<g id="shape20-31" v:mID="20" v:groupContext="shape" transform="translate(199.32,-129.167)">
			<title>Sheet.20</title>
			<desc>RAPS</desc>
			<v:textBlock v:margins="rect(4,4,4,4)" v:tabSpace="42.5197"/>
			<v:textRect cx="19.2178" cy="264.7" width="38.44" height="10.7975"/>
			<rect x="0" y="259.301" width="38.4356" height="10.7975" class="st4"/>
			<text x="5.6" y="267.7" class="st7" v:langID="1030"><v:paragraph v:horizAlign="1"/><v:tabList/>RAPS</text>		</g>
		<g id="shape6-34" v:mID="6" v:groupContext="shape" transform="translate(93.5324,-50.4084)">
			<title>Sheet.6</title>
			<rect x="0" y="234.312" width="27.6482" height="35.786" class="st3"/>
		</g>
		<g id="shape10-36" v:mID="10" v:groupContext="shape" transform="translate(18.36,-48.6297)">
			<title>Sheet.10</title>
			<desc>Ring link1 eth1</desc>
			<v:textBlock v:margins="rect(4,4,4,4)" v:tabSpace="42.5197"/>
			<v:textRect cx="36.6042" cy="255.906" width="73.21" height="28.3853"/>
			<rect x="0" y="241.713" width="73.2083" height="28.3853" class="st4"/>
			<text x="10.26" y="252.31" class="st5" v:langID="1030"><v:paragraph v:horizAlign="1"/><v:tabList/>Ring link1<v:newlineChar/><tspan
						x="24.93" dy="1.2em" class="st6">eth1</tspan></text>		</g>
		<g id="shape12-40" v:mID="12" v:groupContext="shape" transform="translate(284.619,423.904) rotate(150)">
			<title>Triangle.12</title>
			<v:userDefs>
				<v:ud v:nameU="visVersion" v:val="VT0(12):26"/>
			</v:userDefs>
			<path d="M23.35 270.1 L10.84 248.42 L-1.68 270.1 L23.35 270.1 Z" class="st3"/>
		</g>
		<g id="shape7-42" v:mID="7" v:groupContext="shape" transform="translate(548.301,32.2932) rotate(90)">
			<title>Ellipse.7</title>
			<v:userDefs>
				<v:ud v:nameU="visVersion" v:val="VT0(12):26"/>
			</v:userDefs>
			<path d="M0 251.2 A102.756 18.8976 0 1 1 205.51 251.2 A102.756 18.8976 0 0 1 0 251.2 Z" class="st3"/>
		</g>
		<g id="shape38-44" v:mID="38" v:groupContext="shape" transform="translate(268.586,-130.134)">
			<title>Sheet.38</title>
			<desc>VLANS</desc>
			<v:textBlock v:margins="rect(4,4,4,4)" v:tabSpace="42.5197"/>
			<v:textRect cx="28.4593" cy="264.7" width="56.92" height="10.7975"/>
			<rect x="0" y="259.301" width="56.9186" height="10.7975" class="st4"/>
			<text x="12.06" y="267.7" class="st7" v:langID="1030"><v:paragraph v:horizAlign="1"/><v:tabList/>VLANS</text>		</g>
		<g id="shape41-47" v:mID="41" v:groupContext="shape" transform="translate(126.701,-222.214)">
			<title>Sheet.41</title>
			<desc>MEP 1</desc>
			<v:textBlock v:margins="rect(4,4,4,4)" v:tabSpace="42.5197"/>
			<v:textRect cx="19.2178" cy="264.7" width="38.44" height="10.7975"/>
			<rect x="0" y="259.301" width="38.4356" height="10.7975" class="st4"/>
			<text x="4.21" y="267.7" class="st7" v:langID="1030"><v:paragraph v:horizAlign="1"/><v:tabList/>MEP 1</text>		</g>
		<g id="shape42-50" v:mID="42" v:groupContext="shape" transform="translate(124.958,-38.0839)">
			<title>Sheet.42</title>
			<desc>MEP 2</desc>
			<v:textBlock v:margins="rect(4,4,4,4)" v:tabSpace="42.5197"/>
			<v:textRect cx="19.2178" cy="264.7" width="38.44" height="10.7975"/>
			<rect x="0" y="259.301" width="38.4356" height="10.7975" class="st4"/>
			<text x="4.21" y="267.7" class="st7" v:langID="1030"><v:paragraph v:horizAlign="1"/><v:tabList/>MEP 2</text>		</g>
		<g id="shape43-53" v:mID="43" v:groupContext="shape" transform="translate(346.657,-160.374)">
			<title>Sheet.43</title>
			<desc>Traffic port</desc>
			<v:textBlock v:margins="rect(4,4,4,4)" v:tabSpace="42.5197"/>
			<v:textRect cx="38.1846" cy="264.7" width="76.37" height="10.7975"/>
			<rect x="0" y="259.301" width="76.3692" height="10.7975" class="st4"/>
			<text x="9.51" y="268.3" class="st5" v:langID="1030"><v:paragraph v:horizAlign="1"/><v:tabList/>Traffic port</text>		</g>
		<g id="shape45-56" v:mID="45" v:groupContext="shape" transform="translate(204.378,-117.244)">
			<title>Sheet.45</title>
			<rect x="0" y="234.312" width="27.6482" height="35.786" class="st2"/>
		</g>
		<g id="shape46-58" v:mID="46" v:groupContext="shape" v:layerMember="1" transform="translate(444.009,41.7046) rotate(90)">
			<title>Manual operation.28</title>
			<v:custProps>
				<v:cp v:nameU="Cost" v:lbl="Cost" v:type="7" v:format="@" v:langID="1033"/>
				<v:cp v:nameU="Duration" v:lbl="Duration" v:type="2" v:langID="1033"/>
				<v:cp v:nameU="Resources" v:lbl="Resources" v:langID="1033"/>
			</v:custProps>
			<v:userDefs>
				<v:ud v:nameU="AntiScale" v:val="VT0(1):26"/>
				<v:ud v:nameU="visVersion" v:val="VT0(12):26"/>
			</v:userDefs>
			<path d="M12.9 270.1 L38.69 270.1 L51.58 256.34 L0 256.34 L12.9 270.1 Z" class="st3"/>
		</g>
		<g id="shape47-60" v:mID="47" v:groupContext="shape" transform="translate(327.602,-131.476) rotate(40.6674)">
			<title>Sheet.47</title>
			<path d="M0 270.1 L69.6 270.1" class="st10"/>
		</g>
		<g id="shape48-66" v:mID="48" v:groupContext="shape" transform="translate(244.599,-159.782) rotate(27.8349)">
			<title>Sheet.48</title>
			<path d="M0 270.1 L97.13 270.1" class="st10"/>
		</g>
		<g id="shape49-71" v:mID="49" v:groupContext="shape" transform="translate(175.48,-163.053)">
			<title>Sheet.49</title>
			<desc>ccm-defect</desc>
			<v:textBlock v:margins="rect(4,4,4,4)" v:tabSpace="42.5197"/>
			<v:textRect cx="24.9044" cy="263.012" width="49.81" height="14.1732"/>
			<rect x="0" y="255.925" width="49.8088" height="14.1732" class="st4"/>
			<text x="10.23" y="264.81" class="st11" v:langID="1030"><v:paragraph v:horizAlign="1"/><v:tabList/>ccm-defect</text>		</g>
		<g id="shape50-74" v:mID="50" v:groupContext="shape" transform="translate(122.584,-159.215)">
			<title>Sheet.50</title>
			<desc>Link State</desc>
			<v:textBlock v:margins="rect(4,4,4,4)" v:tabSpace="42.5197"/>
			<v:textRect cx="24.9044" cy="263.012" width="49.81" height="14.1732"/>
			<rect x="0" y="255.925" width="49.8088" height="14.1732" class="st4"/>
			<text x="11.56" y="264.81" class="st11" v:langID="1030"><v:paragraph v:horizAlign="1"/><v:tabList/>Link State</text>		</g>
		<g id="shape51-77" v:mID="51" v:groupContext="shape" transform="translate(219.685,-153.071)">
			<title>Sheet.51</title>
			<path d="M9.35 270.1 L9.35 239.5 L0 239.5" class="st12"/>
		</g>
		<g id="shape53-85" v:mID="53" v:groupContext="shape" transform="translate(226.569,-162.992)">
			<title>Sheet.53</title>
			<desc>RAPS frames</desc>
			<v:textBlock v:margins="rect(4,4,4,4)" v:tabSpace="42.5197"/>
			<v:textRect cx="24.9044" cy="263.012" width="49.81" height="14.1732"/>
			<rect x="0" y="255.925" width="49.8088" height="14.1732" class="st4"/>
			<text x="6.73" y="264.81" class="st11" v:langID="1030"><v:paragraph v:horizAlign="1"/><v:tabList/>RAPS frames</text>		</g>
		<g id="shape54-88" v:mID="54" v:groupContext="shape" transform="translate(232.173,-138.592)">
			<title>Sheet.54</title>
			<desc>Flush/ Block</desc>
			<v:textBlock v:margins="rect(4,4,4,4)" v:tabSpace="42.5197"/>
			<v:textRect cx="24.9044" cy="263.012" width="49.81" height="14.1732"/>
			<rect x="0" y="255.925" width="49.8088" height="14.1732" class="st4"/>
			<text x="16.74" y="261.21" class="st11" v:langID="1030"><v:paragraph v:horizAlign="1"/><v:tabList/>Flush/<v:newlineChar/><tspan
						x="17.57" dy="1.2em" class="st6">Block</tspan></text>		</g>
		<g id="shape55-92" v:mID="55" v:groupContext="shape" transform="translate(-23.9092,-10.5115) rotate(-40.3651)">
			<title>Sheet.55</title>
			<path d="M0 270.1 L70.03 270.1" class="st10"/>
		</g>
		<g id="shape56-97" v:mID="56" v:groupContext="shape" transform="translate(-4.95074,-50.6401) rotate(-27.8386)">
			<title>Sheet.56</title>
			<path d="M0 270.1 L94.09 270.1" class="st10"/>
		</g>
		<g id="shape57-102" v:mID="57" v:groupContext="shape" transform="translate(123.293,-99.4296)">
			<title>Sheet.57</title>
			<desc>Link State</desc>
			<v:textBlock v:margins="rect(4,4,4,4)" v:tabSpace="42.5197"/>
			<v:textRect cx="24.9044" cy="263.012" width="49.81" height="14.1732"/>
			<rect x="0" y="255.925" width="49.8088" height="14.1732" class="st4"/>
			<text x="11.56" y="264.81" class="st11" v:langID="1030"><v:paragraph v:horizAlign="1"/><v:tabList/>Link State</text>		</g>
		<g id="shape58-105" v:mID="58" v:groupContext="shape" transform="translate(176.442,-94.6554)">
			<title>Sheet.58</title>
			<desc>ccm-defect</desc>
			<v:textBlock v:margins="rect(4,4,4,4)" v:tabSpace="42.5197"/>
			<v:textRect cx="24.9044" cy="263.012" width="49.81" height="14.1732"/>
			<rect x="0" y="255.925" width="49.8088" height="14.1732" class="st4"/>
			<text x="10.23" y="264.81" class="st11" v:langID="1030"><v:paragraph v:horizAlign="1"/><v:tabList/>ccm-defect</text>		</g>
		<g id="shape60-108" v:mID="60" v:groupContext="shape" v:layerMember="1" transform="translate(443.051,175.464) rotate(90)">
			<title>Manual operation.60</title>
			<v:custProps>
				<v:cp v:nameU="Cost" v:lbl="Cost" v:type="7" v:format="@" v:langID="1033"/>
				<v:cp v:nameU="Duration" v:lbl="Duration" v:type="2" v:langID="1033"/>
				<v:cp v:nameU="Resources" v:lbl="Resources" v:langID="1033"/>
			</v:custProps>
			<v:userDefs>
				<v:ud v:nameU="AntiScale" v:val="VT0(1):26"/>
				<v:ud v:nameU="visVersion" v:val="VT0(12):26"/>
			</v:userDefs>
			<path d="M12.9 270.1 L38.69 270.1 L51.58 256.34 L0 256.34 L12.9 270.1 Z" class="st3"/>
		</g>
		<g id="shape61-110" v:mID="61" v:groupContext="shape" transform="translate(219.685,-90.6341)">
			<title>Sheet.61</title>
			<path d="M9.92 243.38 L9.92 270.1 L0 270.1" class="st12"/>
		</g>
		<g id="shape62-117" v:mID="62" v:groupContext="shape" transform="translate(226.569,-95.1098)">
			<title>Sheet.62</title>
			<desc>RAPS frames</desc>
			<v:textBlock v:margins="rect(4,4,4,4)" v:tabSpace="42.5197"/>
			<v:textRect cx="24.9044" cy="263.012" width="49.81" height="14.1732"/>
			<rect x="0" y="255.925" width="49.8088" height="14.1732" class="st4"/>
			<text x="6.73" y="264.81" class="st11" v:langID="1030"><v:paragraph v:horizAlign="1"/><v:tabList/>RAPS frames</text>		</g>
		<g id="group69-120" transform="translate(-50.4132,93.6789) rotate(-90)" v:mID="69" v:groupContext="group">
			<title>Sheet.69</title>
			<g id="shape63-121" v:mID="63" v:groupContext="shape" transform="translate(23.5276,540.197) rotate(180)">
				<title>Sheet.63</title>
				<path d="M0 270.1 L23.53 270.1" class="st13"/>
			</g>
			<g id="shape67-124" v:mID="67" v:groupContext="shape" transform="translate(-192.129,80.257) rotate(-45.3431)">
				<title>Sheet.67</title>
				<path d="M-0 270.1 A13.5557 11.2555 56.32 0 1 16.74 270.1" class="st13"/>
			</g>
			<g id="shape68-127" v:mID="68" v:groupContext="shape" transform="translate(215.656,80.257) rotate(45.3431) scale(-1,1)">
				<title>Sheet.68</title>
				<path d="M-0 270.1 A13.5557 11.2555 56.32 0 1 16.74 270.1" class="st13"/>
			</g>
		</g>
		<g id="group70-130" transform="translate(-50.4132,198.859) rotate(-90)" v:mID="70" v:groupContext="group">
			<title>Sheet.70</title>
			<g id="shape71-131" v:mID="71" v:groupContext="shape" transform="translate(23.5276,540.197) rotate(180)">
				<title>Sheet.71</title>
				<path d="M0 270.1 L23.53 270.1" class="st13"/>
			</g>
			<g id="shape72-134" v:mID="72" v:groupContext="shape" transform="translate(-192.129,80.257) rotate(-45.3431)">
				<title>Sheet.72</title>
				<path d="M-0 270.1 A13.5557 11.2555 56.32 0 1 16.74 270.1" class="st13"/>
			</g>
			<g id="shape73-137" v:mID="73" v:groupContext="shape" transform="translate(215.656,80.257) rotate(45.3431) scale(-1,1)">
				<title>Sheet.73</title>
				<path d="M-0 270.1 A13.5557 11.2555 56.32 0 1 16.74 270.1" class="st13"/>
			</g>
		</g>
		<g id="shape74-140" v:mID="74" v:groupContext="shape" transform="translate(187.286,-189.1) rotate(-0.080848)">
			<title>Sheet.74</title>
			<path d="M0 270.1 L20.18 270.1" class="st1"/>
		</g>
		<g id="shape75-143" v:mID="75" v:groupContext="shape" transform="translate(221.732,-188.72) rotate(0.434254)">
			<title>Sheet.75</title>
			<path d="M0 270.1 L61.25 270.1" class="st1"/>
		</g>
		<g id="shape76-146" v:mID="76" v:groupContext="shape" transform="translate(187.304,-84.0826) rotate(-0.080848)">
			<title>Sheet.76</title>
			<path d="M0 270.1 L20.18 270.1" class="st1"/>
		</g>
		<g id="shape77-149" v:mID="77" v:groupContext="shape" transform="translate(221.732,-85.0316) rotate(0.434254)">
			<title>Sheet.77</title>
			<path d="M0 270.1 L61.25 270.1" class="st1"/>
		</g>
		<g id="shape78-152" v:mID="78" v:groupContext="shape" transform="translate(198.425,-205.512)">
			<title>Sheet.78</title>
			<desc>MIP 1</desc>
			<v:textBlock v:margins="rect(4,4,4,4)" v:tabSpace="42.5197"/>
			<v:textRect cx="19.2178" cy="264.7" width="38.44" height="10.7975"/>
			<rect x="0" y="259.301" width="38.4356" height="10.7975" class="st4"/>
			<text x="6.16" y="267.7" class="st7" v:langID="1030"><v:paragraph v:horizAlign="1"/><v:tabList/>MIP 1</text>		</g>
		<g id="shape79-155" v:mID="79" v:groupContext="shape" transform="translate(198.425,-52.982)">
			<title>Sheet.79</title>
			<desc>MIP 2</desc>
			<v:textBlock v:margins="rect(4,4,4,4)" v:tabSpace="42.5197"/>
			<v:textRect cx="19.2178" cy="264.7" width="38.44" height="10.7975"/>
			<rect x="0" y="259.301" width="38.4356" height="10.7975" class="st4"/>
			<text x="6.16" y="267.7" class="st7" v:langID="1030"><v:paragraph v:horizAlign="1"/><v:tabList/>MIP 2</text>		</g>
	</g>
</svg>
