<?xml version="1.0" encoding="UTF-8"?><svg xmlns="http://www.w3.org/2000/svg" xmlns:xlink="http://www.w3.org/1999/xlink" fill-opacity="1" color-rendering="auto" color-interpolation="auto" text-rendering="auto" stroke="black" stroke-linecap="square" width="571" stroke-miterlimit="10" shape-rendering="auto" stroke-opacity="1" fill="black" stroke-dasharray="none" font-weight="normal" stroke-width="1" height="591" font-family="'Dialog'" font-style="normal" stroke-linejoin="miter" font-size="12px" stroke-dashoffset="0" image-rendering="auto">
  <!--Generated by ySVG 2.5-->
  <defs id="genericDefs"/>
  <g>
    <defs id="defs1">
      <linearGradient x1="42.277" gradientUnits="userSpaceOnUse" x2="122.277" y1="191.7678" y2="231.7678" id="linearGradient1" spreadMethod="reflect">
        <stop stop-opacity="1" stop-color="rgb(232,238,247)" offset="0%"/>
        <stop stop-opacity="1" stop-color="rgb(255,153,0)" offset="100%"/>
      </linearGradient>
      <linearGradient x1="14.152" gradientUnits="userSpaceOnUse" x2="150.402" y1="365.7678" y2="428.7678" id="linearGradient2" spreadMethod="reflect">
        <stop stop-opacity="1" stop-color="rgb(232,238,247)" offset="0%"/>
        <stop stop-opacity="1" stop-color="rgb(255,153,0)" offset="100%"/>
      </linearGradient>
      <linearGradient x1="182.902" gradientUnits="userSpaceOnUse" x2="273.902" y1="266.7678" y2="316.7678" id="linearGradient3" spreadMethod="reflect">
        <stop stop-opacity="1" stop-color="rgb(232,238,247)" offset="0%"/>
        <stop stop-opacity="1" stop-color="rgb(255,153,0)" offset="100%"/>
      </linearGradient>
      <linearGradient x1="316.152" gradientUnits="userSpaceOnUse" x2="396.152" y1="191.7678" y2="231.7678" id="linearGradient4" spreadMethod="reflect">
        <stop stop-opacity="1" stop-color="rgb(232,238,247)" offset="0%"/>
        <stop stop-opacity="1" stop-color="red" offset="100%"/>
      </linearGradient>
      <linearGradient x1="199.777" gradientUnits="userSpaceOnUse" x2="305.777" y1="372.2678" y2="422.2678" id="linearGradient5" spreadMethod="reflect">
        <stop stop-opacity="1" stop-color="rgb(232,238,247)" offset="0%"/>
        <stop stop-opacity="1" stop-color="rgb(183,201,227)" offset="100%"/>
      </linearGradient>
      <linearGradient x1="354.4645" gradientUnits="userSpaceOnUse" x2="460.4645" y1="372.2678" y2="422.2678" id="linearGradient6" spreadMethod="reflect">
        <stop stop-opacity="1" stop-color="rgb(232,238,247)" offset="0%"/>
        <stop stop-opacity="1" stop-color="rgb(183,201,227)" offset="100%"/>
      </linearGradient>
      <linearGradient x1="367.4645" gradientUnits="userSpaceOnUse" x2="447.4645" y1="460.7678" y2="500.7678" id="linearGradient7" spreadMethod="reflect">
        <stop stop-opacity="1" stop-color="rgb(232,238,247)" offset="0%"/>
        <stop stop-opacity="1" stop-color="rgb(183,201,227)" offset="100%"/>
      </linearGradient>
      <linearGradient x1="42.277" gradientUnits="userSpaceOnUse" x2="122.277" y1="271.7678" y2="311.7678" id="linearGradient8" spreadMethod="reflect">
        <stop stop-opacity="1" stop-color="rgb(232,238,247)" offset="0%"/>
        <stop stop-opacity="1" stop-color="rgb(255,153,0)" offset="100%"/>
      </linearGradient>
      <linearGradient x1="-67.723" gradientUnits="userSpaceOnUse" x2="12.277" y1="271.7678" y2="311.7678" id="linearGradient9" spreadMethod="reflect">
        <stop stop-opacity="1" stop-color="rgb(232,238,247)" offset="0%"/>
        <stop stop-opacity="1" stop-color="rgb(255,153,0)" offset="100%"/>
      </linearGradient>
      <linearGradient x1="206.4645" gradientUnits="userSpaceOnUse" x2="337.4645" y1="452.2678" y2="509.2678" id="linearGradient10" spreadMethod="reflect">
        <stop stop-opacity="1" stop-color="rgb(232,238,247)" offset="0%"/>
        <stop stop-opacity="1" stop-color="rgb(183,201,227)" offset="100%"/>
      </linearGradient>
      <linearGradient x1="341.9645" gradientUnits="userSpaceOnUse" x2="472.9645" y1="549.7678" y2="606.7678" id="linearGradient11" spreadMethod="reflect">
        <stop stop-opacity="1" stop-color="rgb(232,238,247)" offset="0%"/>
        <stop stop-opacity="1" stop-color="rgb(183,201,227)" offset="100%"/>
      </linearGradient>
      <linearGradient x1="6.527" gradientUnits="userSpaceOnUse" x2="158.027" y1="442.7678" y2="518.7678" id="linearGradient12" spreadMethod="reflect">
        <stop stop-opacity="1" stop-color="rgb(232,238,247)" offset="0%"/>
        <stop stop-opacity="1" stop-color="rgb(183,201,227)" offset="100%"/>
      </linearGradient>
      <linearGradient x1="206.4645" gradientUnits="userSpaceOnUse" x2="286.4645" y1="558.2678" y2="598.2678" id="linearGradient13" spreadMethod="reflect">
        <stop stop-opacity="1" stop-color="rgb(232,238,247)" offset="0%"/>
        <stop stop-opacity="1" stop-color="rgb(183,201,227)" offset="100%"/>
      </linearGradient>
      <linearGradient x1="24.527" gradientUnits="userSpaceOnUse" x2="140.027" y1="558.2678" y2="598.2678" id="linearGradient14" spreadMethod="reflect">
        <stop stop-opacity="1" stop-color="rgb(232,238,247)" offset="0%"/>
        <stop stop-opacity="1" stop-color="rgb(183,201,227)" offset="100%"/>
      </linearGradient>
      <linearGradient x1="24.527" gradientUnits="userSpaceOnUse" x2="104.527" y1="636.7678" y2="676.7678" id="linearGradient15" spreadMethod="reflect">
        <stop stop-opacity="1" stop-color="rgb(232,238,247)" offset="0%"/>
        <stop stop-opacity="1" stop-color="rgb(183,201,227)" offset="100%"/>
      </linearGradient>
      <linearGradient x1="147.9645" gradientUnits="userSpaceOnUse" x2="227.9645" y1="636.7678" y2="676.7678" id="linearGradient16" spreadMethod="reflect">
        <stop stop-opacity="1" stop-color="rgb(232,238,247)" offset="0%"/>
        <stop stop-opacity="1" stop-color="rgb(183,201,227)" offset="100%"/>
      </linearGradient>
      <linearGradient x1="274.4645" gradientUnits="userSpaceOnUse" x2="354.4645" y1="636.7678" y2="676.7678" id="linearGradient17" spreadMethod="reflect">
        <stop stop-opacity="1" stop-color="rgb(232,238,247)" offset="0%"/>
        <stop stop-opacity="1" stop-color="rgb(183,201,227)" offset="100%"/>
      </linearGradient>
      <linearGradient x1="392.9645" gradientUnits="userSpaceOnUse" x2="472.9645" y1="636.7678" y2="676.7678" id="linearGradient18" spreadMethod="reflect">
        <stop stop-opacity="1" stop-color="rgb(232,238,247)" offset="0%"/>
        <stop stop-opacity="1" stop-color="rgb(183,201,227)" offset="100%"/>
      </linearGradient>
      <linearGradient x1="188.402" gradientUnits="userSpaceOnUse" x2="268.402" y1="116.7678" y2="156.7678" id="linearGradient19" spreadMethod="reflect">
        <stop stop-opacity="1" stop-color="rgb(232,238,247)" offset="0%"/>
        <stop stop-opacity="1" stop-color="red" offset="100%"/>
      </linearGradient>
      <linearGradient x1="170.652" gradientUnits="userSpaceOnUse" x2="286.152" y1="186.7678" y2="236.7678" id="linearGradient20" spreadMethod="reflect">
        <stop stop-opacity="1" stop-color="rgb(232,238,247)" offset="0%"/>
        <stop stop-opacity="1" stop-color="red" offset="100%"/>
      </linearGradient>
      <clipPath clipPathUnits="userSpaceOnUse" id="clipPath1">
        <path d="M0 0 L571 0 L571 591 L0 591 L0 0 Z"/>
      </clipPath>
      <clipPath clipPathUnits="userSpaceOnUse" id="clipPath2">
        <path d="M-83 101 L488 101 L488 692 L-83 692 L-83 101 Z"/>
      </clipPath>
    </defs>
    <g fill="white" text-rendering="geometricPrecision" shape-rendering="geometricPrecision" transform="translate(83,-101)" stroke="white">
      <rect x="-83" width="571" height="591" y="101" clip-path="url(#clipPath2)" stroke="none"/>
    </g>
    <g fill="url(#linearGradient1)" text-rendering="geometricPrecision" shape-rendering="geometricPrecision" transform="matrix(1,0,0,1,83,-101)" stroke="url(#linearGradient1)">
      <path d="M42.277 191.7678 L122.277 191.7678 L122.277 231.7678 L42.277 231.7678 Z" stroke="none" clip-path="url(#clipPath2)"/>
    </g>
    <g text-rendering="geometricPrecision" stroke-miterlimit="1.45" shape-rendering="geometricPrecision" transform="matrix(1,0,0,1,83,-101)" stroke-linecap="butt">
      <path fill="none" d="M42.277 191.7678 L122.277 191.7678 L122.277 231.7678 L42.277 231.7678 Z" clip-path="url(#clipPath2)"/>
      <text x="46.9245" xml:space="preserve" y="209.1311" clip-path="url(#clipPath2)" font-family="sans-serif" stroke="none">Start execute</text>
      <text x="54.612" xml:space="preserve" y="223.8323" clip-path="url(#clipPath2)" font-family="sans-serif" stroke="none">from ROM</text>
    </g>
    <g fill="url(#linearGradient2)" text-rendering="geometricPrecision" shape-rendering="geometricPrecision" transform="matrix(1,0,0,1,83,-101)" stroke="url(#linearGradient2)">
      <path d="M14.152 365.7678 L150.402 365.7678 L150.402 428.7678 L14.152 428.7678 Z" stroke="none" clip-path="url(#clipPath2)"/>
    </g>
    <g text-rendering="geometricPrecision" stroke-miterlimit="1.45" shape-rendering="geometricPrecision" transform="matrix(1,0,0,1,83,-101)" stroke-linecap="butt">
      <path fill="none" d="M14.152 365.7678 L150.402 365.7678 L150.402 428.7678 L14.152 428.7678 Z" clip-path="url(#clipPath2)"/>
      <text x="55.9215" xml:space="preserve" y="379.9299" clip-path="url(#clipPath2)" font-family="sans-serif" stroke="none">Load SPL</text>
      <text x="49.277" xml:space="preserve" y="394.6311" clip-path="url(#clipPath2)" font-family="sans-serif" stroke="none">from eMMC/</text>
      <text x="27.6032" xml:space="preserve" y="409.3323" clip-path="url(#clipPath2)" font-family="sans-serif" stroke="none">SD-Card/QSPI-NOR</text>
      <text x="26.5954" xml:space="preserve" y="424.0334" clip-path="url(#clipPath2)" font-family="sans-serif" stroke="none">to SRAM (max 80kb)</text>
    </g>
    <g fill="url(#linearGradient3)" text-rendering="geometricPrecision" shape-rendering="geometricPrecision" transform="matrix(1,0,0,1,83,-101)" stroke="url(#linearGradient3)">
      <path d="M182.902 266.7678 L273.902 266.7678 L273.902 316.7678 L182.902 316.7678 Z" stroke="none" clip-path="url(#clipPath2)"/>
    </g>
    <g text-rendering="geometricPrecision" stroke-miterlimit="1.45" shape-rendering="geometricPrecision" transform="matrix(1,0,0,1,83,-101)" stroke-linecap="butt">
      <path fill="none" d="M182.902 266.7678 L273.902 266.7678 L273.902 316.7678 L182.902 316.7678 Z" clip-path="url(#clipPath2)"/>
      <text x="206.7253" xml:space="preserve" y="281.7805" clip-path="url(#clipPath2)" font-family="sans-serif" stroke="none">Initialize</text>
      <text x="201.3874" xml:space="preserve" y="296.4817" clip-path="url(#clipPath2)" font-family="sans-serif" stroke="none">PCIe end-</text>
      <text x="192.3815" xml:space="preserve" y="311.1829" clip-path="url(#clipPath2)" font-family="sans-serif" stroke="none">point (not A0)</text>
    </g>
    <g fill="url(#linearGradient4)" text-rendering="geometricPrecision" shape-rendering="geometricPrecision" transform="matrix(1,0,0,1,83,-101)" stroke="url(#linearGradient4)">
      <path d="M316.152 191.7678 L396.152 191.7678 L396.152 231.7678 L316.152 231.7678 Z" stroke="none" clip-path="url(#clipPath2)"/>
    </g>
    <g text-rendering="geometricPrecision" stroke-miterlimit="1.45" shape-rendering="geometricPrecision" transform="matrix(1,0,0,1,83,-101)" stroke-linecap="butt">
      <path fill="none" d="M316.152 191.7678 L396.152 191.7678 L396.152 231.7678 L316.152 231.7678 Z" clip-path="url(#clipPath2)"/>
      <text x="340.8122" xml:space="preserve" y="209.1311" clip-path="url(#clipPath2)" font-family="sans-serif" stroke="none">Serial</text>
      <text x="332.8053" xml:space="preserve" y="223.8323" clip-path="url(#clipPath2)" font-family="sans-serif" stroke="none">Interface</text>
    </g>
    <g fill="url(#linearGradient5)" text-rendering="geometricPrecision" shape-rendering="geometricPrecision" transform="matrix(1,0,0,1,83,-101)" stroke="url(#linearGradient5)">
      <path d="M199.777 372.2678 L305.777 372.2678 L305.777 422.2678 L199.777 422.2678 Z" stroke="none" clip-path="url(#clipPath2)"/>
    </g>
    <g text-rendering="geometricPrecision" stroke-miterlimit="1.45" shape-rendering="geometricPrecision" transform="matrix(1,0,0,1,83,-101)" stroke-linecap="butt">
      <path fill="none" d="M199.777 372.2678 L305.777 372.2678 L305.777 422.2678 L199.777 422.2678 Z" clip-path="url(#clipPath2)"/>
      <text x="218.4264" xml:space="preserve" y="394.6311" clip-path="url(#clipPath2)" font-family="sans-serif" stroke="none">SPL initialize</text>
      <text x="216.443" xml:space="preserve" y="409.3323" clip-path="url(#clipPath2)" font-family="sans-serif" stroke="none">DDR memory</text>
    </g>
    <g fill="url(#linearGradient6)" text-rendering="geometricPrecision" shape-rendering="geometricPrecision" transform="matrix(1,0,0,1,83,-101)" stroke="url(#linearGradient6)">
      <path d="M354.4645 372.2678 L460.4645 372.2678 L460.4645 422.2678 L354.4645 422.2678 Z" stroke="none" clip-path="url(#clipPath2)"/>
    </g>
    <g text-rendering="geometricPrecision" stroke-miterlimit="1.45" shape-rendering="geometricPrecision" transform="matrix(1,0,0,1,83,-101)" stroke-linecap="butt">
      <path fill="none" d="M354.4645 372.2678 L460.4645 372.2678 L460.4645 422.2678 L354.4645 422.2678 Z" clip-path="url(#clipPath2)"/>
      <text x="367.7731" xml:space="preserve" y="387.2805" clip-path="url(#clipPath2)" font-family="sans-serif" stroke="none">SPL read conf,</text>
      <text x="371.1042" xml:space="preserve" y="401.9817" clip-path="url(#clipPath2)" font-family="sans-serif" stroke="none">strapping and</text>
      <text x="389.1217" xml:space="preserve" y="416.6829" clip-path="url(#clipPath2)" font-family="sans-serif" stroke="none">buttom</text>
    </g>
    <g fill="url(#linearGradient7)" text-rendering="geometricPrecision" shape-rendering="geometricPrecision" transform="matrix(1,0,0,1,83,-101)" stroke="url(#linearGradient7)">
      <path d="M407.4645 460.7678 L447.4645 480.7678 L407.4645 500.7678 L367.4645 480.7678 Z" stroke="none" clip-path="url(#clipPath2)"/>
    </g>
    <g text-rendering="geometricPrecision" stroke-miterlimit="1.45" shape-rendering="geometricPrecision" transform="matrix(1,0,0,1,83,-101)" stroke-linecap="butt">
      <path fill="none" d="M407.4645 460.7678 L447.4645 480.7678 L407.4645 500.7678 L367.4645 480.7678 Z" clip-path="url(#clipPath2)"/>
      <text x="386.1188" xml:space="preserve" y="485.4817" clip-path="url(#clipPath2)" font-family="sans-serif" stroke="none">Falcon?</text>
    </g>
    <g fill="url(#linearGradient8)" text-rendering="geometricPrecision" shape-rendering="geometricPrecision" transform="matrix(1,0,0,1,83,-101)" stroke="url(#linearGradient8)">
      <path d="M82.277 271.7678 L122.277 291.7678 L82.277 311.7678 L42.277 291.7678 Z" stroke="none" clip-path="url(#clipPath2)"/>
    </g>
    <g text-rendering="geometricPrecision" stroke-miterlimit="1.45" shape-rendering="geometricPrecision" transform="matrix(1,0,0,1,83,-101)" stroke-linecap="butt">
      <path fill="none" d="M82.277 271.7678 L122.277 291.7678 L82.277 311.7678 L42.277 291.7678 Z" clip-path="url(#clipPath2)"/>
      <text x="62.2731" xml:space="preserve" y="296.4817" clip-path="url(#clipPath2)" font-family="sans-serif" stroke="none">STRAP</text>
    </g>
    <g fill="url(#linearGradient9)" text-rendering="geometricPrecision" shape-rendering="geometricPrecision" transform="matrix(1,0,0,1,83,-101)" stroke="url(#linearGradient9)">
      <path d="M-67.723 271.7678 L12.277 271.7678 L12.277 311.7678 L-67.723 311.7678 Z" stroke="none" clip-path="url(#clipPath2)"/>
    </g>
    <g text-rendering="geometricPrecision" stroke-miterlimit="1.45" shape-rendering="geometricPrecision" transform="matrix(1,0,0,1,83,-101)" stroke-linecap="butt">
      <path fill="none" d="M-67.723 271.7678 L12.277 271.7678 L12.277 311.7678 L-67.723 311.7678 Z" clip-path="url(#clipPath2)"/>
      <text x="-50.7269" xml:space="preserve" y="289.1311" clip-path="url(#clipPath2)" font-family="sans-serif" stroke="none">SAM-BA</text>
      <text x="-47.7298" xml:space="preserve" y="303.8323" clip-path="url(#clipPath2)" font-family="sans-serif" stroke="none">Monitor</text>
    </g>
    <g fill="url(#linearGradient10)" text-rendering="geometricPrecision" shape-rendering="geometricPrecision" transform="matrix(1,0,0,1,83,-101)" stroke="url(#linearGradient10)">
      <path d="M206.4645 452.2678 L337.4645 452.2678 L337.4645 509.2678 L206.4645 509.2678 Z" stroke="none" clip-path="url(#clipPath2)"/>
    </g>
    <g text-rendering="geometricPrecision" stroke-miterlimit="1.45" shape-rendering="geometricPrecision" transform="matrix(1,0,0,1,83,-101)" stroke-linecap="butt">
      <path fill="none" d="M206.4645 452.2678 L337.4645 452.2678 L337.4645 509.2678 L206.4645 509.2678 Z" clip-path="url(#clipPath2)"/>
      <text x="240.2741" xml:space="preserve" y="470.7805" clip-path="url(#clipPath2)" font-family="sans-serif" stroke="none">Load UBoot</text>
      <text x="216.942" xml:space="preserve" y="485.4817" clip-path="url(#clipPath2)" font-family="sans-serif" stroke="none">from STRAP defined</text>
      <text x="259.2907" xml:space="preserve" y="500.1829" clip-path="url(#clipPath2)" font-family="sans-serif" stroke="none">flash</text>
    </g>
    <g fill="url(#linearGradient11)" text-rendering="geometricPrecision" shape-rendering="geometricPrecision" transform="matrix(1,0,0,1,83,-101)" stroke="url(#linearGradient11)">
      <path d="M341.9645 549.7678 L472.9645 549.7678 L472.9645 606.7678 L341.9645 606.7678 Z" stroke="none" clip-path="url(#clipPath2)"/>
    </g>
    <g text-rendering="geometricPrecision" stroke-miterlimit="1.45" shape-rendering="geometricPrecision" transform="matrix(1,0,0,1,83,-101)" stroke-linecap="butt">
      <path fill="none" d="M341.9645 549.7678 L472.9645 549.7678 L472.9645 606.7678 L341.9645 606.7678 Z" clip-path="url(#clipPath2)"/>
      <text x="376.4391" xml:space="preserve" y="560.9299" clip-path="url(#clipPath2)" font-family="sans-serif" stroke="none">Load Linux,</text>
      <text x="359.4469" xml:space="preserve" y="575.6311" clip-path="url(#clipPath2)" font-family="sans-serif" stroke="none">DT (modified) and</text>
      <text x="369.1208" xml:space="preserve" y="590.3323" clip-path="url(#clipPath2)" font-family="sans-serif" stroke="none">initfs into DDR</text>
      <text x="381.4577" xml:space="preserve" y="605.0334" clip-path="url(#clipPath2)" font-family="sans-serif" stroke="none">(1-50mb) </text>
    </g>
    <g fill="url(#linearGradient12)" text-rendering="geometricPrecision" shape-rendering="geometricPrecision" transform="matrix(1,0,0,1,83,-101)" stroke="url(#linearGradient12)">
      <path d="M6.527 442.7678 L158.027 442.7678 L158.027 518.7678 L6.527 518.7678 Z" stroke="none" clip-path="url(#clipPath2)"/>
    </g>
    <g text-rendering="geometricPrecision" stroke-miterlimit="1.45" shape-rendering="geometricPrecision" transform="matrix(1,0,0,1,83,-101)" stroke-linecap="butt">
      <path fill="none" d="M6.527 442.7678 L158.027 442.7678 L158.027 518.7678 L6.527 518.7678 Z" clip-path="url(#clipPath2)"/>
      <text x="23.9118" xml:space="preserve" y="456.0793" clip-path="url(#clipPath2)" font-family="sans-serif" stroke="none">UBoot: read env-conf,</text>
      <text x="24.6003" xml:space="preserve" y="470.7805" clip-path="url(#clipPath2)" font-family="sans-serif" stroke="none">OTP (for MAC), loads</text>
      <text x="37.9274" xml:space="preserve" y="485.4817" clip-path="url(#clipPath2)" font-family="sans-serif" stroke="none">image from flash</text>
      <text x="54.2663" xml:space="preserve" y="500.1829" clip-path="url(#clipPath2)" font-family="sans-serif" stroke="none">or network</text>
      <text x="57.9372" xml:space="preserve" y="514.884" clip-path="url(#clipPath2)" font-family="sans-serif" stroke="none">(1-50mb)</text>
    </g>
    <g fill="url(#linearGradient13)" text-rendering="geometricPrecision" shape-rendering="geometricPrecision" transform="matrix(1,0,0,1,83,-101)" stroke="url(#linearGradient13)">
      <path d="M206.4645 558.2678 L286.4645 558.2678 L286.4645 598.2678 L206.4645 598.2678 Z" stroke="none" clip-path="url(#clipPath2)"/>
    </g>
    <g text-rendering="geometricPrecision" stroke-miterlimit="1.45" shape-rendering="geometricPrecision" transform="matrix(1,0,0,1,83,-101)" stroke-linecap="butt">
      <path fill="none" d="M206.4645 558.2678 L286.4645 558.2678 L286.4645 598.2678 L206.4645 598.2678 Z" clip-path="url(#clipPath2)"/>
      <text x="215.776" xml:space="preserve" y="582.9817" clip-path="url(#clipPath2)" font-family="sans-serif" stroke="none">Linux boots</text>
    </g>
    <g fill="url(#linearGradient14)" text-rendering="geometricPrecision" shape-rendering="geometricPrecision" transform="matrix(1,0,0,1,83,-101)" stroke="url(#linearGradient14)">
      <path d="M24.527 558.2678 L140.027 558.2678 L140.027 598.2678 L24.527 598.2678 Z" stroke="none" clip-path="url(#clipPath2)"/>
    </g>
    <g text-rendering="geometricPrecision" stroke-miterlimit="1.45" shape-rendering="geometricPrecision" transform="matrix(1,0,0,1,83,-101)" stroke-linecap="butt">
      <path fill="none" d="M24.527 558.2678 L140.027 558.2678 L140.027 598.2678 L24.527 598.2678 Z" clip-path="url(#clipPath2)"/>
      <text x="32.9235" xml:space="preserve" y="582.9817" clip-path="url(#clipPath2)" font-family="sans-serif" stroke="none">Patch Device Tree</text>
    </g>
    <g fill="url(#linearGradient15)" text-rendering="geometricPrecision" shape-rendering="geometricPrecision" transform="matrix(1,0,0,1,83,-101)" stroke="url(#linearGradient15)">
      <path d="M24.527 636.7678 L104.527 636.7678 L104.527 676.7678 L24.527 676.7678 Z" stroke="none" clip-path="url(#clipPath2)"/>
    </g>
    <g text-rendering="geometricPrecision" stroke-miterlimit="1.45" shape-rendering="geometricPrecision" transform="matrix(1,0,0,1,83,-101)" stroke-linecap="butt">
      <path fill="none" d="M24.527 636.7678 L104.527 636.7678 L104.527 676.7678 L24.527 676.7678 Z" clip-path="url(#clipPath2)"/>
      <text x="39.5163" xml:space="preserve" y="661.4817" clip-path="url(#clipPath2)" font-family="sans-serif" stroke="none">Run initfs</text>
    </g>
    <g fill="url(#linearGradient16)" text-rendering="geometricPrecision" shape-rendering="geometricPrecision" transform="matrix(1,0,0,1,83,-101)" stroke="url(#linearGradient16)">
      <path d="M147.9645 636.7678 L227.9645 636.7678 L227.9645 676.7678 L147.9645 676.7678 Z" stroke="none" clip-path="url(#clipPath2)"/>
    </g>
    <g text-rendering="geometricPrecision" stroke-miterlimit="1.45" shape-rendering="geometricPrecision" transform="matrix(1,0,0,1,83,-101)" stroke-linecap="butt">
      <path fill="none" d="M147.9645 636.7678 L227.9645 636.7678 L227.9645 676.7678 L147.9645 676.7678 Z" clip-path="url(#clipPath2)"/>
      <text x="155.9518" xml:space="preserve" y="654.1311" clip-path="url(#clipPath2)" font-family="sans-serif" stroke="none">mount more</text>
      <text x="155.9577" xml:space="preserve" y="668.8323" clip-path="url(#clipPath2)" font-family="sans-serif" stroke="none">storage (rw)</text>
    </g>
    <g fill="url(#linearGradient17)" text-rendering="geometricPrecision" shape-rendering="geometricPrecision" transform="matrix(1,0,0,1,83,-101)" stroke="url(#linearGradient17)">
      <path d="M274.4645 636.7678 L354.4645 636.7678 L354.4645 676.7678 L274.4645 676.7678 Z" stroke="none" clip-path="url(#clipPath2)"/>
    </g>
    <g text-rendering="geometricPrecision" stroke-miterlimit="1.45" shape-rendering="geometricPrecision" transform="matrix(1,0,0,1,83,-101)" stroke-linecap="butt">
      <path fill="none" d="M274.4645 636.7678 L354.4645 636.7678 L354.4645 676.7678 L274.4645 676.7678 Z" clip-path="url(#clipPath2)"/>
      <text x="289.1198" xml:space="preserve" y="661.4817" clip-path="url(#clipPath2)" font-family="sans-serif" stroke="none">Pivot root</text>
    </g>
    <g fill="url(#linearGradient18)" text-rendering="geometricPrecision" shape-rendering="geometricPrecision" transform="matrix(1,0,0,1,83,-101)" stroke="url(#linearGradient18)">
      <path d="M392.9645 636.7678 L472.9645 636.7678 L472.9645 676.7678 L392.9645 676.7678 Z" stroke="none" clip-path="url(#clipPath2)"/>
    </g>
    <g text-rendering="geometricPrecision" stroke-miterlimit="1.45" shape-rendering="geometricPrecision" transform="matrix(1,0,0,1,83,-101)" stroke-linecap="butt">
      <path fill="none" d="M392.9645 636.7678 L472.9645 636.7678 L472.9645 676.7678 L392.9645 676.7678 Z" clip-path="url(#clipPath2)"/>
      <text x="406.9547" xml:space="preserve" y="654.1311" clip-path="url(#clipPath2)" font-family="sans-serif" stroke="none">User-land</text>
      <text x="418.6295" xml:space="preserve" y="668.8323" clip-path="url(#clipPath2)" font-family="sans-serif" stroke="none">is UP</text>
    </g>
    <g fill="url(#linearGradient19)" text-rendering="geometricPrecision" shape-rendering="geometricPrecision" transform="matrix(1,0,0,1,83,-101)" stroke="url(#linearGradient19)">
      <circle r="20" clip-path="url(#clipPath2)" cx="228.402" cy="136.7678" stroke="none"/>
    </g>
    <g text-rendering="geometricPrecision" stroke-miterlimit="1.45" shape-rendering="geometricPrecision" transform="matrix(1,0,0,1,83,-101)" stroke-linecap="butt">
      <circle fill="none" r="20" clip-path="url(#clipPath2)" cx="228.402" cy="136.7678"/>
      <text x="208.735" xml:space="preserve" y="141.4817" clip-path="url(#clipPath2)" font-family="sans-serif" stroke="none">START</text>
    </g>
    <g fill="url(#linearGradient20)" text-rendering="geometricPrecision" shape-rendering="geometricPrecision" transform="matrix(1,0,0,1,83,-101)" stroke="url(#linearGradient20)">
      <path d="M228.402 186.7678 L286.152 211.7678 L228.402 236.7678 L170.652 211.7678 Z" stroke="none" clip-path="url(#clipPath2)"/>
    </g>
    <g text-rendering="geometricPrecision" stroke-miterlimit="1.45" shape-rendering="geometricPrecision" transform="matrix(1,0,0,1,83,-101)" stroke-linecap="butt">
      <path fill="none" d="M228.402 186.7678 L286.152 211.7678 L228.402 236.7678 L170.652 211.7678 Z" clip-path="url(#clipPath2)"/>
      <text x="200.7253" xml:space="preserve" y="209.1311" clip-path="url(#clipPath2)" font-family="sans-serif" stroke="none">RTL-Read</text>
      <text x="202.7174" xml:space="preserve" y="223.8323" clip-path="url(#clipPath2)" font-family="sans-serif" stroke="none">Strapping</text>
    </g>
    <g text-rendering="geometricPrecision" stroke-miterlimit="1.45" shape-rendering="geometricPrecision" transform="matrix(1,0,0,1,83,-101)" stroke-linecap="butt">
      <path fill="none" d="M150.4187 397.2678 L191.7486 397.2678" clip-path="url(#clipPath2)"/>
    </g>
    <g text-rendering="geometricPrecision" stroke-miterlimit="1.45" shape-rendering="geometricPrecision" transform="matrix(1,0,0,1,83,-101)" stroke-linecap="butt">
      <path d="M199.7486 397.2678 L187.7486 392.2678 L190.7486 397.2678 L187.7486 402.2678 Z" stroke="none" clip-path="url(#clipPath2)"/>
      <path fill="none" d="M305.762 397.2678 L346.4779 397.2678" clip-path="url(#clipPath2)"/>
      <path d="M354.4779 397.2678 L342.4779 392.2678 L345.4779 397.2678 L342.4779 402.2678 Z" clip-path="url(#clipPath2)" stroke="none"/>
      <path fill="none" d="M407.4645 422.2607 L407.4645 452.7417" clip-path="url(#clipPath2)"/>
      <path d="M407.4645 460.7417 L412.4645 448.7417 L407.4645 451.7417 L402.4645 448.7417 Z" clip-path="url(#clipPath2)" stroke="none"/>
      <path fill="none" d="M82.277 231.7287 L82.277 263.745" clip-path="url(#clipPath2)"/>
      <path d="M82.277 271.745 L87.277 259.745 L82.277 262.745 L77.277 259.745 Z" clip-path="url(#clipPath2)" stroke="none"/>
      <path fill="none" d="M82.277 311.7809 L82.277 357.7528" clip-path="url(#clipPath2)"/>
      <path d="M82.277 365.7528 L87.277 353.7528 L82.277 356.7528 L77.277 353.7528 Z" clip-path="url(#clipPath2)" stroke="none"/>
      <path fill="none" d="M122.2687 291.7678 L174.9274 291.7678" clip-path="url(#clipPath2)"/>
      <path d="M182.9274 291.7678 L170.9274 286.7678 L173.9274 291.7678 L170.9274 296.7678 Z" clip-path="url(#clipPath2)" stroke="none"/>
      <path fill="none" d="M42.2892 291.7678 L20.3084 291.7678" clip-path="url(#clipPath2)"/>
      <path d="M12.3084 291.7678 L24.3084 296.7678 L21.3084 291.7678 L24.3084 286.7678 Z" clip-path="url(#clipPath2)" stroke="none"/>
      <path fill="none" d="M367.4695 480.7678 L345.4843 480.7678" clip-path="url(#clipPath2)"/>
      <path d="M337.4843 480.7678 L349.4843 485.7678 L346.4843 480.7678 L349.4843 475.7678 Z" clip-path="url(#clipPath2)" stroke="none"/>
      <path fill="none" d="M407.4645 500.8105 L407.4645 541.7886" clip-path="url(#clipPath2)"/>
      <path d="M407.4645 549.7886 L412.4645 537.7886 L407.4645 540.7886 L402.4645 537.7886 Z" clip-path="url(#clipPath2)" stroke="none"/>
      <path fill="none" d="M206.4353 480.7678 L166.0269 480.7678" clip-path="url(#clipPath2)"/>
      <path d="M158.0269 480.7678 L170.0269 485.7678 L167.0269 480.7678 L170.0269 475.7678 Z" clip-path="url(#clipPath2)" stroke="none"/>
      <path fill="none" d="M341.9403 578.2678 L294.5103 578.2678" clip-path="url(#clipPath2)"/>
      <path d="M286.5103 578.2678 L298.5103 583.2678 L295.5103 578.2678 L298.5103 573.2678 Z" clip-path="url(#clipPath2)" stroke="none"/>
      <path fill="none" d="M82.277 518.8062 L82.277 550.2634" clip-path="url(#clipPath2)"/>
      <path d="M82.277 558.2634 L87.277 546.2634 L82.277 549.2634 L77.277 546.2634 Z" clip-path="url(#clipPath2)" stroke="none"/>
      <path fill="none" d="M140.0393 578.2678 L198.4771 578.2678" clip-path="url(#clipPath2)"/>
      <path d="M206.4771 578.2678 L194.4771 573.2678 L197.4771 578.2678 L194.4771 583.2678 Z" clip-path="url(#clipPath2)" stroke="none"/>
      <path fill="none" d="M206.4595 598.1874 L166.3762 618.1459 L103.1762 618.1459 L90.2087 631.1042" clip-path="url(#clipPath2)"/>
      <path d="M84.5499 636.7591 L96.5724 631.8136 L90.9161 630.3974 L89.5039 624.7401 Z" clip-path="url(#clipPath2)" stroke="none"/>
      <path fill="none" d="M104.5176 656.7678 L139.9931 656.7678" clip-path="url(#clipPath2)"/>
      <path d="M147.9931 656.7678 L135.9931 651.7678 L138.9931 656.7678 L135.9931 661.7678 Z" clip-path="url(#clipPath2)" stroke="none"/>
      <path fill="none" d="M227.959 656.7678 L266.4642 656.7678" clip-path="url(#clipPath2)"/>
      <path d="M274.4642 656.7678 L262.4642 651.7678 L265.4642 656.7678 L262.4642 661.7678 Z" clip-path="url(#clipPath2)" stroke="none"/>
      <path fill="none" d="M354.4756 656.7678 L384.9919 656.7678" clip-path="url(#clipPath2)"/>
      <path d="M392.9919 656.7678 L380.9919 651.7678 L383.9919 656.7678 L380.9919 661.7678 Z" clip-path="url(#clipPath2)" stroke="none"/>
      <path fill="none" d="M228.402 156.7995 L228.402 178.7798" clip-path="url(#clipPath2)"/>
      <path d="M228.402 186.7798 L233.402 174.7798 L228.402 177.7798 L223.402 174.7798 Z" clip-path="url(#clipPath2)" stroke="none"/>
      <path fill="none" d="M286.1328 211.7678 L308.185 211.7678" clip-path="url(#clipPath2)"/>
      <path d="M316.185 211.7678 L304.185 206.7678 L307.185 211.7678 L304.185 216.7678 Z" clip-path="url(#clipPath2)" stroke="none"/>
      <path fill="none" d="M170.6441 211.7678 L130.2752 211.7678" clip-path="url(#clipPath2)"/>
      <path d="M122.2752 211.7678 L134.2752 216.7678 L131.2752 211.7678 L134.2752 206.7678 Z" clip-path="url(#clipPath2)" stroke="none"/>
    </g>
  </g>
</svg>
